G04 #@! TF.FileFunction,Drawing*
%FSLAX46Y46*%
G04 Gerber Fmt 4.6, Leading zero omitted, Abs format (unit mm)*
G04 Created by KiCad (PCBNEW (2014-12-01 BZR 5309)-product) date Wed Dec  3 13:36:29 2014*
%MOMM*%
G01*
G04 APERTURE LIST*
%ADD10C,0.100000*%
%ADD11C,0.300000*%
G04 APERTURE END LIST*
D10*
X110000000Y-32000000D02*
X110000000Y-49000000D01*
D11*
X130671429Y-37214286D02*
X130671429Y-36357143D01*
X130671429Y-36785715D02*
X132171429Y-36785715D01*
X131957143Y-36642858D01*
X131814286Y-36500000D01*
X131742857Y-36357143D01*
X130671429Y-37928571D02*
X130671429Y-38214286D01*
X130742857Y-38357143D01*
X130814286Y-38428571D01*
X131028571Y-38571429D01*
X131314286Y-38642857D01*
X131885714Y-38642857D01*
X132028571Y-38571429D01*
X132100000Y-38500000D01*
X132171429Y-38357143D01*
X132171429Y-38071429D01*
X132100000Y-37928571D01*
X132028571Y-37857143D01*
X131885714Y-37785714D01*
X131528571Y-37785714D01*
X131385714Y-37857143D01*
X131314286Y-37928571D01*
X131242857Y-38071429D01*
X131242857Y-38357143D01*
X131314286Y-38500000D01*
X131385714Y-38571429D01*
X131528571Y-38642857D01*
X130671429Y-39285714D02*
X131671429Y-39285714D01*
X131528571Y-39285714D02*
X131600000Y-39357142D01*
X131671429Y-39500000D01*
X131671429Y-39714285D01*
X131600000Y-39857142D01*
X131457143Y-39928571D01*
X130671429Y-39928571D01*
X131457143Y-39928571D02*
X131600000Y-40000000D01*
X131671429Y-40142857D01*
X131671429Y-40357142D01*
X131600000Y-40500000D01*
X131457143Y-40571428D01*
X130671429Y-40571428D01*
X130671429Y-41285714D02*
X131671429Y-41285714D01*
X131528571Y-41285714D02*
X131600000Y-41357142D01*
X131671429Y-41500000D01*
X131671429Y-41714285D01*
X131600000Y-41857142D01*
X131457143Y-41928571D01*
X130671429Y-41928571D01*
X131457143Y-41928571D02*
X131600000Y-42000000D01*
X131671429Y-42142857D01*
X131671429Y-42357142D01*
X131600000Y-42500000D01*
X131457143Y-42571428D01*
X130671429Y-42571428D01*
X130000000Y-30000000D02*
X130000000Y-49000000D01*
X126000000Y-30000000D02*
X132700000Y-30000000D01*
X126000000Y-49000000D02*
X132700000Y-49000000D01*
X130000000Y-49000000D02*
X129413579Y-47873496D01*
X130000000Y-49000000D02*
X130586421Y-47873496D01*
X130000000Y-30000000D02*
X129413579Y-31126504D01*
X130000000Y-30000000D02*
X130586421Y-31126504D01*
D10*
X125000000Y-49000000D02*
X125000000Y-46000000D01*
X110000000Y-49000000D02*
X125000000Y-49000000D01*
X125000000Y-46000000D02*
X125000000Y-44000000D01*
X125000000Y-44000000D02*
X125000000Y-32000000D01*
D11*
X115214286Y-24328571D02*
X114357143Y-24328571D01*
X114785715Y-24328571D02*
X114785715Y-22828571D01*
X114642858Y-23042857D01*
X114500000Y-23185714D01*
X114357143Y-23257143D01*
X116571429Y-22828571D02*
X115857143Y-22828571D01*
X115785714Y-23542857D01*
X115857143Y-23471429D01*
X116000000Y-23400000D01*
X116357143Y-23400000D01*
X116500000Y-23471429D01*
X116571429Y-23542857D01*
X116642857Y-23685714D01*
X116642857Y-24042857D01*
X116571429Y-24185714D01*
X116500000Y-24257143D01*
X116357143Y-24328571D01*
X116000000Y-24328571D01*
X115857143Y-24257143D01*
X115785714Y-24185714D01*
X117285714Y-24328571D02*
X117285714Y-23328571D01*
X117285714Y-23471429D02*
X117357142Y-23400000D01*
X117500000Y-23328571D01*
X117714285Y-23328571D01*
X117857142Y-23400000D01*
X117928571Y-23542857D01*
X117928571Y-24328571D01*
X117928571Y-23542857D02*
X118000000Y-23400000D01*
X118142857Y-23328571D01*
X118357142Y-23328571D01*
X118500000Y-23400000D01*
X118571428Y-23542857D01*
X118571428Y-24328571D01*
X119285714Y-24328571D02*
X119285714Y-23328571D01*
X119285714Y-23471429D02*
X119357142Y-23400000D01*
X119500000Y-23328571D01*
X119714285Y-23328571D01*
X119857142Y-23400000D01*
X119928571Y-23542857D01*
X119928571Y-24328571D01*
X119928571Y-23542857D02*
X120000000Y-23400000D01*
X120142857Y-23328571D01*
X120357142Y-23328571D01*
X120500000Y-23400000D01*
X120571428Y-23542857D01*
X120571428Y-24328571D01*
X110000000Y-25000000D02*
X125000000Y-25000000D01*
X110000000Y-29000000D02*
X110000000Y-22300000D01*
X125000000Y-29000000D02*
X125000000Y-22300000D01*
X125000000Y-25000000D02*
X123873496Y-25586421D01*
X125000000Y-25000000D02*
X123873496Y-24413579D01*
X110000000Y-25000000D02*
X111126504Y-25586421D01*
X110000000Y-25000000D02*
X111126504Y-24413579D01*
D10*
X123000000Y-30000000D02*
X112000000Y-30000000D01*
X125000000Y-32000000D02*
G75*
G03X123000000Y-30000000I-2000000J0D01*
G01*
X112000000Y-30000000D02*
G75*
G03X110000000Y-32000000I0J-2000000D01*
G01*
M02*
