G04 #@! TF.FileFunction,Legend,Top*
%FSLAX46Y46*%
G04 Gerber Fmt 4.6, Leading zero omitted, Abs format (unit mm)*
G04 Created by KiCad (PCBNEW (2014-12-01 BZR 5309)-product) date Wed Dec  3 13:36:29 2014*
%MOMM*%
G01*
G04 APERTURE LIST*
%ADD10C,0.100000*%
%ADD11C,0.150000*%
%ADD12C,0.152400*%
%ADD13C,0.127000*%
%ADD14C,0.200660*%
%ADD15R,1.250000X1.500000*%
%ADD16R,0.406400X1.371600*%
%ADD17R,1.600200X1.422400*%
%ADD18R,1.905000X1.905000*%
%ADD19C,1.905000*%
%ADD20R,1.500000X1.300000*%
%ADD21R,0.492760X0.942340*%
%ADD22R,0.942340X0.492760*%
%ADD23R,2.042160X2.042160*%
%ADD24R,1.200000X1.200000*%
%ADD25R,1.524000X1.524000*%
%ADD26C,1.524000*%
G04 APERTURE END LIST*
D10*
X110000000Y-32000000D02*
X110000000Y-49000000D01*
X125000000Y-49000000D02*
X125000000Y-46000000D01*
X110000000Y-49000000D02*
X125000000Y-49000000D01*
X125000000Y-46000000D02*
X125000000Y-44000000D01*
X125000000Y-44000000D02*
X125000000Y-32000000D01*
X112661905Y-48766668D02*
X112128571Y-48766668D01*
X112204762Y-48766668D02*
X112166667Y-48728573D01*
X112128571Y-48652382D01*
X112128571Y-48538096D01*
X112166667Y-48461906D01*
X112242857Y-48423811D01*
X112661905Y-48423811D01*
X112242857Y-48423811D02*
X112166667Y-48385715D01*
X112128571Y-48309525D01*
X112128571Y-48195239D01*
X112166667Y-48119049D01*
X112242857Y-48080954D01*
X112661905Y-48080954D01*
X112661905Y-47357144D02*
X112242857Y-47357144D01*
X112166667Y-47395239D01*
X112128571Y-47471429D01*
X112128571Y-47623810D01*
X112166667Y-47700001D01*
X112623810Y-47357144D02*
X112661905Y-47433334D01*
X112661905Y-47623810D01*
X112623810Y-47700001D01*
X112547619Y-47738096D01*
X112471429Y-47738096D01*
X112395238Y-47700001D01*
X112357143Y-47623810D01*
X112357143Y-47433334D01*
X112319048Y-47357144D01*
X112661905Y-46976191D02*
X111861905Y-46976191D01*
X112357143Y-46900000D02*
X112661905Y-46671429D01*
X112128571Y-46671429D02*
X112433333Y-46976191D01*
X112623810Y-46023810D02*
X112661905Y-46100000D01*
X112661905Y-46252381D01*
X112623810Y-46328572D01*
X112547619Y-46366667D01*
X112242857Y-46366667D01*
X112166667Y-46328572D01*
X112128571Y-46252381D01*
X112128571Y-46100000D01*
X112166667Y-46023810D01*
X112242857Y-45985715D01*
X112319048Y-45985715D01*
X112395238Y-46366667D01*
X112661905Y-45642858D02*
X112128571Y-45642858D01*
X112280952Y-45642858D02*
X112204762Y-45604763D01*
X112166667Y-45566667D01*
X112128571Y-45490477D01*
X112128571Y-45414286D01*
X112623810Y-45185715D02*
X112661905Y-45109525D01*
X112661905Y-44957144D01*
X112623810Y-44880953D01*
X112547619Y-44842858D01*
X112509524Y-44842858D01*
X112433333Y-44880953D01*
X112395238Y-44957144D01*
X112395238Y-45071429D01*
X112357143Y-45147620D01*
X112280952Y-45185715D01*
X112242857Y-45185715D01*
X112166667Y-45147620D01*
X112128571Y-45071429D01*
X112128571Y-44957144D01*
X112166667Y-44880953D01*
X112661905Y-44157144D02*
X112242857Y-44157144D01*
X112166667Y-44195239D01*
X112128571Y-44271429D01*
X112128571Y-44423810D01*
X112166667Y-44500001D01*
X112623810Y-44157144D02*
X112661905Y-44233334D01*
X112661905Y-44423810D01*
X112623810Y-44500001D01*
X112547619Y-44538096D01*
X112471429Y-44538096D01*
X112395238Y-44500001D01*
X112357143Y-44423810D01*
X112357143Y-44233334D01*
X112319048Y-44157144D01*
X112623810Y-43814286D02*
X112661905Y-43738096D01*
X112661905Y-43585715D01*
X112623810Y-43509524D01*
X112547619Y-43471429D01*
X112509524Y-43471429D01*
X112433333Y-43509524D01*
X112395238Y-43585715D01*
X112395238Y-43700000D01*
X112357143Y-43776191D01*
X112280952Y-43814286D01*
X112242857Y-43814286D01*
X112166667Y-43776191D01*
X112128571Y-43700000D01*
X112128571Y-43585715D01*
X112166667Y-43509524D01*
X112128571Y-43204762D02*
X112661905Y-43014286D01*
X112128571Y-42823810D02*
X112661905Y-43014286D01*
X112852381Y-43090477D01*
X112890476Y-43128572D01*
X112928571Y-43204762D01*
X112661905Y-42404762D02*
X112623810Y-42480953D01*
X112547619Y-42519048D01*
X111861905Y-42519048D01*
X112128571Y-41757143D02*
X112661905Y-41757143D01*
X112128571Y-42100000D02*
X112547619Y-42100000D01*
X112623810Y-42061905D01*
X112661905Y-41985714D01*
X112661905Y-41871428D01*
X112623810Y-41795238D01*
X112585714Y-41757143D01*
X112661905Y-41376190D02*
X112128571Y-41376190D01*
X112204762Y-41376190D02*
X112166667Y-41338095D01*
X112128571Y-41261904D01*
X112128571Y-41147618D01*
X112166667Y-41071428D01*
X112242857Y-41033333D01*
X112661905Y-41033333D01*
X112242857Y-41033333D02*
X112166667Y-40995237D01*
X112128571Y-40919047D01*
X112128571Y-40804761D01*
X112166667Y-40728571D01*
X112242857Y-40690476D01*
X112661905Y-40690476D01*
X112585714Y-40309523D02*
X112623810Y-40271428D01*
X112661905Y-40309523D01*
X112623810Y-40347618D01*
X112585714Y-40309523D01*
X112661905Y-40309523D01*
X112623810Y-39585714D02*
X112661905Y-39661904D01*
X112661905Y-39814285D01*
X112623810Y-39890476D01*
X112585714Y-39928571D01*
X112509524Y-39966666D01*
X112280952Y-39966666D01*
X112204762Y-39928571D01*
X112166667Y-39890476D01*
X112128571Y-39814285D01*
X112128571Y-39661904D01*
X112166667Y-39585714D01*
X112661905Y-39128571D02*
X112623810Y-39204762D01*
X112585714Y-39242857D01*
X112509524Y-39280952D01*
X112280952Y-39280952D01*
X112204762Y-39242857D01*
X112166667Y-39204762D01*
X112128571Y-39128571D01*
X112128571Y-39014285D01*
X112166667Y-38938095D01*
X112204762Y-38900000D01*
X112280952Y-38861904D01*
X112509524Y-38861904D01*
X112585714Y-38900000D01*
X112623810Y-38938095D01*
X112661905Y-39014285D01*
X112661905Y-39128571D01*
X112661905Y-38519047D02*
X112128571Y-38519047D01*
X112204762Y-38519047D02*
X112166667Y-38480952D01*
X112128571Y-38404761D01*
X112128571Y-38290475D01*
X112166667Y-38214285D01*
X112242857Y-38176190D01*
X112661905Y-38176190D01*
X112242857Y-38176190D02*
X112166667Y-38138094D01*
X112128571Y-38061904D01*
X112128571Y-37947618D01*
X112166667Y-37871428D01*
X112242857Y-37833333D01*
X112661905Y-37833333D01*
X123000000Y-30000000D02*
X112000000Y-30000000D01*
X125000000Y-32000000D02*
G75*
G03X123000000Y-30000000I-2000000J0D01*
G01*
X112000000Y-30000000D02*
G75*
G03X110000000Y-32000000I0J-2000000D01*
G01*
D11*
X121075000Y-42250000D02*
X121075000Y-43250000D01*
X122775000Y-43250000D02*
X122775000Y-42250000D01*
X123075000Y-45100000D02*
X123075000Y-46100000D01*
X124775000Y-46100000D02*
X124775000Y-45100000D01*
D12*
X117500000Y-35520000D02*
X113880500Y-35520000D01*
X113880500Y-35520000D02*
X113880500Y-35075500D01*
X121119500Y-35520000D02*
X121119500Y-35075500D01*
X117500000Y-35520000D02*
X121119500Y-35520000D01*
X121119500Y-35075500D02*
X121818000Y-35075500D01*
X121818000Y-35075500D02*
X121818000Y-30059000D01*
X121818000Y-30059000D02*
X117500000Y-30059000D01*
X117500000Y-30059000D02*
X113182000Y-30059000D01*
X113182000Y-30059000D02*
X113182000Y-35075500D01*
X113182000Y-35075500D02*
X113880500Y-35075500D01*
X114896500Y-30630500D02*
X114896500Y-30249500D01*
X120103500Y-30630500D02*
X120103500Y-30249500D01*
X120103500Y-30630500D02*
X120294000Y-30630500D01*
X120294000Y-30630500D02*
X120103500Y-30249500D01*
X120103500Y-30249500D02*
X119913000Y-30630500D01*
X119913000Y-30630500D02*
X120103500Y-30630500D01*
X115087000Y-30630500D02*
X114706000Y-30630500D01*
X114706000Y-30630500D02*
X114896500Y-30249500D01*
X114896500Y-30249500D02*
X115087000Y-30630500D01*
D11*
X122600000Y-37675000D02*
X121400000Y-37675000D01*
X121400000Y-35925000D02*
X122600000Y-35925000D01*
D13*
X114401200Y-46199640D02*
X115300360Y-47098800D01*
X115300360Y-47098800D02*
X114401200Y-47098800D01*
X114401200Y-47098800D02*
X114401200Y-46199640D01*
X115099700Y-46999740D02*
X114500260Y-46400300D01*
X114500260Y-46400300D02*
X114500260Y-46499360D01*
X114500260Y-46499360D02*
X115000640Y-46999740D01*
X115000640Y-46999740D02*
X114899040Y-46999740D01*
X114899040Y-46999740D02*
X114500260Y-46600960D01*
X114500260Y-46600960D02*
X114500260Y-46700020D01*
X114500260Y-46700020D02*
X114799980Y-46999740D01*
X114799980Y-46999740D02*
X114700920Y-46999740D01*
X114700920Y-46999740D02*
X114500260Y-46799080D01*
X114500260Y-41000260D02*
X120499740Y-41000260D01*
X120499740Y-41000260D02*
X120499740Y-46999740D01*
X120499740Y-46999740D02*
X114500260Y-46999740D01*
X114500260Y-46999740D02*
X114500260Y-41000260D01*
D14*
X115421412Y-46298700D02*
G75*
G03X115421412Y-46298700I-222652J0D01*
G01*
D11*
X122900000Y-32800000D02*
X123900000Y-32800000D01*
X123500000Y-33000000D02*
X123300000Y-33000000D01*
X123200000Y-33100000D02*
X123600000Y-33100000D01*
X123700000Y-33200000D02*
X123100000Y-33200000D01*
X123000000Y-33300000D02*
X123800000Y-33300000D01*
X122900000Y-33400000D02*
X123900000Y-33400000D01*
X123900000Y-33400000D02*
X123400000Y-32900000D01*
X123400000Y-32900000D02*
X122900000Y-33400000D01*
X124100000Y-32000000D02*
X124300000Y-32000000D01*
X124300000Y-32000000D02*
X124300000Y-32100000D01*
X124300000Y-32100000D02*
X124100000Y-32100000D01*
X122700000Y-32000000D02*
X122500000Y-32000000D01*
X122500000Y-32000000D02*
X122500000Y-32100000D01*
X122500000Y-32100000D02*
X122700000Y-32100000D01*
X122700000Y-34200000D02*
X122700000Y-32000000D01*
X124100000Y-32000000D02*
X124100000Y-34200000D01*
D10*
X123616667Y-41285714D02*
X123578572Y-41323810D01*
X123464286Y-41361905D01*
X123388096Y-41361905D01*
X123273810Y-41323810D01*
X123197619Y-41247619D01*
X123159524Y-41171429D01*
X123121429Y-41019048D01*
X123121429Y-40904762D01*
X123159524Y-40752381D01*
X123197619Y-40676190D01*
X123273810Y-40600000D01*
X123388096Y-40561905D01*
X123464286Y-40561905D01*
X123578572Y-40600000D01*
X123616667Y-40638095D01*
X123997619Y-41361905D02*
X124150000Y-41361905D01*
X124226191Y-41323810D01*
X124264286Y-41285714D01*
X124340477Y-41171429D01*
X124378572Y-41019048D01*
X124378572Y-40714286D01*
X124340477Y-40638095D01*
X124302381Y-40600000D01*
X124226191Y-40561905D01*
X124073810Y-40561905D01*
X123997619Y-40600000D01*
X123959524Y-40638095D01*
X123921429Y-40714286D01*
X123921429Y-40904762D01*
X123959524Y-40980952D01*
X123997619Y-41019048D01*
X124073810Y-41057143D01*
X124226191Y-41057143D01*
X124302381Y-41019048D01*
X124340477Y-40980952D01*
X124378572Y-40904762D01*
X123410714Y-42885714D02*
X123372619Y-42923810D01*
X123258333Y-42961905D01*
X123182143Y-42961905D01*
X123067857Y-42923810D01*
X122991666Y-42847619D01*
X122953571Y-42771429D01*
X122915476Y-42619048D01*
X122915476Y-42504762D01*
X122953571Y-42352381D01*
X122991666Y-42276190D01*
X123067857Y-42200000D01*
X123182143Y-42161905D01*
X123258333Y-42161905D01*
X123372619Y-42200000D01*
X123410714Y-42238095D01*
X124172619Y-42961905D02*
X123715476Y-42961905D01*
X123944047Y-42961905D02*
X123944047Y-42161905D01*
X123867857Y-42276190D01*
X123791666Y-42352381D01*
X123715476Y-42390476D01*
X124667857Y-42161905D02*
X124744048Y-42161905D01*
X124820238Y-42200000D01*
X124858333Y-42238095D01*
X124896429Y-42314286D01*
X124934524Y-42466667D01*
X124934524Y-42657143D01*
X124896429Y-42809524D01*
X124858333Y-42885714D01*
X124820238Y-42923810D01*
X124744048Y-42961905D01*
X124667857Y-42961905D01*
X124591667Y-42923810D01*
X124553571Y-42885714D01*
X124515476Y-42809524D01*
X124477381Y-42657143D01*
X124477381Y-42466667D01*
X124515476Y-42314286D01*
X124553571Y-42238095D01*
X124591667Y-42200000D01*
X124667857Y-42161905D01*
X111733334Y-33561905D02*
X111733334Y-34133333D01*
X111695238Y-34247619D01*
X111619048Y-34323810D01*
X111504762Y-34361905D01*
X111428572Y-34361905D01*
X112038096Y-33561905D02*
X112533334Y-33561905D01*
X112266667Y-33866667D01*
X112380953Y-33866667D01*
X112457143Y-33904762D01*
X112495239Y-33942857D01*
X112533334Y-34019048D01*
X112533334Y-34209524D01*
X112495239Y-34285714D01*
X112457143Y-34323810D01*
X112380953Y-34361905D01*
X112152381Y-34361905D01*
X112076191Y-34323810D01*
X112038096Y-34285714D01*
X118366667Y-37161905D02*
X118100000Y-36780952D01*
X117909524Y-37161905D02*
X117909524Y-36361905D01*
X118214286Y-36361905D01*
X118290477Y-36400000D01*
X118328572Y-36438095D01*
X118366667Y-36514286D01*
X118366667Y-36628571D01*
X118328572Y-36704762D01*
X118290477Y-36742857D01*
X118214286Y-36780952D01*
X117909524Y-36780952D01*
X119052381Y-36628571D02*
X119052381Y-37161905D01*
X118861905Y-36323810D02*
X118671429Y-36895238D01*
X119166667Y-36895238D01*
X114290476Y-47561905D02*
X114290476Y-48209524D01*
X114328571Y-48285714D01*
X114366667Y-48323810D01*
X114442857Y-48361905D01*
X114595238Y-48361905D01*
X114671429Y-48323810D01*
X114709524Y-48285714D01*
X114747619Y-48209524D01*
X114747619Y-47561905D01*
X115052381Y-47561905D02*
X115547619Y-47561905D01*
X115280952Y-47866667D01*
X115395238Y-47866667D01*
X115471428Y-47904762D01*
X115509524Y-47942857D01*
X115547619Y-48019048D01*
X115547619Y-48209524D01*
X115509524Y-48285714D01*
X115471428Y-48323810D01*
X115395238Y-48361905D01*
X115166666Y-48361905D01*
X115090476Y-48323810D01*
X115052381Y-48285714D01*
X122409524Y-31111905D02*
X122409524Y-30311905D01*
X122600000Y-30311905D01*
X122714286Y-30350000D01*
X122790477Y-30426190D01*
X122828572Y-30502381D01*
X122866667Y-30654762D01*
X122866667Y-30769048D01*
X122828572Y-30921429D01*
X122790477Y-30997619D01*
X122714286Y-31073810D01*
X122600000Y-31111905D01*
X122409524Y-31111905D01*
X123552381Y-30578571D02*
X123552381Y-31111905D01*
X123361905Y-30273810D02*
X123171429Y-30845238D01*
X123666667Y-30845238D01*
%LPC*%
D15*
X121925000Y-44000000D03*
X121925000Y-41500000D03*
X123925000Y-46850000D03*
X123925000Y-44350000D03*
D16*
X117500000Y-34250000D03*
X116849760Y-34250000D03*
X116199520Y-34250000D03*
X118150240Y-34250000D03*
X118800480Y-34250000D03*
D17*
X120675000Y-33996000D03*
X114325000Y-33996000D03*
D18*
X118706500Y-31583000D03*
X116293500Y-31583000D03*
D19*
X120802000Y-31583000D03*
X114198000Y-31583000D03*
D20*
X120650000Y-36800000D03*
X123350000Y-36800000D03*
D21*
X116199520Y-46849880D03*
X116849760Y-46849880D03*
X117500000Y-46849880D03*
X118150240Y-46849880D03*
D22*
X120352420Y-45950720D03*
X120352420Y-45300480D03*
X120352420Y-44650240D03*
X120352420Y-44000000D03*
X120352420Y-43349760D03*
X120352420Y-42699520D03*
X120352420Y-42049280D03*
D21*
X115549280Y-46849880D03*
D23*
X118449960Y-44949960D03*
X116550040Y-44949960D03*
X116550040Y-43050040D03*
X118449960Y-43050040D03*
D21*
X119501520Y-41147580D03*
X118851280Y-41147580D03*
X118201040Y-41147580D03*
X117500000Y-41147580D03*
X116900560Y-41147580D03*
X116250320Y-41147580D03*
X115600080Y-41147580D03*
D22*
X114650120Y-42049280D03*
X114650120Y-42699520D03*
X114650120Y-43349760D03*
X114650120Y-44000000D03*
X114650120Y-44650240D03*
X114650120Y-45300480D03*
X114650120Y-45950720D03*
D21*
X118800480Y-46849880D03*
X119450720Y-46849880D03*
D24*
X123400000Y-34150000D03*
X123400000Y-32050000D03*
D25*
X123850000Y-39000000D03*
X121310000Y-39000000D03*
D26*
X118770000Y-39000000D03*
X116230000Y-39000000D03*
X113690000Y-39000000D03*
X111150000Y-39000000D03*
M02*
