G04 #@! TF.FileFunction,Legend,Bot*
%FSLAX46Y46*%
G04 Gerber Fmt 4.6, Leading zero omitted, Abs format (unit mm)*
G04 Created by KiCad (PCBNEW (2014-12-01 BZR 5309)-product) date Wed Dec  3 13:36:29 2014*
%MOMM*%
G01*
G04 APERTURE LIST*
%ADD10C,0.100000*%
%ADD11C,0.200000*%
%ADD12C,0.150000*%
%ADD13C,0.002540*%
%ADD14C,1.905000*%
%ADD15R,1.524000X1.524000*%
%ADD16C,1.524000*%
%ADD17R,1.000760X0.701040*%
G04 APERTURE END LIST*
D10*
X110000000Y-32000000D02*
X110000000Y-49000000D01*
X124242857Y-36033334D02*
X124280952Y-36147620D01*
X124319048Y-36185715D01*
X124395238Y-36223810D01*
X124509524Y-36223810D01*
X124585714Y-36185715D01*
X124623810Y-36147620D01*
X124661905Y-36071429D01*
X124661905Y-35766667D01*
X123861905Y-35766667D01*
X123861905Y-36033334D01*
X123900000Y-36109524D01*
X123938095Y-36147620D01*
X124014286Y-36185715D01*
X124090476Y-36185715D01*
X124166667Y-36147620D01*
X124204762Y-36109524D01*
X124242857Y-36033334D01*
X124242857Y-35766667D01*
X124661905Y-36947620D02*
X124661905Y-36566667D01*
X123861905Y-36566667D01*
X124661905Y-37214286D02*
X123861905Y-37214286D01*
X124661905Y-37671429D02*
X124204762Y-37328572D01*
X123861905Y-37671429D02*
X124319048Y-37214286D01*
X110400000Y-36090477D02*
X110361905Y-36014286D01*
X110361905Y-35900001D01*
X110400000Y-35785715D01*
X110476190Y-35709524D01*
X110552381Y-35671429D01*
X110704762Y-35633334D01*
X110819048Y-35633334D01*
X110971429Y-35671429D01*
X111047619Y-35709524D01*
X111123810Y-35785715D01*
X111161905Y-35900001D01*
X111161905Y-35976191D01*
X111123810Y-36090477D01*
X111085714Y-36128572D01*
X110819048Y-36128572D01*
X110819048Y-35976191D01*
X111161905Y-36928572D02*
X110780952Y-36661905D01*
X111161905Y-36471429D02*
X110361905Y-36471429D01*
X110361905Y-36776191D01*
X110400000Y-36852382D01*
X110438095Y-36890477D01*
X110514286Y-36928572D01*
X110628571Y-36928572D01*
X110704762Y-36890477D01*
X110742857Y-36852382D01*
X110780952Y-36776191D01*
X110780952Y-36471429D01*
X111161905Y-37271429D02*
X110361905Y-37271429D01*
X111161905Y-37728572D01*
X110361905Y-37728572D01*
X125000000Y-49000000D02*
X125000000Y-46000000D01*
X110000000Y-49000000D02*
X125000000Y-49000000D01*
X125000000Y-46000000D02*
X125000000Y-44000000D01*
X125000000Y-44000000D02*
X125000000Y-32000000D01*
D11*
X120033334Y-37861905D02*
X120033334Y-37061905D01*
X119766667Y-37633333D01*
X119500000Y-37061905D01*
X119500000Y-37861905D01*
X119157143Y-37633333D02*
X118776191Y-37633333D01*
X119233334Y-37861905D02*
X118966667Y-37061905D01*
X118700000Y-37861905D01*
X118433334Y-37861905D02*
X118433334Y-37061905D01*
X118128572Y-37061905D01*
X118052381Y-37100000D01*
X118014286Y-37138095D01*
X117976191Y-37214286D01*
X117976191Y-37328571D01*
X118014286Y-37404762D01*
X118052381Y-37442857D01*
X118128572Y-37480952D01*
X118433334Y-37480952D01*
X117290477Y-37328571D02*
X117290477Y-37861905D01*
X117633334Y-37328571D02*
X117633334Y-37747619D01*
X117595239Y-37823810D01*
X117519048Y-37861905D01*
X117404762Y-37861905D01*
X117328572Y-37823810D01*
X117290477Y-37785714D01*
X116947619Y-37823810D02*
X116871429Y-37861905D01*
X116719048Y-37861905D01*
X116642857Y-37823810D01*
X116604762Y-37747619D01*
X116604762Y-37709524D01*
X116642857Y-37633333D01*
X116719048Y-37595238D01*
X116833333Y-37595238D01*
X116909524Y-37557143D01*
X116947619Y-37480952D01*
X116947619Y-37442857D01*
X116909524Y-37366667D01*
X116833333Y-37328571D01*
X116719048Y-37328571D01*
X116642857Y-37366667D01*
X115919048Y-37861905D02*
X115919048Y-37442857D01*
X115957143Y-37366667D01*
X116033333Y-37328571D01*
X116185714Y-37328571D01*
X116261905Y-37366667D01*
X115919048Y-37823810D02*
X115995238Y-37861905D01*
X116185714Y-37861905D01*
X116261905Y-37823810D01*
X116300000Y-37747619D01*
X116300000Y-37671429D01*
X116261905Y-37595238D01*
X116185714Y-37557143D01*
X115995238Y-37557143D01*
X115919048Y-37519048D01*
X115538095Y-37861905D02*
X115538095Y-37328571D01*
X115538095Y-37480952D02*
X115500000Y-37404762D01*
X115461904Y-37366667D01*
X115385714Y-37328571D01*
X115309523Y-37328571D01*
X115157143Y-37328571D02*
X114852381Y-37328571D01*
X115042857Y-37061905D02*
X115042857Y-37747619D01*
X115004762Y-37823810D01*
X114928571Y-37861905D01*
X114852381Y-37861905D01*
D10*
X123000000Y-30000000D02*
X112000000Y-30000000D01*
X125000000Y-32000000D02*
G75*
G03X123000000Y-30000000I-2000000J0D01*
G01*
X112000000Y-30000000D02*
G75*
G03X110000000Y-32000000I0J-2000000D01*
G01*
D12*
X109880000Y-49100000D02*
X109880000Y-40270000D01*
X112420000Y-49100000D02*
X109880000Y-49100000D01*
X112420000Y-40270000D02*
X109880000Y-40270000D01*
X114960000Y-40270000D02*
X112420000Y-40270000D01*
X114960000Y-49100000D02*
X112420000Y-49100000D01*
X117500000Y-49100000D02*
X114960000Y-49100000D01*
X117500000Y-40270000D02*
X114960000Y-40270000D01*
X120040000Y-40270000D02*
X117500000Y-40270000D01*
X120040000Y-49100000D02*
X117500000Y-49100000D01*
X122580000Y-49100000D02*
X120040000Y-49100000D01*
X122580000Y-40270000D02*
X120040000Y-40270000D01*
X125120000Y-40270000D02*
X122580000Y-40270000D01*
X125120000Y-40270000D02*
X125120000Y-49100000D01*
X125120000Y-49100000D02*
X122580000Y-49100000D01*
D10*
G36*
X112819217Y-47264956D02*
X112820827Y-47319615D01*
X112825398Y-47368527D01*
X112831412Y-47401456D01*
X112858590Y-47484012D01*
X112897635Y-47559183D01*
X112948261Y-47626753D01*
X113010184Y-47686509D01*
X113083118Y-47738235D01*
X113166777Y-47781717D01*
X113260875Y-47816742D01*
X113263466Y-47817396D01*
X113263466Y-47176792D01*
X113265926Y-47151491D01*
X113270268Y-47126656D01*
X113276733Y-47098109D01*
X113285561Y-47069582D01*
X113297613Y-47039378D01*
X113313752Y-47005795D01*
X113334842Y-46967135D01*
X113361746Y-46921698D01*
X113395326Y-46867783D01*
X113426193Y-46819551D01*
X113454076Y-46776327D01*
X113480694Y-46735052D01*
X113504685Y-46697841D01*
X113524686Y-46666804D01*
X113539337Y-46644056D01*
X113545608Y-46634305D01*
X113555324Y-46619191D01*
X113571458Y-46594112D01*
X113592786Y-46560966D01*
X113618086Y-46521654D01*
X113646137Y-46478074D01*
X113675715Y-46432127D01*
X113679552Y-46426167D01*
X113709681Y-46379358D01*
X113738836Y-46334046D01*
X113765707Y-46292268D01*
X113788981Y-46256065D01*
X113807348Y-46227475D01*
X113819496Y-46208537D01*
X113820196Y-46207444D01*
X113840931Y-46175083D01*
X113868230Y-46132522D01*
X113901022Y-46081428D01*
X113938236Y-46023468D01*
X113978801Y-45960309D01*
X114021646Y-45893619D01*
X114065699Y-45825064D01*
X114109890Y-45756311D01*
X114153148Y-45689028D01*
X114194400Y-45624882D01*
X114232577Y-45565539D01*
X114261500Y-45520600D01*
X114295999Y-45467000D01*
X114330504Y-45413367D01*
X114363668Y-45361801D01*
X114394141Y-45314399D01*
X114420573Y-45273262D01*
X114441615Y-45240487D01*
X114452000Y-45224292D01*
X114477395Y-45184744D01*
X114505872Y-45140535D01*
X114533701Y-45097450D01*
X114554306Y-45065653D01*
X114577837Y-45029368D01*
X114603127Y-44990291D01*
X114626783Y-44953667D01*
X114642025Y-44930010D01*
X114662041Y-44898970D01*
X114682632Y-44867169D01*
X114700388Y-44839870D01*
X114705954Y-44831357D01*
X114719883Y-44809638D01*
X114730904Y-44791608D01*
X114736224Y-44781968D01*
X114741276Y-44773344D01*
X114752942Y-44754703D01*
X114770087Y-44727820D01*
X114791572Y-44694468D01*
X114816264Y-44656423D01*
X114833162Y-44630528D01*
X114861858Y-44586587D01*
X114890471Y-44542675D01*
X114917266Y-44501464D01*
X114940505Y-44465626D01*
X114958453Y-44437832D01*
X114963840Y-44429444D01*
X114997407Y-44377070D01*
X115037745Y-44314197D01*
X115083980Y-44242184D01*
X115135237Y-44162392D01*
X115190641Y-44076183D01*
X115249319Y-43984916D01*
X115310395Y-43889953D01*
X115372995Y-43792654D01*
X115436245Y-43694379D01*
X115439958Y-43688611D01*
X115477106Y-43630892D01*
X115519871Y-43564425D01*
X115566241Y-43492338D01*
X115614206Y-43417755D01*
X115661757Y-43343802D01*
X115706883Y-43273605D01*
X115739442Y-43222944D01*
X115781960Y-43156783D01*
X115827430Y-43086031D01*
X115874765Y-43012383D01*
X115922873Y-42937534D01*
X115970667Y-42863180D01*
X116017054Y-42791015D01*
X116060948Y-42722735D01*
X116101256Y-42660035D01*
X116136891Y-42604609D01*
X116166761Y-42558154D01*
X116183903Y-42531500D01*
X116195265Y-42513840D01*
X116213013Y-42486262D01*
X116235897Y-42450709D01*
X116262664Y-42409126D01*
X116292062Y-42363460D01*
X116322838Y-42315654D01*
X116331504Y-42302194D01*
X116380447Y-42226165D01*
X116431795Y-42146382D01*
X116484847Y-42063933D01*
X116538907Y-41979906D01*
X116593273Y-41895388D01*
X116647247Y-41811466D01*
X116700130Y-41729228D01*
X116751223Y-41649761D01*
X116799826Y-41574153D01*
X116845241Y-41503490D01*
X116886769Y-41438861D01*
X116923710Y-41381353D01*
X116955364Y-41332053D01*
X116981034Y-41292048D01*
X117000020Y-41262427D01*
X117005129Y-41254444D01*
X117023478Y-41225755D01*
X117040800Y-41198671D01*
X117054484Y-41177275D01*
X117059278Y-41169778D01*
X117107168Y-41095337D01*
X117148239Y-41032484D01*
X117182867Y-40980667D01*
X117211429Y-40939338D01*
X117234302Y-40907943D01*
X117251864Y-40885934D01*
X117258960Y-40878080D01*
X117314730Y-40828678D01*
X117373991Y-40792482D01*
X117436206Y-40769743D01*
X117500839Y-40760712D01*
X117510696Y-40760555D01*
X117543986Y-40761602D01*
X117572101Y-40765577D01*
X117599885Y-40773737D01*
X117632185Y-40787337D01*
X117653607Y-40797579D01*
X117675497Y-40809099D01*
X117696037Y-40821961D01*
X117716063Y-40837199D01*
X117736409Y-40855850D01*
X117757909Y-40878948D01*
X117781397Y-40907527D01*
X117807709Y-40942624D01*
X117837677Y-40985272D01*
X117872138Y-41036507D01*
X117911924Y-41097364D01*
X117957871Y-41168879D01*
X117976571Y-41198201D01*
X118001168Y-41236733D01*
X118031220Y-41283659D01*
X118064514Y-41335530D01*
X118098833Y-41388898D01*
X118131963Y-41440311D01*
X118145221Y-41460849D01*
X118172272Y-41502764D01*
X118205339Y-41554058D01*
X118242814Y-41612234D01*
X118283092Y-41674795D01*
X118324563Y-41739247D01*
X118365622Y-41803091D01*
X118403111Y-41861420D01*
X118437141Y-41914382D01*
X118470315Y-41966008D01*
X118503330Y-42017380D01*
X118536882Y-42069580D01*
X118571665Y-42123690D01*
X118608377Y-42180793D01*
X118647713Y-42241970D01*
X118690368Y-42308304D01*
X118737039Y-42380876D01*
X118788421Y-42460769D01*
X118845209Y-42549065D01*
X118908101Y-42646845D01*
X118977790Y-42755193D01*
X118992746Y-42778444D01*
X119034600Y-42843514D01*
X119081775Y-42916859D01*
X119131961Y-42994884D01*
X119182845Y-43073996D01*
X119232117Y-43150601D01*
X119277464Y-43221105D01*
X119299068Y-43254694D01*
X119338641Y-43316216D01*
X119380952Y-43381988D01*
X119424204Y-43449215D01*
X119466599Y-43515105D01*
X119506341Y-43576864D01*
X119541632Y-43631698D01*
X119564642Y-43667444D01*
X119594762Y-43714250D01*
X119623897Y-43759560D01*
X119650738Y-43801336D01*
X119673975Y-43837539D01*
X119692300Y-43866129D01*
X119704402Y-43885069D01*
X119705101Y-43886167D01*
X119715907Y-43903072D01*
X119733231Y-43930073D01*
X119755938Y-43965405D01*
X119782894Y-44007306D01*
X119812966Y-44054015D01*
X119845019Y-44103767D01*
X119868484Y-44140167D01*
X119917764Y-44216625D01*
X119972787Y-44302050D01*
X120031679Y-44393527D01*
X120092567Y-44488144D01*
X120153574Y-44582987D01*
X120212829Y-44675145D01*
X120268455Y-44761705D01*
X120297495Y-44806917D01*
X120310649Y-44827361D01*
X120330136Y-44857596D01*
X120354625Y-44895562D01*
X120382789Y-44939198D01*
X120413299Y-44986447D01*
X120444824Y-45035247D01*
X120453219Y-45048238D01*
X120483642Y-45095354D01*
X120512364Y-45139911D01*
X120538277Y-45180181D01*
X120560271Y-45214439D01*
X120577236Y-45240958D01*
X120588063Y-45258011D01*
X120590333Y-45261643D01*
X120601903Y-45280118D01*
X120618437Y-45306221D01*
X120637251Y-45335723D01*
X120647640Y-45351932D01*
X120696475Y-45427945D01*
X120750926Y-45512663D01*
X120808966Y-45602932D01*
X120868566Y-45695598D01*
X120927696Y-45787506D01*
X120984328Y-45875502D01*
X121036433Y-45956431D01*
X121036781Y-45956972D01*
X121067973Y-46005412D01*
X121097355Y-46051050D01*
X121123889Y-46092273D01*
X121146534Y-46127464D01*
X121164253Y-46155010D01*
X121176005Y-46173295D01*
X121179806Y-46179222D01*
X121188238Y-46192348D01*
X121204157Y-46217072D01*
X121227398Y-46253136D01*
X121257793Y-46300282D01*
X121295177Y-46358253D01*
X121339384Y-46426792D01*
X121390248Y-46505639D01*
X121447602Y-46594539D01*
X121468706Y-46627250D01*
X121520776Y-46708119D01*
X121567079Y-46780378D01*
X121607295Y-46843515D01*
X121641100Y-46897020D01*
X121668172Y-46940383D01*
X121688189Y-46973092D01*
X121700828Y-46994637D01*
X121702499Y-46997667D01*
X121729476Y-47056178D01*
X121745189Y-47112971D01*
X121750899Y-47172822D01*
X121750972Y-47181111D01*
X121750271Y-47213643D01*
X121747434Y-47237607D01*
X121741362Y-47258508D01*
X121730955Y-47281849D01*
X121730779Y-47282208D01*
X121716121Y-47308277D01*
X121699370Y-47332622D01*
X121688191Y-47345708D01*
X121660179Y-47368220D01*
X121623194Y-47390328D01*
X121582200Y-47409439D01*
X121542165Y-47422961D01*
X121538360Y-47423918D01*
X121528114Y-47424696D01*
X121504245Y-47425449D01*
X121467241Y-47426176D01*
X121417591Y-47426877D01*
X121355782Y-47427551D01*
X121282303Y-47428199D01*
X121197642Y-47428821D01*
X121102286Y-47429416D01*
X120996725Y-47429985D01*
X120881446Y-47430528D01*
X120756937Y-47431044D01*
X120623687Y-47431533D01*
X120482183Y-47431996D01*
X120332914Y-47432433D01*
X120176368Y-47432842D01*
X120013034Y-47433225D01*
X119843398Y-47433581D01*
X119667950Y-47433911D01*
X119487177Y-47434213D01*
X119301568Y-47434489D01*
X119111611Y-47434737D01*
X118917794Y-47434959D01*
X118720605Y-47435153D01*
X118520532Y-47435320D01*
X118318064Y-47435461D01*
X118113688Y-47435574D01*
X117907893Y-47435659D01*
X117701166Y-47435718D01*
X117493997Y-47435749D01*
X117286873Y-47435753D01*
X117080282Y-47435729D01*
X116874712Y-47435678D01*
X116670653Y-47435599D01*
X116468590Y-47435493D01*
X116269014Y-47435359D01*
X116072412Y-47435197D01*
X115879271Y-47435008D01*
X115690081Y-47434791D01*
X115505330Y-47434546D01*
X115325505Y-47434273D01*
X115151095Y-47433972D01*
X114982587Y-47433644D01*
X114820471Y-47433287D01*
X114665234Y-47432902D01*
X114517364Y-47432489D01*
X114377350Y-47432048D01*
X114245679Y-47431579D01*
X114122840Y-47431082D01*
X114009321Y-47430556D01*
X113905610Y-47430002D01*
X113812195Y-47429420D01*
X113729564Y-47428809D01*
X113658206Y-47428170D01*
X113598609Y-47427502D01*
X113551260Y-47426806D01*
X113516648Y-47426081D01*
X113495261Y-47425327D01*
X113487971Y-47424696D01*
X113422493Y-47404428D01*
X113368953Y-47377080D01*
X113326811Y-47342162D01*
X113295526Y-47299185D01*
X113274558Y-47247660D01*
X113269341Y-47226490D01*
X113264623Y-47199674D01*
X113263466Y-47176792D01*
X113263466Y-47817396D01*
X113365128Y-47843093D01*
X113435464Y-47855085D01*
X113447620Y-47856561D01*
X113462678Y-47857895D01*
X113481339Y-47859094D01*
X113504301Y-47860165D01*
X113532264Y-47861115D01*
X113565927Y-47861950D01*
X113605990Y-47862678D01*
X113653151Y-47863304D01*
X113708110Y-47863836D01*
X113771566Y-47864280D01*
X113844218Y-47864643D01*
X113926766Y-47864932D01*
X114019909Y-47865154D01*
X114124345Y-47865315D01*
X114240774Y-47865421D01*
X114369897Y-47865481D01*
X114512410Y-47865500D01*
X114516728Y-47865500D01*
X114634772Y-47865538D01*
X114748890Y-47865648D01*
X114858291Y-47865827D01*
X114962185Y-47866071D01*
X115059781Y-47866374D01*
X115150290Y-47866732D01*
X115232921Y-47867142D01*
X115306883Y-47867598D01*
X115371386Y-47868098D01*
X115425639Y-47868635D01*
X115468853Y-47869206D01*
X115500237Y-47869807D01*
X115519000Y-47870433D01*
X115524445Y-47871005D01*
X115519325Y-47877419D01*
X115505404Y-47890747D01*
X115484837Y-47909011D01*
X115461007Y-47929214D01*
X115436119Y-47950261D01*
X115415806Y-47968147D01*
X115402220Y-47980927D01*
X115397507Y-47986577D01*
X115403391Y-47993010D01*
X115419889Y-48004965D01*
X115445134Y-48021381D01*
X115477258Y-48041194D01*
X115514396Y-48063342D01*
X115554680Y-48086763D01*
X115596243Y-48110392D01*
X115637219Y-48133169D01*
X115675741Y-48154030D01*
X115709942Y-48171912D01*
X115737956Y-48185752D01*
X115757916Y-48194489D01*
X115767329Y-48197111D01*
X115775547Y-48192438D01*
X115792095Y-48179434D01*
X115815201Y-48159619D01*
X115843092Y-48134516D01*
X115873997Y-48105645D01*
X115875186Y-48104514D01*
X115919307Y-48063525D01*
X115955439Y-48032388D01*
X115984820Y-48010278D01*
X116008691Y-47996373D01*
X116028288Y-47989848D01*
X116044853Y-47989879D01*
X116046912Y-47990338D01*
X116079217Y-48005476D01*
X116105579Y-48032625D01*
X116116844Y-48051920D01*
X116125568Y-48071123D01*
X116128196Y-48083771D01*
X116124985Y-48095911D01*
X116119214Y-48107707D01*
X116110109Y-48122110D01*
X116093927Y-48144510D01*
X116072734Y-48172160D01*
X116048600Y-48202314D01*
X116041264Y-48211233D01*
X116018105Y-48239529D01*
X115998563Y-48264016D01*
X115984239Y-48282639D01*
X115976734Y-48293344D01*
X115976000Y-48294962D01*
X115982367Y-48299587D01*
X116000127Y-48307905D01*
X116027272Y-48319196D01*
X116061792Y-48332737D01*
X116101678Y-48347808D01*
X116144922Y-48363688D01*
X116189513Y-48379654D01*
X116233444Y-48394987D01*
X116274704Y-48408964D01*
X116311285Y-48420865D01*
X116341178Y-48429968D01*
X116362373Y-48435551D01*
X116371659Y-48437000D01*
X116381365Y-48431104D01*
X116398418Y-48413388D01*
X116422857Y-48383807D01*
X116454720Y-48342317D01*
X116467910Y-48324598D01*
X116503608Y-48277421D01*
X116533074Y-48241160D01*
X116557454Y-48214706D01*
X116577894Y-48196946D01*
X116595540Y-48186770D01*
X116611540Y-48183066D01*
X116614006Y-48183000D01*
X116631302Y-48187151D01*
X116653792Y-48197641D01*
X116676045Y-48211529D01*
X116692139Y-48225323D01*
X116702655Y-48244234D01*
X116705937Y-48271577D01*
X116705928Y-48273699D01*
X116704754Y-48288898D01*
X116700790Y-48304744D01*
X116692905Y-48323861D01*
X116679967Y-48348874D01*
X116660849Y-48382407D01*
X116654295Y-48393576D01*
X116632014Y-48431452D01*
X116616169Y-48458909D01*
X116606080Y-48477711D01*
X116601066Y-48489624D01*
X116600446Y-48496412D01*
X116603539Y-48499840D01*
X116609663Y-48501673D01*
X116612355Y-48502255D01*
X116669658Y-48514338D01*
X116728032Y-48525863D01*
X116785713Y-48536552D01*
X116840937Y-48546128D01*
X116891939Y-48554312D01*
X116936953Y-48560827D01*
X116974216Y-48565395D01*
X117001963Y-48567739D01*
X117018430Y-48567581D01*
X117021617Y-48566666D01*
X117026416Y-48559527D01*
X117036342Y-48541803D01*
X117050288Y-48515570D01*
X117067151Y-48482904D01*
X117084287Y-48448959D01*
X117109243Y-48399624D01*
X117129394Y-48361486D01*
X117145830Y-48332922D01*
X117159643Y-48312308D01*
X117171921Y-48298021D01*
X117183756Y-48288437D01*
X117196238Y-48281933D01*
X117196547Y-48281804D01*
X117224057Y-48277405D01*
X117253854Y-48283568D01*
X117281890Y-48298245D01*
X117304117Y-48319390D01*
X117315761Y-48342091D01*
X117317788Y-48354239D01*
X117317057Y-48369078D01*
X117313035Y-48388636D01*
X117305191Y-48414941D01*
X117292990Y-48450022D01*
X117275902Y-48495906D01*
X117274157Y-48500500D01*
X117264169Y-48525704D01*
X117256377Y-48545630D01*
X117252036Y-48560905D01*
X117252404Y-48572157D01*
X117258735Y-48580013D01*
X117272287Y-48585102D01*
X117294316Y-48588050D01*
X117326078Y-48589486D01*
X117368829Y-48590038D01*
X117423826Y-48590333D01*
X117454412Y-48590562D01*
X117517540Y-48590989D01*
X117567830Y-48590967D01*
X117606551Y-48590453D01*
X117634972Y-48589407D01*
X117654359Y-48587787D01*
X117665982Y-48585552D01*
X117670293Y-48583507D01*
X117677493Y-48572715D01*
X117686486Y-48552330D01*
X117695521Y-48526415D01*
X117696960Y-48521667D01*
X117705359Y-48493723D01*
X117713007Y-48469009D01*
X117718397Y-48452379D01*
X117718837Y-48451111D01*
X117723775Y-48435801D01*
X117731043Y-48411780D01*
X117739168Y-48383926D01*
X117740132Y-48380555D01*
X117749237Y-48351599D01*
X117759037Y-48325071D01*
X117767519Y-48306384D01*
X117768066Y-48305415D01*
X117774525Y-48291999D01*
X117777562Y-48277595D01*
X117777544Y-48257929D01*
X117774838Y-48228727D01*
X117774736Y-48227804D01*
X117765643Y-48145593D01*
X117757803Y-48073292D01*
X117751288Y-48011607D01*
X117746170Y-47961246D01*
X117742522Y-47922917D01*
X117740416Y-47897327D01*
X117739889Y-47886516D01*
X117740458Y-47874869D01*
X117744386Y-47868591D01*
X117755004Y-47866022D01*
X117775644Y-47865503D01*
X117782088Y-47865500D01*
X117802491Y-47865652D01*
X117815923Y-47867767D01*
X117824146Y-47874329D01*
X117828925Y-47887822D01*
X117832023Y-47910733D01*
X117834663Y-47939583D01*
X117837255Y-47966523D01*
X117840828Y-48001270D01*
X117844737Y-48037611D01*
X117845997Y-48048944D01*
X117852945Y-48111157D01*
X117858359Y-48160333D01*
X117862342Y-48197451D01*
X117864998Y-48223490D01*
X117866431Y-48239429D01*
X117866764Y-48245252D01*
X117871758Y-48254843D01*
X117884467Y-48269557D01*
X117895899Y-48280530D01*
X117913479Y-48298112D01*
X117926772Y-48314763D01*
X117931003Y-48322350D01*
X117932454Y-48337528D01*
X117930382Y-48366102D01*
X117924814Y-48407810D01*
X117918368Y-48447498D01*
X117912274Y-48485161D01*
X117907665Y-48517873D01*
X117904838Y-48543144D01*
X117904089Y-48558485D01*
X117904736Y-48561865D01*
X117913733Y-48563017D01*
X117934431Y-48561820D01*
X117964671Y-48558578D01*
X118002295Y-48553595D01*
X118045143Y-48547173D01*
X118091058Y-48539616D01*
X118137880Y-48531228D01*
X118177333Y-48523559D01*
X118213103Y-48516413D01*
X118245829Y-48510052D01*
X118271954Y-48505154D01*
X118287923Y-48502400D01*
X118288211Y-48502357D01*
X118306460Y-48497279D01*
X118318587Y-48489745D01*
X118318618Y-48489708D01*
X118321921Y-48479910D01*
X118326254Y-48458561D01*
X118331206Y-48428145D01*
X118336365Y-48391150D01*
X118340403Y-48358159D01*
X118346681Y-48305099D01*
X118352094Y-48264107D01*
X118357135Y-48233203D01*
X118362294Y-48210411D01*
X118368064Y-48193751D01*
X118374937Y-48181245D01*
X118383403Y-48170916D01*
X118388100Y-48166223D01*
X118416352Y-48148022D01*
X118448200Y-48142194D01*
X118480892Y-48148513D01*
X118511674Y-48166751D01*
X118522851Y-48177350D01*
X118528158Y-48184044D01*
X118531969Y-48192467D01*
X118534528Y-48204889D01*
X118536081Y-48223584D01*
X118536872Y-48250822D01*
X118537147Y-48288875D01*
X118537167Y-48310154D01*
X118537380Y-48349421D01*
X118537971Y-48383567D01*
X118538865Y-48410178D01*
X118539987Y-48426840D01*
X118540899Y-48431325D01*
X118548330Y-48430242D01*
X118566854Y-48425176D01*
X118594258Y-48416842D01*
X118628329Y-48405956D01*
X118666853Y-48393232D01*
X118707618Y-48379387D01*
X118748410Y-48365136D01*
X118773528Y-48356126D01*
X118803726Y-48344771D01*
X118837485Y-48331446D01*
X118871992Y-48317338D01*
X118904437Y-48303634D01*
X118932005Y-48291521D01*
X118951887Y-48282184D01*
X118961080Y-48276978D01*
X118967296Y-48268759D01*
X118969316Y-48255640D01*
X118967589Y-48233645D01*
X118966731Y-48227075D01*
X118964676Y-48205725D01*
X118962677Y-48173855D01*
X118960912Y-48135058D01*
X118959557Y-48092923D01*
X118959096Y-48072058D01*
X118956972Y-47957588D01*
X118980039Y-47934474D01*
X118994790Y-47921194D01*
X119008620Y-47914266D01*
X119027165Y-47911674D01*
X119044734Y-47911361D01*
X119070779Y-47912479D01*
X119088050Y-47916836D01*
X119101776Y-47925932D01*
X119104689Y-47928577D01*
X119119419Y-47947821D01*
X119129545Y-47970379D01*
X119129690Y-47970911D01*
X119134211Y-47990128D01*
X119139953Y-48017635D01*
X119146283Y-48050003D01*
X119152571Y-48083803D01*
X119158186Y-48115608D01*
X119162497Y-48141989D01*
X119164874Y-48159517D01*
X119165144Y-48163597D01*
X119169350Y-48174050D01*
X119174131Y-48175944D01*
X119184190Y-48172507D01*
X119204062Y-48162911D01*
X119231914Y-48148232D01*
X119265913Y-48129544D01*
X119304225Y-48107921D01*
X119345017Y-48084437D01*
X119386456Y-48060169D01*
X119426707Y-48036189D01*
X119463938Y-48013572D01*
X119496316Y-47993394D01*
X119522006Y-47976728D01*
X119539176Y-47964649D01*
X119545992Y-47958232D01*
X119546035Y-47957975D01*
X119544100Y-47949297D01*
X119539236Y-47931805D01*
X119535452Y-47919059D01*
X119529375Y-47897273D01*
X119525581Y-47880293D01*
X119524945Y-47874962D01*
X119526843Y-47873616D01*
X119532959Y-47872399D01*
X119543921Y-47871304D01*
X119560360Y-47870327D01*
X119582905Y-47869460D01*
X119612185Y-47868697D01*
X119648831Y-47868034D01*
X119693473Y-47867463D01*
X119746740Y-47866978D01*
X119809261Y-47866575D01*
X119881667Y-47866245D01*
X119964587Y-47865985D01*
X120058651Y-47865787D01*
X120164488Y-47865646D01*
X120282729Y-47865555D01*
X120414003Y-47865509D01*
X120515740Y-47865500D01*
X120656712Y-47865491D01*
X120784334Y-47865452D01*
X120899367Y-47865368D01*
X121002570Y-47865221D01*
X121094706Y-47864995D01*
X121176534Y-47864673D01*
X121248816Y-47864239D01*
X121312311Y-47863676D01*
X121367782Y-47862968D01*
X121415988Y-47862098D01*
X121457690Y-47861049D01*
X121493649Y-47859804D01*
X121524626Y-47858348D01*
X121551382Y-47856664D01*
X121574677Y-47854735D01*
X121595272Y-47852544D01*
X121613928Y-47850075D01*
X121631405Y-47847311D01*
X121648465Y-47844236D01*
X121665868Y-47840833D01*
X121668159Y-47840373D01*
X121760430Y-47816585D01*
X121847085Y-47783884D01*
X121926468Y-47743203D01*
X121996924Y-47695475D01*
X122056796Y-47641635D01*
X122090430Y-47602259D01*
X122137335Y-47529028D01*
X122171353Y-47450260D01*
X122192468Y-47366208D01*
X122200660Y-47277130D01*
X122195910Y-47183280D01*
X122178201Y-47084914D01*
X122147512Y-46982287D01*
X122137614Y-46955482D01*
X122126618Y-46927643D01*
X122115172Y-46900776D01*
X122102537Y-46873588D01*
X122087971Y-46844787D01*
X122070732Y-46813078D01*
X122050080Y-46777170D01*
X122025272Y-46735768D01*
X121995569Y-46687582D01*
X121960228Y-46631316D01*
X121918508Y-46565679D01*
X121876643Y-46500250D01*
X121858654Y-46472121D01*
X121834861Y-46434804D01*
X121807004Y-46391037D01*
X121776824Y-46343556D01*
X121746064Y-46295098D01*
X121726275Y-46263889D01*
X121694238Y-46213382D01*
X121659930Y-46159378D01*
X121625533Y-46105302D01*
X121593226Y-46054581D01*
X121565189Y-46010643D01*
X121553430Y-45992250D01*
X121528354Y-45953008D01*
X121497907Y-45905270D01*
X121464269Y-45852461D01*
X121429621Y-45798004D01*
X121396143Y-45745325D01*
X121380454Y-45720611D01*
X121350273Y-45673091D01*
X121319558Y-45624811D01*
X121290043Y-45578487D01*
X121263459Y-45536839D01*
X121241541Y-45502584D01*
X121230392Y-45485221D01*
X121181064Y-45408581D01*
X121186564Y-45354693D01*
X121190725Y-45315760D01*
X121192899Y-45288008D01*
X121191553Y-45268513D01*
X121185156Y-45254352D01*
X121172175Y-45242601D01*
X121151078Y-45230337D01*
X121120334Y-45214637D01*
X121110532Y-45209611D01*
X121027481Y-45166750D01*
X120974779Y-45084251D01*
X120955889Y-45053626D01*
X120940545Y-45026714D01*
X120930043Y-45005948D01*
X120925680Y-44993766D01*
X120925760Y-44992156D01*
X120936169Y-44979888D01*
X120954712Y-44968227D01*
X120975635Y-44960293D01*
X120987642Y-44958611D01*
X121001069Y-44960942D01*
X121024356Y-44967280D01*
X121054163Y-44976640D01*
X121085331Y-44987383D01*
X121131392Y-45003805D01*
X121165741Y-45015710D01*
X121189860Y-45023581D01*
X121205232Y-45027905D01*
X121213121Y-45029167D01*
X121214486Y-45022399D01*
X121215691Y-45003245D01*
X121216695Y-44973430D01*
X121217458Y-44934678D01*
X121217940Y-44888715D01*
X121218100Y-44837264D01*
X121218071Y-44817540D01*
X121217847Y-44756925D01*
X121217480Y-44708911D01*
X121216883Y-44671991D01*
X121215970Y-44644654D01*
X121214653Y-44625392D01*
X121212846Y-44612695D01*
X121210462Y-44605054D01*
X121207414Y-44600961D01*
X121205542Y-44599735D01*
X121195154Y-44595797D01*
X121173631Y-44588645D01*
X121143379Y-44579045D01*
X121106803Y-44567759D01*
X121070111Y-44556689D01*
X121029211Y-44544178D01*
X120991852Y-44532196D01*
X120960621Y-44521616D01*
X120938105Y-44513311D01*
X120927600Y-44508603D01*
X120919431Y-44504523D01*
X120909840Y-44502006D01*
X120896473Y-44501073D01*
X120876979Y-44501744D01*
X120849006Y-44504040D01*
X120810200Y-44507980D01*
X120793544Y-44509760D01*
X120752383Y-44514233D01*
X120713998Y-44518485D01*
X120681538Y-44522163D01*
X120658155Y-44524910D01*
X120650063Y-44525928D01*
X120634108Y-44527445D01*
X120623384Y-44525022D01*
X120614004Y-44516147D01*
X120602078Y-44498307D01*
X120598555Y-44492654D01*
X120586907Y-44471838D01*
X120579841Y-44455066D01*
X120578777Y-44447076D01*
X120587423Y-44442152D01*
X120608026Y-44437834D01*
X120638433Y-44434562D01*
X120640868Y-44434384D01*
X120674006Y-44431700D01*
X120711959Y-44428098D01*
X120752101Y-44423890D01*
X120791803Y-44419388D01*
X120828439Y-44414903D01*
X120859380Y-44410746D01*
X120881999Y-44407230D01*
X120893669Y-44404665D01*
X120894403Y-44404329D01*
X120900314Y-44394533D01*
X120900778Y-44390581D01*
X120906734Y-44378531D01*
X120921622Y-44365069D01*
X120940976Y-44353204D01*
X120960327Y-44345947D01*
X120968472Y-44344984D01*
X120982788Y-44346233D01*
X121007797Y-44349515D01*
X121040305Y-44354370D01*
X121077117Y-44360338D01*
X121087750Y-44362144D01*
X121123460Y-44367898D01*
X121154095Y-44372127D01*
X121177036Y-44374523D01*
X121189664Y-44374778D01*
X121191183Y-44374285D01*
X121191840Y-44365765D01*
X121190240Y-44345652D01*
X121186728Y-44316223D01*
X121181645Y-44279754D01*
X121175336Y-44238522D01*
X121168145Y-44194804D01*
X121160414Y-44150877D01*
X121152488Y-44109016D01*
X121147337Y-44083722D01*
X121140478Y-44050530D01*
X121134447Y-44020186D01*
X121130046Y-43996781D01*
X121128398Y-43986955D01*
X121123744Y-43969315D01*
X121117142Y-43958276D01*
X121116993Y-43958159D01*
X121107017Y-43954947D01*
X121086227Y-43950964D01*
X121057859Y-43946760D01*
X121031306Y-43943547D01*
X120970739Y-43936762D01*
X120922592Y-43930971D01*
X120885228Y-43925902D01*
X120857013Y-43921283D01*
X120836311Y-43916842D01*
X120821487Y-43912307D01*
X120810906Y-43907406D01*
X120809681Y-43906682D01*
X120785844Y-43885028D01*
X120772147Y-43857463D01*
X120768307Y-43827177D01*
X120774040Y-43797356D01*
X120789066Y-43771188D01*
X120813099Y-43751861D01*
X120823828Y-43747218D01*
X120840978Y-43743803D01*
X120869554Y-43741074D01*
X120906879Y-43739213D01*
X120950277Y-43738405D01*
X120951931Y-43738398D01*
X120994795Y-43737921D01*
X121025083Y-43736779D01*
X121044316Y-43734838D01*
X121054019Y-43731963D01*
X121055959Y-43729180D01*
X121053625Y-43717249D01*
X121047172Y-43694366D01*
X121037348Y-43662824D01*
X121024899Y-43624918D01*
X121010573Y-43582942D01*
X120995116Y-43539188D01*
X120985310Y-43512222D01*
X120971557Y-43475124D01*
X120960261Y-43445579D01*
X120949534Y-43418958D01*
X120937487Y-43390628D01*
X120922233Y-43355959D01*
X120914748Y-43339137D01*
X120900495Y-43307162D01*
X120867123Y-43310977D01*
X120825372Y-43315161D01*
X120780369Y-43318676D01*
X120734821Y-43321415D01*
X120691434Y-43323272D01*
X120652917Y-43324141D01*
X120621975Y-43323916D01*
X120601317Y-43322491D01*
X120596629Y-43321586D01*
X120566036Y-43306731D01*
X120545572Y-43282160D01*
X120535726Y-43248461D01*
X120535695Y-43248195D01*
X120536605Y-43211801D01*
X120547827Y-43182956D01*
X120568698Y-43163276D01*
X120571009Y-43162019D01*
X120583293Y-43157815D01*
X120606137Y-43151777D01*
X120636222Y-43144620D01*
X120670230Y-43137057D01*
X120704843Y-43129804D01*
X120736740Y-43123575D01*
X120762603Y-43119084D01*
X120779113Y-43117045D01*
X120780159Y-43117003D01*
X120789115Y-43113586D01*
X120794221Y-43110652D01*
X120797036Y-43104800D01*
X120795060Y-43093010D01*
X120787823Y-43074333D01*
X120774855Y-43047821D01*
X120755684Y-43012523D01*
X120729839Y-42967491D01*
X120696851Y-42911775D01*
X120689443Y-42899414D01*
X120660521Y-42851351D01*
X120637889Y-42814072D01*
X120620660Y-42786209D01*
X120607948Y-42766397D01*
X120598869Y-42753267D01*
X120592535Y-42745453D01*
X120588063Y-42741587D01*
X120586755Y-42740906D01*
X120578027Y-42741635D01*
X120557823Y-42745437D01*
X120528321Y-42751836D01*
X120491701Y-42760355D01*
X120450143Y-42770518D01*
X120442116Y-42772533D01*
X120395092Y-42784300D01*
X120359534Y-42792858D01*
X120333248Y-42798533D01*
X120314039Y-42801652D01*
X120299711Y-42802543D01*
X120288072Y-42801533D01*
X120276926Y-42798950D01*
X120272868Y-42797774D01*
X120243551Y-42782157D01*
X120222444Y-42756363D01*
X120211043Y-42722626D01*
X120209450Y-42703140D01*
X120212908Y-42679106D01*
X120224531Y-42658885D01*
X120245875Y-42641084D01*
X120278497Y-42624313D01*
X120312367Y-42611196D01*
X120359937Y-42594288D01*
X120395749Y-42581414D01*
X120421376Y-42571981D01*
X120438391Y-42565396D01*
X120448368Y-42561068D01*
X120452880Y-42558403D01*
X120453088Y-42558208D01*
X120450533Y-42551269D01*
X120439887Y-42535288D01*
X120422405Y-42511799D01*
X120399341Y-42482334D01*
X120371949Y-42448426D01*
X120341483Y-42411607D01*
X120309197Y-42373409D01*
X120276345Y-42335366D01*
X120244182Y-42299010D01*
X120213962Y-42265873D01*
X120213038Y-42264879D01*
X120177167Y-42226341D01*
X120145625Y-42240470D01*
X120126235Y-42249028D01*
X120097939Y-42261357D01*
X120064808Y-42275689D01*
X120036472Y-42287875D01*
X120003908Y-42301932D01*
X119974247Y-42314906D01*
X119950969Y-42325265D01*
X119938374Y-42331075D01*
X119903272Y-42341313D01*
X119869874Y-42338948D01*
X119840541Y-42325475D01*
X119817634Y-42302387D01*
X119803514Y-42271178D01*
X119800111Y-42243603D01*
X119801469Y-42227611D01*
X119806593Y-42213381D01*
X119817058Y-42199441D01*
X119834439Y-42184322D01*
X119860311Y-42166553D01*
X119896248Y-42144665D01*
X119922335Y-42129496D01*
X119953884Y-42110714D01*
X119980319Y-42093790D01*
X119999541Y-42080162D01*
X120009449Y-42071272D01*
X120010312Y-42069209D01*
X120004131Y-42061196D01*
X119988606Y-42045829D01*
X119965437Y-42024537D01*
X119936324Y-41998746D01*
X119902968Y-41969885D01*
X119867069Y-41939382D01*
X119830327Y-41908666D01*
X119794444Y-41879164D01*
X119761120Y-41852304D01*
X119732055Y-41829514D01*
X119708949Y-41812223D01*
X119693504Y-41801859D01*
X119689596Y-41799870D01*
X119681379Y-41802604D01*
X119663531Y-41812142D01*
X119638054Y-41827295D01*
X119606948Y-41846876D01*
X119573959Y-41868528D01*
X119528397Y-41898697D01*
X119492523Y-41921602D01*
X119464540Y-41938182D01*
X119442651Y-41949372D01*
X119425058Y-41956108D01*
X119409964Y-41959327D01*
X119398417Y-41960000D01*
X119376103Y-41953987D01*
X119352874Y-41938292D01*
X119332810Y-41916430D01*
X119320209Y-41892595D01*
X119315338Y-41874141D01*
X119314809Y-41857839D01*
X119319798Y-41841821D01*
X119331480Y-41824221D01*
X119351031Y-41803172D01*
X119379625Y-41776806D01*
X119409304Y-41751058D01*
X119438586Y-41725478D01*
X119463451Y-41702768D01*
X119482162Y-41684597D01*
X119492978Y-41672635D01*
X119494927Y-41668863D01*
X119487804Y-41662058D01*
X119470148Y-41649692D01*
X119443871Y-41632857D01*
X119410884Y-41612649D01*
X119373096Y-41590161D01*
X119332420Y-41566485D01*
X119290766Y-41542716D01*
X119250045Y-41519948D01*
X119212168Y-41499274D01*
X119179045Y-41481788D01*
X119152588Y-41468583D01*
X119134708Y-41460753D01*
X119128331Y-41459055D01*
X119117614Y-41463861D01*
X119102810Y-41475888D01*
X119097640Y-41481085D01*
X119085420Y-41493362D01*
X119065095Y-41513000D01*
X119038955Y-41537819D01*
X119009291Y-41565636D01*
X118990180Y-41583390D01*
X118903443Y-41663667D01*
X118865179Y-41663667D01*
X118841268Y-41662606D01*
X118825048Y-41657765D01*
X118810158Y-41646655D01*
X118802325Y-41639076D01*
X118781423Y-41610846D01*
X118772158Y-41580962D01*
X118775398Y-41552336D01*
X118776016Y-41550704D01*
X118782930Y-41539194D01*
X118797241Y-41519425D01*
X118817109Y-41493805D01*
X118840698Y-41464746D01*
X118850936Y-41452493D01*
X118874966Y-41423895D01*
X118895696Y-41399061D01*
X118911448Y-41380016D01*
X118920542Y-41368781D01*
X118922033Y-41366785D01*
X118917157Y-41362254D01*
X118900836Y-41353970D01*
X118875008Y-41342653D01*
X118841612Y-41329024D01*
X118802586Y-41313802D01*
X118759869Y-41297707D01*
X118715399Y-41281459D01*
X118671114Y-41265778D01*
X118628954Y-41251384D01*
X118590856Y-41238997D01*
X118558759Y-41229336D01*
X118536086Y-41223451D01*
X118527033Y-41219175D01*
X118516131Y-41209149D01*
X118502136Y-41191808D01*
X118483807Y-41165591D01*
X118459901Y-41128935D01*
X118455598Y-41122190D01*
X118433381Y-41087294D01*
X118412612Y-41054695D01*
X118395011Y-41027093D01*
X118382303Y-41007190D01*
X118377984Y-41000444D01*
X118328123Y-40922887D01*
X118284939Y-40856138D01*
X118247599Y-40799062D01*
X118215268Y-40750522D01*
X118187111Y-40709382D01*
X118162294Y-40674507D01*
X118139982Y-40644758D01*
X118119340Y-40619002D01*
X118099535Y-40596100D01*
X118079731Y-40574917D01*
X118059093Y-40554317D01*
X118036788Y-40533164D01*
X118030423Y-40527257D01*
X117969847Y-40476522D01*
X117902651Y-40429446D01*
X117832230Y-40387994D01*
X117761981Y-40354130D01*
X117695300Y-40329821D01*
X117683445Y-40326480D01*
X117648061Y-40319532D01*
X117603059Y-40314391D01*
X117552401Y-40311155D01*
X117500052Y-40309923D01*
X117449974Y-40310793D01*
X117406130Y-40313863D01*
X117374257Y-40318816D01*
X117278000Y-40346711D01*
X117187542Y-40385590D01*
X117101728Y-40436169D01*
X117019403Y-40499162D01*
X116939412Y-40575284D01*
X116912141Y-40604728D01*
X116887423Y-40634467D01*
X116856335Y-40675637D01*
X116819461Y-40727391D01*
X116777383Y-40788880D01*
X116730683Y-40859256D01*
X116679945Y-40937671D01*
X116637876Y-41003972D01*
X116611511Y-41045733D01*
X116583255Y-41090281D01*
X116555803Y-41133382D01*
X116531848Y-41170802D01*
X116522337Y-41185574D01*
X116503148Y-41215426D01*
X116486310Y-41241866D01*
X116473554Y-41262159D01*
X116466612Y-41273569D01*
X116466361Y-41274013D01*
X116454732Y-41293834D01*
X116439281Y-41318718D01*
X116421722Y-41346084D01*
X116403766Y-41373352D01*
X116387126Y-41397943D01*
X116373513Y-41417276D01*
X116364639Y-41428772D01*
X116362302Y-41430833D01*
X116360427Y-41424191D01*
X116358844Y-41405920D01*
X116357680Y-41378499D01*
X116357064Y-41344409D01*
X116357000Y-41328528D01*
X116356612Y-41292357D01*
X116355543Y-41261802D01*
X116353939Y-41239344D01*
X116351946Y-41227462D01*
X116351017Y-41226222D01*
X116340649Y-41228515D01*
X116319388Y-41234858D01*
X116289589Y-41244448D01*
X116253610Y-41256484D01*
X116213807Y-41270161D01*
X116172536Y-41284679D01*
X116132155Y-41299234D01*
X116095020Y-41313023D01*
X116085361Y-41316700D01*
X116035592Y-41335919D01*
X115997558Y-41351002D01*
X115969734Y-41362640D01*
X115950595Y-41371522D01*
X115938617Y-41378336D01*
X115932273Y-41383773D01*
X115930532Y-41386673D01*
X115929758Y-41396619D01*
X115930030Y-41417773D01*
X115931252Y-41447279D01*
X115933330Y-41482280D01*
X115934005Y-41492018D01*
X115937927Y-41549286D01*
X115940528Y-41594343D01*
X115941788Y-41629030D01*
X115941683Y-41655189D01*
X115940188Y-41674660D01*
X115937282Y-41689284D01*
X115932942Y-41700901D01*
X115931335Y-41704117D01*
X115910620Y-41729568D01*
X115881438Y-41743927D01*
X115844386Y-41746915D01*
X115840148Y-41746566D01*
X115821055Y-41743907D01*
X115805442Y-41738983D01*
X115792595Y-41730300D01*
X115781801Y-41716361D01*
X115772349Y-41695671D01*
X115763525Y-41666737D01*
X115754616Y-41628063D01*
X115744910Y-41578154D01*
X115735865Y-41527847D01*
X115731214Y-41504123D01*
X115726986Y-41487062D01*
X115724070Y-41480232D01*
X115723997Y-41480222D01*
X115713804Y-41483732D01*
X115693471Y-41493548D01*
X115664887Y-41508601D01*
X115629941Y-41527821D01*
X115590524Y-41550140D01*
X115548524Y-41574486D01*
X115505832Y-41599792D01*
X115464336Y-41624987D01*
X115426909Y-41648377D01*
X115354068Y-41694699D01*
X115358720Y-41719752D01*
X115361941Y-41734986D01*
X115367857Y-41760999D01*
X115375786Y-41794869D01*
X115385048Y-41833676D01*
X115391564Y-41860593D01*
X115403975Y-41914381D01*
X115411760Y-41956627D01*
X115414699Y-41989194D01*
X115412573Y-42013944D01*
X115405165Y-42032740D01*
X115392256Y-42047445D01*
X115373627Y-42059922D01*
X115367826Y-42063028D01*
X115334598Y-42073230D01*
X115302461Y-42070385D01*
X115273748Y-42055503D01*
X115250794Y-42029592D01*
X115240278Y-42007889D01*
X115233041Y-41988176D01*
X115222608Y-41959725D01*
X115210632Y-41927048D01*
X115203318Y-41907083D01*
X115192234Y-41877569D01*
X115182511Y-41853054D01*
X115175377Y-41836551D01*
X115172453Y-41831233D01*
X115165425Y-41833565D01*
X115149475Y-41843939D01*
X115126220Y-41861015D01*
X115097277Y-41883451D01*
X115064262Y-41909907D01*
X115028794Y-41939042D01*
X114992488Y-41969514D01*
X114956963Y-41999983D01*
X114923835Y-42029108D01*
X114894720Y-42055548D01*
X114871237Y-42077963D01*
X114856752Y-42093026D01*
X114841698Y-42109838D01*
X114862499Y-42156627D01*
X114874412Y-42183378D01*
X114885401Y-42207972D01*
X114892861Y-42224583D01*
X114917216Y-42279309D01*
X114935525Y-42322342D01*
X114948143Y-42354567D01*
X114955422Y-42376869D01*
X114957353Y-42385712D01*
X114955166Y-42415129D01*
X114941355Y-42441922D01*
X114918411Y-42463636D01*
X114888819Y-42477815D01*
X114859680Y-42482111D01*
X114843079Y-42480225D01*
X114827586Y-42473582D01*
X114811825Y-42460707D01*
X114794415Y-42440125D01*
X114773980Y-42410359D01*
X114749141Y-42369933D01*
X114739254Y-42353168D01*
X114686486Y-42263031D01*
X114638856Y-42314362D01*
X114620151Y-42335228D01*
X114596360Y-42362826D01*
X114569101Y-42395169D01*
X114539992Y-42430266D01*
X114510651Y-42466131D01*
X114482697Y-42500774D01*
X114457748Y-42532208D01*
X114437420Y-42558443D01*
X114423333Y-42577493D01*
X114417672Y-42586169D01*
X114416251Y-42592590D01*
X114418332Y-42602128D01*
X114424770Y-42616376D01*
X114436419Y-42636931D01*
X114454135Y-42665384D01*
X114478774Y-42703332D01*
X114488128Y-42717542D01*
X114518265Y-42763979D01*
X114540833Y-42800864D01*
X114556631Y-42830007D01*
X114566458Y-42853220D01*
X114571112Y-42872313D01*
X114571392Y-42889097D01*
X114569196Y-42901324D01*
X114557852Y-42922925D01*
X114537145Y-42943593D01*
X114511473Y-42959255D01*
X114503206Y-42962453D01*
X114484566Y-42966799D01*
X114467314Y-42965910D01*
X114449685Y-42958623D01*
X114429910Y-42943777D01*
X114406224Y-42920209D01*
X114376858Y-42886755D01*
X114363049Y-42870254D01*
X114338422Y-42841365D01*
X114316334Y-42816947D01*
X114298555Y-42798842D01*
X114286855Y-42788894D01*
X114283649Y-42787566D01*
X114276265Y-42794077D01*
X114263308Y-42811056D01*
X114245980Y-42836593D01*
X114225482Y-42868777D01*
X114203013Y-42905698D01*
X114179776Y-42945445D01*
X114156970Y-42986108D01*
X114145270Y-43007750D01*
X114128187Y-43039626D01*
X114110976Y-43071426D01*
X114096365Y-43098120D01*
X114091220Y-43107386D01*
X114080294Y-43128028D01*
X114072953Y-43144034D01*
X114071000Y-43150510D01*
X114075637Y-43157564D01*
X114088564Y-43173134D01*
X114108306Y-43195548D01*
X114133386Y-43223137D01*
X114162330Y-43254230D01*
X114166838Y-43259012D01*
X114197203Y-43291859D01*
X114224705Y-43322890D01*
X114247625Y-43350064D01*
X114264247Y-43371342D01*
X114272851Y-43384683D01*
X114273089Y-43385222D01*
X114280176Y-43417425D01*
X114273351Y-43447308D01*
X114252644Y-43474750D01*
X114252607Y-43474785D01*
X114223299Y-43498334D01*
X114196985Y-43509058D01*
X114171045Y-43507024D01*
X114142853Y-43492300D01*
X114124567Y-43478083D01*
X114080037Y-43440627D01*
X114044990Y-43411749D01*
X114018365Y-43390648D01*
X113999104Y-43376523D01*
X113986146Y-43368573D01*
X113978432Y-43365997D01*
X113976664Y-43366256D01*
X113970723Y-43374088D01*
X113961112Y-43393251D01*
X113948596Y-43421683D01*
X113933940Y-43457321D01*
X113917910Y-43498099D01*
X113901272Y-43541955D01*
X113884789Y-43586825D01*
X113869229Y-43630645D01*
X113855355Y-43671352D01*
X113843934Y-43706882D01*
X113835732Y-43735171D01*
X113831512Y-43754156D01*
X113831111Y-43758704D01*
X113836531Y-43764904D01*
X113851653Y-43778032D01*
X113874766Y-43796712D01*
X113904161Y-43819569D01*
X113938130Y-43845229D01*
X113945044Y-43850369D01*
X113980807Y-43877386D01*
X114013314Y-43902870D01*
X114040578Y-43925189D01*
X114060609Y-43942711D01*
X114071421Y-43953802D01*
X114071997Y-43954613D01*
X114083682Y-43983938D01*
X114082003Y-44014716D01*
X114067374Y-44045342D01*
X114041592Y-44073054D01*
X114022588Y-44085123D01*
X114001671Y-44089534D01*
X113976734Y-44085926D01*
X113945670Y-44073937D01*
X113906373Y-44053205D01*
X113898139Y-44048445D01*
X113859160Y-44025716D01*
X113830510Y-44009163D01*
X113810355Y-43997812D01*
X113796858Y-43990690D01*
X113788185Y-43986820D01*
X113782498Y-43985231D01*
X113778480Y-43984944D01*
X113770746Y-43991743D01*
X113763696Y-44011115D01*
X113761238Y-44021986D01*
X113753058Y-44064169D01*
X113744126Y-44112021D01*
X113735244Y-44161088D01*
X113727213Y-44206915D01*
X113720835Y-44245048D01*
X113719014Y-44256583D01*
X113713628Y-44291478D01*
X113707690Y-44329855D01*
X113703880Y-44354423D01*
X113700427Y-44378712D01*
X113698472Y-44396714D01*
X113698413Y-44404710D01*
X113698469Y-44404783D01*
X113705133Y-44408371D01*
X113722507Y-44417277D01*
X113748667Y-44430530D01*
X113781693Y-44447155D01*
X113819663Y-44466181D01*
X113828318Y-44470507D01*
X113879726Y-44496632D01*
X113919574Y-44518192D01*
X113949198Y-44536343D01*
X113969936Y-44552244D01*
X113983125Y-44567051D01*
X113990104Y-44581922D01*
X113992210Y-44598014D01*
X113991393Y-44611606D01*
X113981343Y-44648085D01*
X113960093Y-44676085D01*
X113935094Y-44692669D01*
X113923087Y-44698185D01*
X113912257Y-44700964D01*
X113899789Y-44700550D01*
X113882864Y-44696488D01*
X113858666Y-44688321D01*
X113824376Y-44675595D01*
X113820528Y-44674146D01*
X113775658Y-44657308D01*
X113742183Y-44644996D01*
X113718316Y-44636703D01*
X113702269Y-44631921D01*
X113692257Y-44630145D01*
X113686490Y-44630865D01*
X113683181Y-44633575D01*
X113682271Y-44634904D01*
X113680589Y-44644458D01*
X113679192Y-44665854D01*
X113678084Y-44696826D01*
X113677268Y-44735107D01*
X113676748Y-44778431D01*
X113676529Y-44824532D01*
X113676613Y-44871144D01*
X113677006Y-44916000D01*
X113677710Y-44956833D01*
X113678731Y-44991379D01*
X113680071Y-45017370D01*
X113681587Y-45031766D01*
X113682979Y-45040897D01*
X113684565Y-45047908D01*
X113688079Y-45053621D01*
X113695258Y-45058861D01*
X113707835Y-45064452D01*
X113727545Y-45071217D01*
X113756125Y-45079980D01*
X113795308Y-45091564D01*
X113827583Y-45101086D01*
X113881553Y-45117461D01*
X113922961Y-45131015D01*
X113952966Y-45142223D01*
X113972727Y-45151557D01*
X113983404Y-45159490D01*
X113986204Y-45165790D01*
X113982487Y-45174789D01*
X113972579Y-45192564D01*
X113958173Y-45216185D01*
X113947399Y-45232980D01*
X113931072Y-45258461D01*
X113918153Y-45279578D01*
X113910310Y-45293551D01*
X113908722Y-45297489D01*
X113905475Y-45303463D01*
X113894722Y-45306233D01*
X113874948Y-45305752D01*
X113844637Y-45301974D01*
X113802272Y-45294852D01*
X113798122Y-45294101D01*
X113764227Y-45288157D01*
X113735692Y-45283561D01*
X113715190Y-45280712D01*
X113705391Y-45280010D01*
X113704966Y-45280147D01*
X113704786Y-45287819D01*
X113706515Y-45306627D01*
X113709761Y-45333785D01*
X113714134Y-45366506D01*
X113719245Y-45402004D01*
X113724703Y-45437493D01*
X113730117Y-45470185D01*
X113735099Y-45497295D01*
X113735971Y-45501615D01*
X113739342Y-45517353D01*
X113741552Y-45529933D01*
X113741813Y-45541245D01*
X113739342Y-45553179D01*
X113733351Y-45567625D01*
X113723057Y-45586472D01*
X113707673Y-45611609D01*
X113686414Y-45644928D01*
X113658495Y-45688318D01*
X113658146Y-45688861D01*
X113636057Y-45723327D01*
X113608026Y-45767189D01*
X113575661Y-45817920D01*
X113540573Y-45872997D01*
X113504369Y-45929893D01*
X113468659Y-45986084D01*
X113453547Y-46009889D01*
X113420663Y-46061682D01*
X113388439Y-46112395D01*
X113358095Y-46160107D01*
X113330855Y-46202897D01*
X113307940Y-46238846D01*
X113290572Y-46266033D01*
X113282900Y-46278000D01*
X113216684Y-46381178D01*
X113157772Y-46473478D01*
X113105680Y-46555793D01*
X113059926Y-46629013D01*
X113020026Y-46694030D01*
X112985498Y-46751736D01*
X112955858Y-46803022D01*
X112930626Y-46848780D01*
X112909316Y-46889901D01*
X112891448Y-46927277D01*
X112876537Y-46961799D01*
X112864102Y-46994359D01*
X112853659Y-47025848D01*
X112844725Y-47057158D01*
X112836819Y-47089180D01*
X112832054Y-47110555D01*
X112824840Y-47156019D01*
X112820558Y-47208955D01*
X112819217Y-47264956D01*
X112819217Y-47264956D01*
X112819217Y-47264956D01*
G37*
X112819217Y-47264956D02*
X112820827Y-47319615D01*
X112825398Y-47368527D01*
X112831412Y-47401456D01*
X112858590Y-47484012D01*
X112897635Y-47559183D01*
X112948261Y-47626753D01*
X113010184Y-47686509D01*
X113083118Y-47738235D01*
X113166777Y-47781717D01*
X113260875Y-47816742D01*
X113263466Y-47817396D01*
X113263466Y-47176792D01*
X113265926Y-47151491D01*
X113270268Y-47126656D01*
X113276733Y-47098109D01*
X113285561Y-47069582D01*
X113297613Y-47039378D01*
X113313752Y-47005795D01*
X113334842Y-46967135D01*
X113361746Y-46921698D01*
X113395326Y-46867783D01*
X113426193Y-46819551D01*
X113454076Y-46776327D01*
X113480694Y-46735052D01*
X113504685Y-46697841D01*
X113524686Y-46666804D01*
X113539337Y-46644056D01*
X113545608Y-46634305D01*
X113555324Y-46619191D01*
X113571458Y-46594112D01*
X113592786Y-46560966D01*
X113618086Y-46521654D01*
X113646137Y-46478074D01*
X113675715Y-46432127D01*
X113679552Y-46426167D01*
X113709681Y-46379358D01*
X113738836Y-46334046D01*
X113765707Y-46292268D01*
X113788981Y-46256065D01*
X113807348Y-46227475D01*
X113819496Y-46208537D01*
X113820196Y-46207444D01*
X113840931Y-46175083D01*
X113868230Y-46132522D01*
X113901022Y-46081428D01*
X113938236Y-46023468D01*
X113978801Y-45960309D01*
X114021646Y-45893619D01*
X114065699Y-45825064D01*
X114109890Y-45756311D01*
X114153148Y-45689028D01*
X114194400Y-45624882D01*
X114232577Y-45565539D01*
X114261500Y-45520600D01*
X114295999Y-45467000D01*
X114330504Y-45413367D01*
X114363668Y-45361801D01*
X114394141Y-45314399D01*
X114420573Y-45273262D01*
X114441615Y-45240487D01*
X114452000Y-45224292D01*
X114477395Y-45184744D01*
X114505872Y-45140535D01*
X114533701Y-45097450D01*
X114554306Y-45065653D01*
X114577837Y-45029368D01*
X114603127Y-44990291D01*
X114626783Y-44953667D01*
X114642025Y-44930010D01*
X114662041Y-44898970D01*
X114682632Y-44867169D01*
X114700388Y-44839870D01*
X114705954Y-44831357D01*
X114719883Y-44809638D01*
X114730904Y-44791608D01*
X114736224Y-44781968D01*
X114741276Y-44773344D01*
X114752942Y-44754703D01*
X114770087Y-44727820D01*
X114791572Y-44694468D01*
X114816264Y-44656423D01*
X114833162Y-44630528D01*
X114861858Y-44586587D01*
X114890471Y-44542675D01*
X114917266Y-44501464D01*
X114940505Y-44465626D01*
X114958453Y-44437832D01*
X114963840Y-44429444D01*
X114997407Y-44377070D01*
X115037745Y-44314197D01*
X115083980Y-44242184D01*
X115135237Y-44162392D01*
X115190641Y-44076183D01*
X115249319Y-43984916D01*
X115310395Y-43889953D01*
X115372995Y-43792654D01*
X115436245Y-43694379D01*
X115439958Y-43688611D01*
X115477106Y-43630892D01*
X115519871Y-43564425D01*
X115566241Y-43492338D01*
X115614206Y-43417755D01*
X115661757Y-43343802D01*
X115706883Y-43273605D01*
X115739442Y-43222944D01*
X115781960Y-43156783D01*
X115827430Y-43086031D01*
X115874765Y-43012383D01*
X115922873Y-42937534D01*
X115970667Y-42863180D01*
X116017054Y-42791015D01*
X116060948Y-42722735D01*
X116101256Y-42660035D01*
X116136891Y-42604609D01*
X116166761Y-42558154D01*
X116183903Y-42531500D01*
X116195265Y-42513840D01*
X116213013Y-42486262D01*
X116235897Y-42450709D01*
X116262664Y-42409126D01*
X116292062Y-42363460D01*
X116322838Y-42315654D01*
X116331504Y-42302194D01*
X116380447Y-42226165D01*
X116431795Y-42146382D01*
X116484847Y-42063933D01*
X116538907Y-41979906D01*
X116593273Y-41895388D01*
X116647247Y-41811466D01*
X116700130Y-41729228D01*
X116751223Y-41649761D01*
X116799826Y-41574153D01*
X116845241Y-41503490D01*
X116886769Y-41438861D01*
X116923710Y-41381353D01*
X116955364Y-41332053D01*
X116981034Y-41292048D01*
X117000020Y-41262427D01*
X117005129Y-41254444D01*
X117023478Y-41225755D01*
X117040800Y-41198671D01*
X117054484Y-41177275D01*
X117059278Y-41169778D01*
X117107168Y-41095337D01*
X117148239Y-41032484D01*
X117182867Y-40980667D01*
X117211429Y-40939338D01*
X117234302Y-40907943D01*
X117251864Y-40885934D01*
X117258960Y-40878080D01*
X117314730Y-40828678D01*
X117373991Y-40792482D01*
X117436206Y-40769743D01*
X117500839Y-40760712D01*
X117510696Y-40760555D01*
X117543986Y-40761602D01*
X117572101Y-40765577D01*
X117599885Y-40773737D01*
X117632185Y-40787337D01*
X117653607Y-40797579D01*
X117675497Y-40809099D01*
X117696037Y-40821961D01*
X117716063Y-40837199D01*
X117736409Y-40855850D01*
X117757909Y-40878948D01*
X117781397Y-40907527D01*
X117807709Y-40942624D01*
X117837677Y-40985272D01*
X117872138Y-41036507D01*
X117911924Y-41097364D01*
X117957871Y-41168879D01*
X117976571Y-41198201D01*
X118001168Y-41236733D01*
X118031220Y-41283659D01*
X118064514Y-41335530D01*
X118098833Y-41388898D01*
X118131963Y-41440311D01*
X118145221Y-41460849D01*
X118172272Y-41502764D01*
X118205339Y-41554058D01*
X118242814Y-41612234D01*
X118283092Y-41674795D01*
X118324563Y-41739247D01*
X118365622Y-41803091D01*
X118403111Y-41861420D01*
X118437141Y-41914382D01*
X118470315Y-41966008D01*
X118503330Y-42017380D01*
X118536882Y-42069580D01*
X118571665Y-42123690D01*
X118608377Y-42180793D01*
X118647713Y-42241970D01*
X118690368Y-42308304D01*
X118737039Y-42380876D01*
X118788421Y-42460769D01*
X118845209Y-42549065D01*
X118908101Y-42646845D01*
X118977790Y-42755193D01*
X118992746Y-42778444D01*
X119034600Y-42843514D01*
X119081775Y-42916859D01*
X119131961Y-42994884D01*
X119182845Y-43073996D01*
X119232117Y-43150601D01*
X119277464Y-43221105D01*
X119299068Y-43254694D01*
X119338641Y-43316216D01*
X119380952Y-43381988D01*
X119424204Y-43449215D01*
X119466599Y-43515105D01*
X119506341Y-43576864D01*
X119541632Y-43631698D01*
X119564642Y-43667444D01*
X119594762Y-43714250D01*
X119623897Y-43759560D01*
X119650738Y-43801336D01*
X119673975Y-43837539D01*
X119692300Y-43866129D01*
X119704402Y-43885069D01*
X119705101Y-43886167D01*
X119715907Y-43903072D01*
X119733231Y-43930073D01*
X119755938Y-43965405D01*
X119782894Y-44007306D01*
X119812966Y-44054015D01*
X119845019Y-44103767D01*
X119868484Y-44140167D01*
X119917764Y-44216625D01*
X119972787Y-44302050D01*
X120031679Y-44393527D01*
X120092567Y-44488144D01*
X120153574Y-44582987D01*
X120212829Y-44675145D01*
X120268455Y-44761705D01*
X120297495Y-44806917D01*
X120310649Y-44827361D01*
X120330136Y-44857596D01*
X120354625Y-44895562D01*
X120382789Y-44939198D01*
X120413299Y-44986447D01*
X120444824Y-45035247D01*
X120453219Y-45048238D01*
X120483642Y-45095354D01*
X120512364Y-45139911D01*
X120538277Y-45180181D01*
X120560271Y-45214439D01*
X120577236Y-45240958D01*
X120588063Y-45258011D01*
X120590333Y-45261643D01*
X120601903Y-45280118D01*
X120618437Y-45306221D01*
X120637251Y-45335723D01*
X120647640Y-45351932D01*
X120696475Y-45427945D01*
X120750926Y-45512663D01*
X120808966Y-45602932D01*
X120868566Y-45695598D01*
X120927696Y-45787506D01*
X120984328Y-45875502D01*
X121036433Y-45956431D01*
X121036781Y-45956972D01*
X121067973Y-46005412D01*
X121097355Y-46051050D01*
X121123889Y-46092273D01*
X121146534Y-46127464D01*
X121164253Y-46155010D01*
X121176005Y-46173295D01*
X121179806Y-46179222D01*
X121188238Y-46192348D01*
X121204157Y-46217072D01*
X121227398Y-46253136D01*
X121257793Y-46300282D01*
X121295177Y-46358253D01*
X121339384Y-46426792D01*
X121390248Y-46505639D01*
X121447602Y-46594539D01*
X121468706Y-46627250D01*
X121520776Y-46708119D01*
X121567079Y-46780378D01*
X121607295Y-46843515D01*
X121641100Y-46897020D01*
X121668172Y-46940383D01*
X121688189Y-46973092D01*
X121700828Y-46994637D01*
X121702499Y-46997667D01*
X121729476Y-47056178D01*
X121745189Y-47112971D01*
X121750899Y-47172822D01*
X121750972Y-47181111D01*
X121750271Y-47213643D01*
X121747434Y-47237607D01*
X121741362Y-47258508D01*
X121730955Y-47281849D01*
X121730779Y-47282208D01*
X121716121Y-47308277D01*
X121699370Y-47332622D01*
X121688191Y-47345708D01*
X121660179Y-47368220D01*
X121623194Y-47390328D01*
X121582200Y-47409439D01*
X121542165Y-47422961D01*
X121538360Y-47423918D01*
X121528114Y-47424696D01*
X121504245Y-47425449D01*
X121467241Y-47426176D01*
X121417591Y-47426877D01*
X121355782Y-47427551D01*
X121282303Y-47428199D01*
X121197642Y-47428821D01*
X121102286Y-47429416D01*
X120996725Y-47429985D01*
X120881446Y-47430528D01*
X120756937Y-47431044D01*
X120623687Y-47431533D01*
X120482183Y-47431996D01*
X120332914Y-47432433D01*
X120176368Y-47432842D01*
X120013034Y-47433225D01*
X119843398Y-47433581D01*
X119667950Y-47433911D01*
X119487177Y-47434213D01*
X119301568Y-47434489D01*
X119111611Y-47434737D01*
X118917794Y-47434959D01*
X118720605Y-47435153D01*
X118520532Y-47435320D01*
X118318064Y-47435461D01*
X118113688Y-47435574D01*
X117907893Y-47435659D01*
X117701166Y-47435718D01*
X117493997Y-47435749D01*
X117286873Y-47435753D01*
X117080282Y-47435729D01*
X116874712Y-47435678D01*
X116670653Y-47435599D01*
X116468590Y-47435493D01*
X116269014Y-47435359D01*
X116072412Y-47435197D01*
X115879271Y-47435008D01*
X115690081Y-47434791D01*
X115505330Y-47434546D01*
X115325505Y-47434273D01*
X115151095Y-47433972D01*
X114982587Y-47433644D01*
X114820471Y-47433287D01*
X114665234Y-47432902D01*
X114517364Y-47432489D01*
X114377350Y-47432048D01*
X114245679Y-47431579D01*
X114122840Y-47431082D01*
X114009321Y-47430556D01*
X113905610Y-47430002D01*
X113812195Y-47429420D01*
X113729564Y-47428809D01*
X113658206Y-47428170D01*
X113598609Y-47427502D01*
X113551260Y-47426806D01*
X113516648Y-47426081D01*
X113495261Y-47425327D01*
X113487971Y-47424696D01*
X113422493Y-47404428D01*
X113368953Y-47377080D01*
X113326811Y-47342162D01*
X113295526Y-47299185D01*
X113274558Y-47247660D01*
X113269341Y-47226490D01*
X113264623Y-47199674D01*
X113263466Y-47176792D01*
X113263466Y-47817396D01*
X113365128Y-47843093D01*
X113435464Y-47855085D01*
X113447620Y-47856561D01*
X113462678Y-47857895D01*
X113481339Y-47859094D01*
X113504301Y-47860165D01*
X113532264Y-47861115D01*
X113565927Y-47861950D01*
X113605990Y-47862678D01*
X113653151Y-47863304D01*
X113708110Y-47863836D01*
X113771566Y-47864280D01*
X113844218Y-47864643D01*
X113926766Y-47864932D01*
X114019909Y-47865154D01*
X114124345Y-47865315D01*
X114240774Y-47865421D01*
X114369897Y-47865481D01*
X114512410Y-47865500D01*
X114516728Y-47865500D01*
X114634772Y-47865538D01*
X114748890Y-47865648D01*
X114858291Y-47865827D01*
X114962185Y-47866071D01*
X115059781Y-47866374D01*
X115150290Y-47866732D01*
X115232921Y-47867142D01*
X115306883Y-47867598D01*
X115371386Y-47868098D01*
X115425639Y-47868635D01*
X115468853Y-47869206D01*
X115500237Y-47869807D01*
X115519000Y-47870433D01*
X115524445Y-47871005D01*
X115519325Y-47877419D01*
X115505404Y-47890747D01*
X115484837Y-47909011D01*
X115461007Y-47929214D01*
X115436119Y-47950261D01*
X115415806Y-47968147D01*
X115402220Y-47980927D01*
X115397507Y-47986577D01*
X115403391Y-47993010D01*
X115419889Y-48004965D01*
X115445134Y-48021381D01*
X115477258Y-48041194D01*
X115514396Y-48063342D01*
X115554680Y-48086763D01*
X115596243Y-48110392D01*
X115637219Y-48133169D01*
X115675741Y-48154030D01*
X115709942Y-48171912D01*
X115737956Y-48185752D01*
X115757916Y-48194489D01*
X115767329Y-48197111D01*
X115775547Y-48192438D01*
X115792095Y-48179434D01*
X115815201Y-48159619D01*
X115843092Y-48134516D01*
X115873997Y-48105645D01*
X115875186Y-48104514D01*
X115919307Y-48063525D01*
X115955439Y-48032388D01*
X115984820Y-48010278D01*
X116008691Y-47996373D01*
X116028288Y-47989848D01*
X116044853Y-47989879D01*
X116046912Y-47990338D01*
X116079217Y-48005476D01*
X116105579Y-48032625D01*
X116116844Y-48051920D01*
X116125568Y-48071123D01*
X116128196Y-48083771D01*
X116124985Y-48095911D01*
X116119214Y-48107707D01*
X116110109Y-48122110D01*
X116093927Y-48144510D01*
X116072734Y-48172160D01*
X116048600Y-48202314D01*
X116041264Y-48211233D01*
X116018105Y-48239529D01*
X115998563Y-48264016D01*
X115984239Y-48282639D01*
X115976734Y-48293344D01*
X115976000Y-48294962D01*
X115982367Y-48299587D01*
X116000127Y-48307905D01*
X116027272Y-48319196D01*
X116061792Y-48332737D01*
X116101678Y-48347808D01*
X116144922Y-48363688D01*
X116189513Y-48379654D01*
X116233444Y-48394987D01*
X116274704Y-48408964D01*
X116311285Y-48420865D01*
X116341178Y-48429968D01*
X116362373Y-48435551D01*
X116371659Y-48437000D01*
X116381365Y-48431104D01*
X116398418Y-48413388D01*
X116422857Y-48383807D01*
X116454720Y-48342317D01*
X116467910Y-48324598D01*
X116503608Y-48277421D01*
X116533074Y-48241160D01*
X116557454Y-48214706D01*
X116577894Y-48196946D01*
X116595540Y-48186770D01*
X116611540Y-48183066D01*
X116614006Y-48183000D01*
X116631302Y-48187151D01*
X116653792Y-48197641D01*
X116676045Y-48211529D01*
X116692139Y-48225323D01*
X116702655Y-48244234D01*
X116705937Y-48271577D01*
X116705928Y-48273699D01*
X116704754Y-48288898D01*
X116700790Y-48304744D01*
X116692905Y-48323861D01*
X116679967Y-48348874D01*
X116660849Y-48382407D01*
X116654295Y-48393576D01*
X116632014Y-48431452D01*
X116616169Y-48458909D01*
X116606080Y-48477711D01*
X116601066Y-48489624D01*
X116600446Y-48496412D01*
X116603539Y-48499840D01*
X116609663Y-48501673D01*
X116612355Y-48502255D01*
X116669658Y-48514338D01*
X116728032Y-48525863D01*
X116785713Y-48536552D01*
X116840937Y-48546128D01*
X116891939Y-48554312D01*
X116936953Y-48560827D01*
X116974216Y-48565395D01*
X117001963Y-48567739D01*
X117018430Y-48567581D01*
X117021617Y-48566666D01*
X117026416Y-48559527D01*
X117036342Y-48541803D01*
X117050288Y-48515570D01*
X117067151Y-48482904D01*
X117084287Y-48448959D01*
X117109243Y-48399624D01*
X117129394Y-48361486D01*
X117145830Y-48332922D01*
X117159643Y-48312308D01*
X117171921Y-48298021D01*
X117183756Y-48288437D01*
X117196238Y-48281933D01*
X117196547Y-48281804D01*
X117224057Y-48277405D01*
X117253854Y-48283568D01*
X117281890Y-48298245D01*
X117304117Y-48319390D01*
X117315761Y-48342091D01*
X117317788Y-48354239D01*
X117317057Y-48369078D01*
X117313035Y-48388636D01*
X117305191Y-48414941D01*
X117292990Y-48450022D01*
X117275902Y-48495906D01*
X117274157Y-48500500D01*
X117264169Y-48525704D01*
X117256377Y-48545630D01*
X117252036Y-48560905D01*
X117252404Y-48572157D01*
X117258735Y-48580013D01*
X117272287Y-48585102D01*
X117294316Y-48588050D01*
X117326078Y-48589486D01*
X117368829Y-48590038D01*
X117423826Y-48590333D01*
X117454412Y-48590562D01*
X117517540Y-48590989D01*
X117567830Y-48590967D01*
X117606551Y-48590453D01*
X117634972Y-48589407D01*
X117654359Y-48587787D01*
X117665982Y-48585552D01*
X117670293Y-48583507D01*
X117677493Y-48572715D01*
X117686486Y-48552330D01*
X117695521Y-48526415D01*
X117696960Y-48521667D01*
X117705359Y-48493723D01*
X117713007Y-48469009D01*
X117718397Y-48452379D01*
X117718837Y-48451111D01*
X117723775Y-48435801D01*
X117731043Y-48411780D01*
X117739168Y-48383926D01*
X117740132Y-48380555D01*
X117749237Y-48351599D01*
X117759037Y-48325071D01*
X117767519Y-48306384D01*
X117768066Y-48305415D01*
X117774525Y-48291999D01*
X117777562Y-48277595D01*
X117777544Y-48257929D01*
X117774838Y-48228727D01*
X117774736Y-48227804D01*
X117765643Y-48145593D01*
X117757803Y-48073292D01*
X117751288Y-48011607D01*
X117746170Y-47961246D01*
X117742522Y-47922917D01*
X117740416Y-47897327D01*
X117739889Y-47886516D01*
X117740458Y-47874869D01*
X117744386Y-47868591D01*
X117755004Y-47866022D01*
X117775644Y-47865503D01*
X117782088Y-47865500D01*
X117802491Y-47865652D01*
X117815923Y-47867767D01*
X117824146Y-47874329D01*
X117828925Y-47887822D01*
X117832023Y-47910733D01*
X117834663Y-47939583D01*
X117837255Y-47966523D01*
X117840828Y-48001270D01*
X117844737Y-48037611D01*
X117845997Y-48048944D01*
X117852945Y-48111157D01*
X117858359Y-48160333D01*
X117862342Y-48197451D01*
X117864998Y-48223490D01*
X117866431Y-48239429D01*
X117866764Y-48245252D01*
X117871758Y-48254843D01*
X117884467Y-48269557D01*
X117895899Y-48280530D01*
X117913479Y-48298112D01*
X117926772Y-48314763D01*
X117931003Y-48322350D01*
X117932454Y-48337528D01*
X117930382Y-48366102D01*
X117924814Y-48407810D01*
X117918368Y-48447498D01*
X117912274Y-48485161D01*
X117907665Y-48517873D01*
X117904838Y-48543144D01*
X117904089Y-48558485D01*
X117904736Y-48561865D01*
X117913733Y-48563017D01*
X117934431Y-48561820D01*
X117964671Y-48558578D01*
X118002295Y-48553595D01*
X118045143Y-48547173D01*
X118091058Y-48539616D01*
X118137880Y-48531228D01*
X118177333Y-48523559D01*
X118213103Y-48516413D01*
X118245829Y-48510052D01*
X118271954Y-48505154D01*
X118287923Y-48502400D01*
X118288211Y-48502357D01*
X118306460Y-48497279D01*
X118318587Y-48489745D01*
X118318618Y-48489708D01*
X118321921Y-48479910D01*
X118326254Y-48458561D01*
X118331206Y-48428145D01*
X118336365Y-48391150D01*
X118340403Y-48358159D01*
X118346681Y-48305099D01*
X118352094Y-48264107D01*
X118357135Y-48233203D01*
X118362294Y-48210411D01*
X118368064Y-48193751D01*
X118374937Y-48181245D01*
X118383403Y-48170916D01*
X118388100Y-48166223D01*
X118416352Y-48148022D01*
X118448200Y-48142194D01*
X118480892Y-48148513D01*
X118511674Y-48166751D01*
X118522851Y-48177350D01*
X118528158Y-48184044D01*
X118531969Y-48192467D01*
X118534528Y-48204889D01*
X118536081Y-48223584D01*
X118536872Y-48250822D01*
X118537147Y-48288875D01*
X118537167Y-48310154D01*
X118537380Y-48349421D01*
X118537971Y-48383567D01*
X118538865Y-48410178D01*
X118539987Y-48426840D01*
X118540899Y-48431325D01*
X118548330Y-48430242D01*
X118566854Y-48425176D01*
X118594258Y-48416842D01*
X118628329Y-48405956D01*
X118666853Y-48393232D01*
X118707618Y-48379387D01*
X118748410Y-48365136D01*
X118773528Y-48356126D01*
X118803726Y-48344771D01*
X118837485Y-48331446D01*
X118871992Y-48317338D01*
X118904437Y-48303634D01*
X118932005Y-48291521D01*
X118951887Y-48282184D01*
X118961080Y-48276978D01*
X118967296Y-48268759D01*
X118969316Y-48255640D01*
X118967589Y-48233645D01*
X118966731Y-48227075D01*
X118964676Y-48205725D01*
X118962677Y-48173855D01*
X118960912Y-48135058D01*
X118959557Y-48092923D01*
X118959096Y-48072058D01*
X118956972Y-47957588D01*
X118980039Y-47934474D01*
X118994790Y-47921194D01*
X119008620Y-47914266D01*
X119027165Y-47911674D01*
X119044734Y-47911361D01*
X119070779Y-47912479D01*
X119088050Y-47916836D01*
X119101776Y-47925932D01*
X119104689Y-47928577D01*
X119119419Y-47947821D01*
X119129545Y-47970379D01*
X119129690Y-47970911D01*
X119134211Y-47990128D01*
X119139953Y-48017635D01*
X119146283Y-48050003D01*
X119152571Y-48083803D01*
X119158186Y-48115608D01*
X119162497Y-48141989D01*
X119164874Y-48159517D01*
X119165144Y-48163597D01*
X119169350Y-48174050D01*
X119174131Y-48175944D01*
X119184190Y-48172507D01*
X119204062Y-48162911D01*
X119231914Y-48148232D01*
X119265913Y-48129544D01*
X119304225Y-48107921D01*
X119345017Y-48084437D01*
X119386456Y-48060169D01*
X119426707Y-48036189D01*
X119463938Y-48013572D01*
X119496316Y-47993394D01*
X119522006Y-47976728D01*
X119539176Y-47964649D01*
X119545992Y-47958232D01*
X119546035Y-47957975D01*
X119544100Y-47949297D01*
X119539236Y-47931805D01*
X119535452Y-47919059D01*
X119529375Y-47897273D01*
X119525581Y-47880293D01*
X119524945Y-47874962D01*
X119526843Y-47873616D01*
X119532959Y-47872399D01*
X119543921Y-47871304D01*
X119560360Y-47870327D01*
X119582905Y-47869460D01*
X119612185Y-47868697D01*
X119648831Y-47868034D01*
X119693473Y-47867463D01*
X119746740Y-47866978D01*
X119809261Y-47866575D01*
X119881667Y-47866245D01*
X119964587Y-47865985D01*
X120058651Y-47865787D01*
X120164488Y-47865646D01*
X120282729Y-47865555D01*
X120414003Y-47865509D01*
X120515740Y-47865500D01*
X120656712Y-47865491D01*
X120784334Y-47865452D01*
X120899367Y-47865368D01*
X121002570Y-47865221D01*
X121094706Y-47864995D01*
X121176534Y-47864673D01*
X121248816Y-47864239D01*
X121312311Y-47863676D01*
X121367782Y-47862968D01*
X121415988Y-47862098D01*
X121457690Y-47861049D01*
X121493649Y-47859804D01*
X121524626Y-47858348D01*
X121551382Y-47856664D01*
X121574677Y-47854735D01*
X121595272Y-47852544D01*
X121613928Y-47850075D01*
X121631405Y-47847311D01*
X121648465Y-47844236D01*
X121665868Y-47840833D01*
X121668159Y-47840373D01*
X121760430Y-47816585D01*
X121847085Y-47783884D01*
X121926468Y-47743203D01*
X121996924Y-47695475D01*
X122056796Y-47641635D01*
X122090430Y-47602259D01*
X122137335Y-47529028D01*
X122171353Y-47450260D01*
X122192468Y-47366208D01*
X122200660Y-47277130D01*
X122195910Y-47183280D01*
X122178201Y-47084914D01*
X122147512Y-46982287D01*
X122137614Y-46955482D01*
X122126618Y-46927643D01*
X122115172Y-46900776D01*
X122102537Y-46873588D01*
X122087971Y-46844787D01*
X122070732Y-46813078D01*
X122050080Y-46777170D01*
X122025272Y-46735768D01*
X121995569Y-46687582D01*
X121960228Y-46631316D01*
X121918508Y-46565679D01*
X121876643Y-46500250D01*
X121858654Y-46472121D01*
X121834861Y-46434804D01*
X121807004Y-46391037D01*
X121776824Y-46343556D01*
X121746064Y-46295098D01*
X121726275Y-46263889D01*
X121694238Y-46213382D01*
X121659930Y-46159378D01*
X121625533Y-46105302D01*
X121593226Y-46054581D01*
X121565189Y-46010643D01*
X121553430Y-45992250D01*
X121528354Y-45953008D01*
X121497907Y-45905270D01*
X121464269Y-45852461D01*
X121429621Y-45798004D01*
X121396143Y-45745325D01*
X121380454Y-45720611D01*
X121350273Y-45673091D01*
X121319558Y-45624811D01*
X121290043Y-45578487D01*
X121263459Y-45536839D01*
X121241541Y-45502584D01*
X121230392Y-45485221D01*
X121181064Y-45408581D01*
X121186564Y-45354693D01*
X121190725Y-45315760D01*
X121192899Y-45288008D01*
X121191553Y-45268513D01*
X121185156Y-45254352D01*
X121172175Y-45242601D01*
X121151078Y-45230337D01*
X121120334Y-45214637D01*
X121110532Y-45209611D01*
X121027481Y-45166750D01*
X120974779Y-45084251D01*
X120955889Y-45053626D01*
X120940545Y-45026714D01*
X120930043Y-45005948D01*
X120925680Y-44993766D01*
X120925760Y-44992156D01*
X120936169Y-44979888D01*
X120954712Y-44968227D01*
X120975635Y-44960293D01*
X120987642Y-44958611D01*
X121001069Y-44960942D01*
X121024356Y-44967280D01*
X121054163Y-44976640D01*
X121085331Y-44987383D01*
X121131392Y-45003805D01*
X121165741Y-45015710D01*
X121189860Y-45023581D01*
X121205232Y-45027905D01*
X121213121Y-45029167D01*
X121214486Y-45022399D01*
X121215691Y-45003245D01*
X121216695Y-44973430D01*
X121217458Y-44934678D01*
X121217940Y-44888715D01*
X121218100Y-44837264D01*
X121218071Y-44817540D01*
X121217847Y-44756925D01*
X121217480Y-44708911D01*
X121216883Y-44671991D01*
X121215970Y-44644654D01*
X121214653Y-44625392D01*
X121212846Y-44612695D01*
X121210462Y-44605054D01*
X121207414Y-44600961D01*
X121205542Y-44599735D01*
X121195154Y-44595797D01*
X121173631Y-44588645D01*
X121143379Y-44579045D01*
X121106803Y-44567759D01*
X121070111Y-44556689D01*
X121029211Y-44544178D01*
X120991852Y-44532196D01*
X120960621Y-44521616D01*
X120938105Y-44513311D01*
X120927600Y-44508603D01*
X120919431Y-44504523D01*
X120909840Y-44502006D01*
X120896473Y-44501073D01*
X120876979Y-44501744D01*
X120849006Y-44504040D01*
X120810200Y-44507980D01*
X120793544Y-44509760D01*
X120752383Y-44514233D01*
X120713998Y-44518485D01*
X120681538Y-44522163D01*
X120658155Y-44524910D01*
X120650063Y-44525928D01*
X120634108Y-44527445D01*
X120623384Y-44525022D01*
X120614004Y-44516147D01*
X120602078Y-44498307D01*
X120598555Y-44492654D01*
X120586907Y-44471838D01*
X120579841Y-44455066D01*
X120578777Y-44447076D01*
X120587423Y-44442152D01*
X120608026Y-44437834D01*
X120638433Y-44434562D01*
X120640868Y-44434384D01*
X120674006Y-44431700D01*
X120711959Y-44428098D01*
X120752101Y-44423890D01*
X120791803Y-44419388D01*
X120828439Y-44414903D01*
X120859380Y-44410746D01*
X120881999Y-44407230D01*
X120893669Y-44404665D01*
X120894403Y-44404329D01*
X120900314Y-44394533D01*
X120900778Y-44390581D01*
X120906734Y-44378531D01*
X120921622Y-44365069D01*
X120940976Y-44353204D01*
X120960327Y-44345947D01*
X120968472Y-44344984D01*
X120982788Y-44346233D01*
X121007797Y-44349515D01*
X121040305Y-44354370D01*
X121077117Y-44360338D01*
X121087750Y-44362144D01*
X121123460Y-44367898D01*
X121154095Y-44372127D01*
X121177036Y-44374523D01*
X121189664Y-44374778D01*
X121191183Y-44374285D01*
X121191840Y-44365765D01*
X121190240Y-44345652D01*
X121186728Y-44316223D01*
X121181645Y-44279754D01*
X121175336Y-44238522D01*
X121168145Y-44194804D01*
X121160414Y-44150877D01*
X121152488Y-44109016D01*
X121147337Y-44083722D01*
X121140478Y-44050530D01*
X121134447Y-44020186D01*
X121130046Y-43996781D01*
X121128398Y-43986955D01*
X121123744Y-43969315D01*
X121117142Y-43958276D01*
X121116993Y-43958159D01*
X121107017Y-43954947D01*
X121086227Y-43950964D01*
X121057859Y-43946760D01*
X121031306Y-43943547D01*
X120970739Y-43936762D01*
X120922592Y-43930971D01*
X120885228Y-43925902D01*
X120857013Y-43921283D01*
X120836311Y-43916842D01*
X120821487Y-43912307D01*
X120810906Y-43907406D01*
X120809681Y-43906682D01*
X120785844Y-43885028D01*
X120772147Y-43857463D01*
X120768307Y-43827177D01*
X120774040Y-43797356D01*
X120789066Y-43771188D01*
X120813099Y-43751861D01*
X120823828Y-43747218D01*
X120840978Y-43743803D01*
X120869554Y-43741074D01*
X120906879Y-43739213D01*
X120950277Y-43738405D01*
X120951931Y-43738398D01*
X120994795Y-43737921D01*
X121025083Y-43736779D01*
X121044316Y-43734838D01*
X121054019Y-43731963D01*
X121055959Y-43729180D01*
X121053625Y-43717249D01*
X121047172Y-43694366D01*
X121037348Y-43662824D01*
X121024899Y-43624918D01*
X121010573Y-43582942D01*
X120995116Y-43539188D01*
X120985310Y-43512222D01*
X120971557Y-43475124D01*
X120960261Y-43445579D01*
X120949534Y-43418958D01*
X120937487Y-43390628D01*
X120922233Y-43355959D01*
X120914748Y-43339137D01*
X120900495Y-43307162D01*
X120867123Y-43310977D01*
X120825372Y-43315161D01*
X120780369Y-43318676D01*
X120734821Y-43321415D01*
X120691434Y-43323272D01*
X120652917Y-43324141D01*
X120621975Y-43323916D01*
X120601317Y-43322491D01*
X120596629Y-43321586D01*
X120566036Y-43306731D01*
X120545572Y-43282160D01*
X120535726Y-43248461D01*
X120535695Y-43248195D01*
X120536605Y-43211801D01*
X120547827Y-43182956D01*
X120568698Y-43163276D01*
X120571009Y-43162019D01*
X120583293Y-43157815D01*
X120606137Y-43151777D01*
X120636222Y-43144620D01*
X120670230Y-43137057D01*
X120704843Y-43129804D01*
X120736740Y-43123575D01*
X120762603Y-43119084D01*
X120779113Y-43117045D01*
X120780159Y-43117003D01*
X120789115Y-43113586D01*
X120794221Y-43110652D01*
X120797036Y-43104800D01*
X120795060Y-43093010D01*
X120787823Y-43074333D01*
X120774855Y-43047821D01*
X120755684Y-43012523D01*
X120729839Y-42967491D01*
X120696851Y-42911775D01*
X120689443Y-42899414D01*
X120660521Y-42851351D01*
X120637889Y-42814072D01*
X120620660Y-42786209D01*
X120607948Y-42766397D01*
X120598869Y-42753267D01*
X120592535Y-42745453D01*
X120588063Y-42741587D01*
X120586755Y-42740906D01*
X120578027Y-42741635D01*
X120557823Y-42745437D01*
X120528321Y-42751836D01*
X120491701Y-42760355D01*
X120450143Y-42770518D01*
X120442116Y-42772533D01*
X120395092Y-42784300D01*
X120359534Y-42792858D01*
X120333248Y-42798533D01*
X120314039Y-42801652D01*
X120299711Y-42802543D01*
X120288072Y-42801533D01*
X120276926Y-42798950D01*
X120272868Y-42797774D01*
X120243551Y-42782157D01*
X120222444Y-42756363D01*
X120211043Y-42722626D01*
X120209450Y-42703140D01*
X120212908Y-42679106D01*
X120224531Y-42658885D01*
X120245875Y-42641084D01*
X120278497Y-42624313D01*
X120312367Y-42611196D01*
X120359937Y-42594288D01*
X120395749Y-42581414D01*
X120421376Y-42571981D01*
X120438391Y-42565396D01*
X120448368Y-42561068D01*
X120452880Y-42558403D01*
X120453088Y-42558208D01*
X120450533Y-42551269D01*
X120439887Y-42535288D01*
X120422405Y-42511799D01*
X120399341Y-42482334D01*
X120371949Y-42448426D01*
X120341483Y-42411607D01*
X120309197Y-42373409D01*
X120276345Y-42335366D01*
X120244182Y-42299010D01*
X120213962Y-42265873D01*
X120213038Y-42264879D01*
X120177167Y-42226341D01*
X120145625Y-42240470D01*
X120126235Y-42249028D01*
X120097939Y-42261357D01*
X120064808Y-42275689D01*
X120036472Y-42287875D01*
X120003908Y-42301932D01*
X119974247Y-42314906D01*
X119950969Y-42325265D01*
X119938374Y-42331075D01*
X119903272Y-42341313D01*
X119869874Y-42338948D01*
X119840541Y-42325475D01*
X119817634Y-42302387D01*
X119803514Y-42271178D01*
X119800111Y-42243603D01*
X119801469Y-42227611D01*
X119806593Y-42213381D01*
X119817058Y-42199441D01*
X119834439Y-42184322D01*
X119860311Y-42166553D01*
X119896248Y-42144665D01*
X119922335Y-42129496D01*
X119953884Y-42110714D01*
X119980319Y-42093790D01*
X119999541Y-42080162D01*
X120009449Y-42071272D01*
X120010312Y-42069209D01*
X120004131Y-42061196D01*
X119988606Y-42045829D01*
X119965437Y-42024537D01*
X119936324Y-41998746D01*
X119902968Y-41969885D01*
X119867069Y-41939382D01*
X119830327Y-41908666D01*
X119794444Y-41879164D01*
X119761120Y-41852304D01*
X119732055Y-41829514D01*
X119708949Y-41812223D01*
X119693504Y-41801859D01*
X119689596Y-41799870D01*
X119681379Y-41802604D01*
X119663531Y-41812142D01*
X119638054Y-41827295D01*
X119606948Y-41846876D01*
X119573959Y-41868528D01*
X119528397Y-41898697D01*
X119492523Y-41921602D01*
X119464540Y-41938182D01*
X119442651Y-41949372D01*
X119425058Y-41956108D01*
X119409964Y-41959327D01*
X119398417Y-41960000D01*
X119376103Y-41953987D01*
X119352874Y-41938292D01*
X119332810Y-41916430D01*
X119320209Y-41892595D01*
X119315338Y-41874141D01*
X119314809Y-41857839D01*
X119319798Y-41841821D01*
X119331480Y-41824221D01*
X119351031Y-41803172D01*
X119379625Y-41776806D01*
X119409304Y-41751058D01*
X119438586Y-41725478D01*
X119463451Y-41702768D01*
X119482162Y-41684597D01*
X119492978Y-41672635D01*
X119494927Y-41668863D01*
X119487804Y-41662058D01*
X119470148Y-41649692D01*
X119443871Y-41632857D01*
X119410884Y-41612649D01*
X119373096Y-41590161D01*
X119332420Y-41566485D01*
X119290766Y-41542716D01*
X119250045Y-41519948D01*
X119212168Y-41499274D01*
X119179045Y-41481788D01*
X119152588Y-41468583D01*
X119134708Y-41460753D01*
X119128331Y-41459055D01*
X119117614Y-41463861D01*
X119102810Y-41475888D01*
X119097640Y-41481085D01*
X119085420Y-41493362D01*
X119065095Y-41513000D01*
X119038955Y-41537819D01*
X119009291Y-41565636D01*
X118990180Y-41583390D01*
X118903443Y-41663667D01*
X118865179Y-41663667D01*
X118841268Y-41662606D01*
X118825048Y-41657765D01*
X118810158Y-41646655D01*
X118802325Y-41639076D01*
X118781423Y-41610846D01*
X118772158Y-41580962D01*
X118775398Y-41552336D01*
X118776016Y-41550704D01*
X118782930Y-41539194D01*
X118797241Y-41519425D01*
X118817109Y-41493805D01*
X118840698Y-41464746D01*
X118850936Y-41452493D01*
X118874966Y-41423895D01*
X118895696Y-41399061D01*
X118911448Y-41380016D01*
X118920542Y-41368781D01*
X118922033Y-41366785D01*
X118917157Y-41362254D01*
X118900836Y-41353970D01*
X118875008Y-41342653D01*
X118841612Y-41329024D01*
X118802586Y-41313802D01*
X118759869Y-41297707D01*
X118715399Y-41281459D01*
X118671114Y-41265778D01*
X118628954Y-41251384D01*
X118590856Y-41238997D01*
X118558759Y-41229336D01*
X118536086Y-41223451D01*
X118527033Y-41219175D01*
X118516131Y-41209149D01*
X118502136Y-41191808D01*
X118483807Y-41165591D01*
X118459901Y-41128935D01*
X118455598Y-41122190D01*
X118433381Y-41087294D01*
X118412612Y-41054695D01*
X118395011Y-41027093D01*
X118382303Y-41007190D01*
X118377984Y-41000444D01*
X118328123Y-40922887D01*
X118284939Y-40856138D01*
X118247599Y-40799062D01*
X118215268Y-40750522D01*
X118187111Y-40709382D01*
X118162294Y-40674507D01*
X118139982Y-40644758D01*
X118119340Y-40619002D01*
X118099535Y-40596100D01*
X118079731Y-40574917D01*
X118059093Y-40554317D01*
X118036788Y-40533164D01*
X118030423Y-40527257D01*
X117969847Y-40476522D01*
X117902651Y-40429446D01*
X117832230Y-40387994D01*
X117761981Y-40354130D01*
X117695300Y-40329821D01*
X117683445Y-40326480D01*
X117648061Y-40319532D01*
X117603059Y-40314391D01*
X117552401Y-40311155D01*
X117500052Y-40309923D01*
X117449974Y-40310793D01*
X117406130Y-40313863D01*
X117374257Y-40318816D01*
X117278000Y-40346711D01*
X117187542Y-40385590D01*
X117101728Y-40436169D01*
X117019403Y-40499162D01*
X116939412Y-40575284D01*
X116912141Y-40604728D01*
X116887423Y-40634467D01*
X116856335Y-40675637D01*
X116819461Y-40727391D01*
X116777383Y-40788880D01*
X116730683Y-40859256D01*
X116679945Y-40937671D01*
X116637876Y-41003972D01*
X116611511Y-41045733D01*
X116583255Y-41090281D01*
X116555803Y-41133382D01*
X116531848Y-41170802D01*
X116522337Y-41185574D01*
X116503148Y-41215426D01*
X116486310Y-41241866D01*
X116473554Y-41262159D01*
X116466612Y-41273569D01*
X116466361Y-41274013D01*
X116454732Y-41293834D01*
X116439281Y-41318718D01*
X116421722Y-41346084D01*
X116403766Y-41373352D01*
X116387126Y-41397943D01*
X116373513Y-41417276D01*
X116364639Y-41428772D01*
X116362302Y-41430833D01*
X116360427Y-41424191D01*
X116358844Y-41405920D01*
X116357680Y-41378499D01*
X116357064Y-41344409D01*
X116357000Y-41328528D01*
X116356612Y-41292357D01*
X116355543Y-41261802D01*
X116353939Y-41239344D01*
X116351946Y-41227462D01*
X116351017Y-41226222D01*
X116340649Y-41228515D01*
X116319388Y-41234858D01*
X116289589Y-41244448D01*
X116253610Y-41256484D01*
X116213807Y-41270161D01*
X116172536Y-41284679D01*
X116132155Y-41299234D01*
X116095020Y-41313023D01*
X116085361Y-41316700D01*
X116035592Y-41335919D01*
X115997558Y-41351002D01*
X115969734Y-41362640D01*
X115950595Y-41371522D01*
X115938617Y-41378336D01*
X115932273Y-41383773D01*
X115930532Y-41386673D01*
X115929758Y-41396619D01*
X115930030Y-41417773D01*
X115931252Y-41447279D01*
X115933330Y-41482280D01*
X115934005Y-41492018D01*
X115937927Y-41549286D01*
X115940528Y-41594343D01*
X115941788Y-41629030D01*
X115941683Y-41655189D01*
X115940188Y-41674660D01*
X115937282Y-41689284D01*
X115932942Y-41700901D01*
X115931335Y-41704117D01*
X115910620Y-41729568D01*
X115881438Y-41743927D01*
X115844386Y-41746915D01*
X115840148Y-41746566D01*
X115821055Y-41743907D01*
X115805442Y-41738983D01*
X115792595Y-41730300D01*
X115781801Y-41716361D01*
X115772349Y-41695671D01*
X115763525Y-41666737D01*
X115754616Y-41628063D01*
X115744910Y-41578154D01*
X115735865Y-41527847D01*
X115731214Y-41504123D01*
X115726986Y-41487062D01*
X115724070Y-41480232D01*
X115723997Y-41480222D01*
X115713804Y-41483732D01*
X115693471Y-41493548D01*
X115664887Y-41508601D01*
X115629941Y-41527821D01*
X115590524Y-41550140D01*
X115548524Y-41574486D01*
X115505832Y-41599792D01*
X115464336Y-41624987D01*
X115426909Y-41648377D01*
X115354068Y-41694699D01*
X115358720Y-41719752D01*
X115361941Y-41734986D01*
X115367857Y-41760999D01*
X115375786Y-41794869D01*
X115385048Y-41833676D01*
X115391564Y-41860593D01*
X115403975Y-41914381D01*
X115411760Y-41956627D01*
X115414699Y-41989194D01*
X115412573Y-42013944D01*
X115405165Y-42032740D01*
X115392256Y-42047445D01*
X115373627Y-42059922D01*
X115367826Y-42063028D01*
X115334598Y-42073230D01*
X115302461Y-42070385D01*
X115273748Y-42055503D01*
X115250794Y-42029592D01*
X115240278Y-42007889D01*
X115233041Y-41988176D01*
X115222608Y-41959725D01*
X115210632Y-41927048D01*
X115203318Y-41907083D01*
X115192234Y-41877569D01*
X115182511Y-41853054D01*
X115175377Y-41836551D01*
X115172453Y-41831233D01*
X115165425Y-41833565D01*
X115149475Y-41843939D01*
X115126220Y-41861015D01*
X115097277Y-41883451D01*
X115064262Y-41909907D01*
X115028794Y-41939042D01*
X114992488Y-41969514D01*
X114956963Y-41999983D01*
X114923835Y-42029108D01*
X114894720Y-42055548D01*
X114871237Y-42077963D01*
X114856752Y-42093026D01*
X114841698Y-42109838D01*
X114862499Y-42156627D01*
X114874412Y-42183378D01*
X114885401Y-42207972D01*
X114892861Y-42224583D01*
X114917216Y-42279309D01*
X114935525Y-42322342D01*
X114948143Y-42354567D01*
X114955422Y-42376869D01*
X114957353Y-42385712D01*
X114955166Y-42415129D01*
X114941355Y-42441922D01*
X114918411Y-42463636D01*
X114888819Y-42477815D01*
X114859680Y-42482111D01*
X114843079Y-42480225D01*
X114827586Y-42473582D01*
X114811825Y-42460707D01*
X114794415Y-42440125D01*
X114773980Y-42410359D01*
X114749141Y-42369933D01*
X114739254Y-42353168D01*
X114686486Y-42263031D01*
X114638856Y-42314362D01*
X114620151Y-42335228D01*
X114596360Y-42362826D01*
X114569101Y-42395169D01*
X114539992Y-42430266D01*
X114510651Y-42466131D01*
X114482697Y-42500774D01*
X114457748Y-42532208D01*
X114437420Y-42558443D01*
X114423333Y-42577493D01*
X114417672Y-42586169D01*
X114416251Y-42592590D01*
X114418332Y-42602128D01*
X114424770Y-42616376D01*
X114436419Y-42636931D01*
X114454135Y-42665384D01*
X114478774Y-42703332D01*
X114488128Y-42717542D01*
X114518265Y-42763979D01*
X114540833Y-42800864D01*
X114556631Y-42830007D01*
X114566458Y-42853220D01*
X114571112Y-42872313D01*
X114571392Y-42889097D01*
X114569196Y-42901324D01*
X114557852Y-42922925D01*
X114537145Y-42943593D01*
X114511473Y-42959255D01*
X114503206Y-42962453D01*
X114484566Y-42966799D01*
X114467314Y-42965910D01*
X114449685Y-42958623D01*
X114429910Y-42943777D01*
X114406224Y-42920209D01*
X114376858Y-42886755D01*
X114363049Y-42870254D01*
X114338422Y-42841365D01*
X114316334Y-42816947D01*
X114298555Y-42798842D01*
X114286855Y-42788894D01*
X114283649Y-42787566D01*
X114276265Y-42794077D01*
X114263308Y-42811056D01*
X114245980Y-42836593D01*
X114225482Y-42868777D01*
X114203013Y-42905698D01*
X114179776Y-42945445D01*
X114156970Y-42986108D01*
X114145270Y-43007750D01*
X114128187Y-43039626D01*
X114110976Y-43071426D01*
X114096365Y-43098120D01*
X114091220Y-43107386D01*
X114080294Y-43128028D01*
X114072953Y-43144034D01*
X114071000Y-43150510D01*
X114075637Y-43157564D01*
X114088564Y-43173134D01*
X114108306Y-43195548D01*
X114133386Y-43223137D01*
X114162330Y-43254230D01*
X114166838Y-43259012D01*
X114197203Y-43291859D01*
X114224705Y-43322890D01*
X114247625Y-43350064D01*
X114264247Y-43371342D01*
X114272851Y-43384683D01*
X114273089Y-43385222D01*
X114280176Y-43417425D01*
X114273351Y-43447308D01*
X114252644Y-43474750D01*
X114252607Y-43474785D01*
X114223299Y-43498334D01*
X114196985Y-43509058D01*
X114171045Y-43507024D01*
X114142853Y-43492300D01*
X114124567Y-43478083D01*
X114080037Y-43440627D01*
X114044990Y-43411749D01*
X114018365Y-43390648D01*
X113999104Y-43376523D01*
X113986146Y-43368573D01*
X113978432Y-43365997D01*
X113976664Y-43366256D01*
X113970723Y-43374088D01*
X113961112Y-43393251D01*
X113948596Y-43421683D01*
X113933940Y-43457321D01*
X113917910Y-43498099D01*
X113901272Y-43541955D01*
X113884789Y-43586825D01*
X113869229Y-43630645D01*
X113855355Y-43671352D01*
X113843934Y-43706882D01*
X113835732Y-43735171D01*
X113831512Y-43754156D01*
X113831111Y-43758704D01*
X113836531Y-43764904D01*
X113851653Y-43778032D01*
X113874766Y-43796712D01*
X113904161Y-43819569D01*
X113938130Y-43845229D01*
X113945044Y-43850369D01*
X113980807Y-43877386D01*
X114013314Y-43902870D01*
X114040578Y-43925189D01*
X114060609Y-43942711D01*
X114071421Y-43953802D01*
X114071997Y-43954613D01*
X114083682Y-43983938D01*
X114082003Y-44014716D01*
X114067374Y-44045342D01*
X114041592Y-44073054D01*
X114022588Y-44085123D01*
X114001671Y-44089534D01*
X113976734Y-44085926D01*
X113945670Y-44073937D01*
X113906373Y-44053205D01*
X113898139Y-44048445D01*
X113859160Y-44025716D01*
X113830510Y-44009163D01*
X113810355Y-43997812D01*
X113796858Y-43990690D01*
X113788185Y-43986820D01*
X113782498Y-43985231D01*
X113778480Y-43984944D01*
X113770746Y-43991743D01*
X113763696Y-44011115D01*
X113761238Y-44021986D01*
X113753058Y-44064169D01*
X113744126Y-44112021D01*
X113735244Y-44161088D01*
X113727213Y-44206915D01*
X113720835Y-44245048D01*
X113719014Y-44256583D01*
X113713628Y-44291478D01*
X113707690Y-44329855D01*
X113703880Y-44354423D01*
X113700427Y-44378712D01*
X113698472Y-44396714D01*
X113698413Y-44404710D01*
X113698469Y-44404783D01*
X113705133Y-44408371D01*
X113722507Y-44417277D01*
X113748667Y-44430530D01*
X113781693Y-44447155D01*
X113819663Y-44466181D01*
X113828318Y-44470507D01*
X113879726Y-44496632D01*
X113919574Y-44518192D01*
X113949198Y-44536343D01*
X113969936Y-44552244D01*
X113983125Y-44567051D01*
X113990104Y-44581922D01*
X113992210Y-44598014D01*
X113991393Y-44611606D01*
X113981343Y-44648085D01*
X113960093Y-44676085D01*
X113935094Y-44692669D01*
X113923087Y-44698185D01*
X113912257Y-44700964D01*
X113899789Y-44700550D01*
X113882864Y-44696488D01*
X113858666Y-44688321D01*
X113824376Y-44675595D01*
X113820528Y-44674146D01*
X113775658Y-44657308D01*
X113742183Y-44644996D01*
X113718316Y-44636703D01*
X113702269Y-44631921D01*
X113692257Y-44630145D01*
X113686490Y-44630865D01*
X113683181Y-44633575D01*
X113682271Y-44634904D01*
X113680589Y-44644458D01*
X113679192Y-44665854D01*
X113678084Y-44696826D01*
X113677268Y-44735107D01*
X113676748Y-44778431D01*
X113676529Y-44824532D01*
X113676613Y-44871144D01*
X113677006Y-44916000D01*
X113677710Y-44956833D01*
X113678731Y-44991379D01*
X113680071Y-45017370D01*
X113681587Y-45031766D01*
X113682979Y-45040897D01*
X113684565Y-45047908D01*
X113688079Y-45053621D01*
X113695258Y-45058861D01*
X113707835Y-45064452D01*
X113727545Y-45071217D01*
X113756125Y-45079980D01*
X113795308Y-45091564D01*
X113827583Y-45101086D01*
X113881553Y-45117461D01*
X113922961Y-45131015D01*
X113952966Y-45142223D01*
X113972727Y-45151557D01*
X113983404Y-45159490D01*
X113986204Y-45165790D01*
X113982487Y-45174789D01*
X113972579Y-45192564D01*
X113958173Y-45216185D01*
X113947399Y-45232980D01*
X113931072Y-45258461D01*
X113918153Y-45279578D01*
X113910310Y-45293551D01*
X113908722Y-45297489D01*
X113905475Y-45303463D01*
X113894722Y-45306233D01*
X113874948Y-45305752D01*
X113844637Y-45301974D01*
X113802272Y-45294852D01*
X113798122Y-45294101D01*
X113764227Y-45288157D01*
X113735692Y-45283561D01*
X113715190Y-45280712D01*
X113705391Y-45280010D01*
X113704966Y-45280147D01*
X113704786Y-45287819D01*
X113706515Y-45306627D01*
X113709761Y-45333785D01*
X113714134Y-45366506D01*
X113719245Y-45402004D01*
X113724703Y-45437493D01*
X113730117Y-45470185D01*
X113735099Y-45497295D01*
X113735971Y-45501615D01*
X113739342Y-45517353D01*
X113741552Y-45529933D01*
X113741813Y-45541245D01*
X113739342Y-45553179D01*
X113733351Y-45567625D01*
X113723057Y-45586472D01*
X113707673Y-45611609D01*
X113686414Y-45644928D01*
X113658495Y-45688318D01*
X113658146Y-45688861D01*
X113636057Y-45723327D01*
X113608026Y-45767189D01*
X113575661Y-45817920D01*
X113540573Y-45872997D01*
X113504369Y-45929893D01*
X113468659Y-45986084D01*
X113453547Y-46009889D01*
X113420663Y-46061682D01*
X113388439Y-46112395D01*
X113358095Y-46160107D01*
X113330855Y-46202897D01*
X113307940Y-46238846D01*
X113290572Y-46266033D01*
X113282900Y-46278000D01*
X113216684Y-46381178D01*
X113157772Y-46473478D01*
X113105680Y-46555793D01*
X113059926Y-46629013D01*
X113020026Y-46694030D01*
X112985498Y-46751736D01*
X112955858Y-46803022D01*
X112930626Y-46848780D01*
X112909316Y-46889901D01*
X112891448Y-46927277D01*
X112876537Y-46961799D01*
X112864102Y-46994359D01*
X112853659Y-47025848D01*
X112844725Y-47057158D01*
X112836819Y-47089180D01*
X112832054Y-47110555D01*
X112824840Y-47156019D01*
X112820558Y-47208955D01*
X112819217Y-47264956D01*
X112819217Y-47264956D01*
G36*
X118400491Y-45512652D02*
X118402410Y-45523360D01*
X118411415Y-45539733D01*
X118417782Y-45548454D01*
X118435599Y-45574686D01*
X118443337Y-45598643D01*
X118442393Y-45626263D01*
X118439585Y-45641111D01*
X118437227Y-45658049D01*
X118434752Y-45686501D01*
X118432322Y-45723874D01*
X118430097Y-45767575D01*
X118428238Y-45815009D01*
X118427661Y-45833500D01*
X118425418Y-45910748D01*
X118423486Y-45976645D01*
X118421779Y-46033944D01*
X118420209Y-46085400D01*
X118418687Y-46133766D01*
X118417127Y-46181797D01*
X118415441Y-46232247D01*
X118413541Y-46287868D01*
X118411339Y-46351417D01*
X118409520Y-46403558D01*
X118407190Y-46471863D01*
X118405525Y-46527719D01*
X118404648Y-46572776D01*
X118404680Y-46608686D01*
X118405741Y-46637100D01*
X118407952Y-46659669D01*
X118411436Y-46678044D01*
X118416313Y-46693877D01*
X118422703Y-46708818D01*
X118430729Y-46724519D01*
X118433437Y-46729555D01*
X118458455Y-46767779D01*
X118486671Y-46793520D01*
X118520773Y-46808396D01*
X118563445Y-46814027D01*
X118573858Y-46814186D01*
X118604937Y-46813118D01*
X118627246Y-46809235D01*
X118646024Y-46801438D01*
X118652551Y-46797691D01*
X118682314Y-46772583D01*
X118708272Y-46736982D01*
X118727989Y-46694437D01*
X118732046Y-46681809D01*
X118735056Y-46669265D01*
X118737257Y-46654169D01*
X118738623Y-46635203D01*
X118739123Y-46611050D01*
X118738729Y-46580391D01*
X118737412Y-46541909D01*
X118735142Y-46494286D01*
X118731892Y-46436203D01*
X118727632Y-46366344D01*
X118723808Y-46306222D01*
X118722575Y-46286426D01*
X118720647Y-46254645D01*
X118718149Y-46212985D01*
X118715206Y-46163547D01*
X118711944Y-46108436D01*
X118708488Y-46049754D01*
X118706150Y-46009889D01*
X118700976Y-45923666D01*
X118696269Y-45850069D01*
X118691910Y-45787622D01*
X118687782Y-45734851D01*
X118683768Y-45690282D01*
X118679749Y-45652441D01*
X118675608Y-45619854D01*
X118674194Y-45609999D01*
X118672791Y-45590344D01*
X118676672Y-45574009D01*
X118687609Y-45554797D01*
X118691697Y-45548756D01*
X118706493Y-45525811D01*
X118712353Y-45510306D01*
X118708075Y-45499983D01*
X118692458Y-45492583D01*
X118664302Y-45485847D01*
X118657522Y-45484473D01*
X118618306Y-45476617D01*
X118616401Y-44619656D01*
X118616127Y-44491116D01*
X118615912Y-44375933D01*
X118615765Y-44273353D01*
X118615694Y-44182621D01*
X118615708Y-44102983D01*
X118615814Y-44033685D01*
X118616021Y-43973973D01*
X118616338Y-43923092D01*
X118616773Y-43880289D01*
X118617334Y-43844808D01*
X118618029Y-43815897D01*
X118618867Y-43792800D01*
X118619856Y-43774763D01*
X118621005Y-43761032D01*
X118622322Y-43750854D01*
X118623814Y-43743473D01*
X118625492Y-43738135D01*
X118626166Y-43736515D01*
X118630891Y-43724405D01*
X118633712Y-43711782D01*
X118634541Y-43696196D01*
X118633291Y-43675199D01*
X118629874Y-43646341D01*
X118624203Y-43607174D01*
X118620740Y-43584542D01*
X118612842Y-43533389D01*
X118578949Y-43533389D01*
X118558508Y-43534397D01*
X118544788Y-43536960D01*
X118541919Y-43538680D01*
X118539748Y-43547367D01*
X118536161Y-43567099D01*
X118531656Y-43594940D01*
X118526764Y-43627741D01*
X118521757Y-43664045D01*
X118518982Y-43689675D01*
X118518416Y-43707888D01*
X118520038Y-43721940D01*
X118523824Y-43735087D01*
X118525984Y-43740940D01*
X118527676Y-43746403D01*
X118529185Y-43753944D01*
X118530520Y-43764316D01*
X118531689Y-43778273D01*
X118532699Y-43796570D01*
X118533559Y-43819960D01*
X118534277Y-43849198D01*
X118534862Y-43885036D01*
X118535320Y-43928229D01*
X118535660Y-43979532D01*
X118535891Y-44039697D01*
X118536020Y-44109479D01*
X118536055Y-44189631D01*
X118536005Y-44280908D01*
X118535877Y-44384063D01*
X118535679Y-44499851D01*
X118535431Y-44623774D01*
X118533639Y-45477177D01*
X118487778Y-45482611D01*
X118445670Y-45489508D01*
X118416993Y-45498589D01*
X118401989Y-45509774D01*
X118400491Y-45512652D01*
X118400491Y-45512652D01*
X118400491Y-45512652D01*
G37*
X118400491Y-45512652D02*
X118402410Y-45523360D01*
X118411415Y-45539733D01*
X118417782Y-45548454D01*
X118435599Y-45574686D01*
X118443337Y-45598643D01*
X118442393Y-45626263D01*
X118439585Y-45641111D01*
X118437227Y-45658049D01*
X118434752Y-45686501D01*
X118432322Y-45723874D01*
X118430097Y-45767575D01*
X118428238Y-45815009D01*
X118427661Y-45833500D01*
X118425418Y-45910748D01*
X118423486Y-45976645D01*
X118421779Y-46033944D01*
X118420209Y-46085400D01*
X118418687Y-46133766D01*
X118417127Y-46181797D01*
X118415441Y-46232247D01*
X118413541Y-46287868D01*
X118411339Y-46351417D01*
X118409520Y-46403558D01*
X118407190Y-46471863D01*
X118405525Y-46527719D01*
X118404648Y-46572776D01*
X118404680Y-46608686D01*
X118405741Y-46637100D01*
X118407952Y-46659669D01*
X118411436Y-46678044D01*
X118416313Y-46693877D01*
X118422703Y-46708818D01*
X118430729Y-46724519D01*
X118433437Y-46729555D01*
X118458455Y-46767779D01*
X118486671Y-46793520D01*
X118520773Y-46808396D01*
X118563445Y-46814027D01*
X118573858Y-46814186D01*
X118604937Y-46813118D01*
X118627246Y-46809235D01*
X118646024Y-46801438D01*
X118652551Y-46797691D01*
X118682314Y-46772583D01*
X118708272Y-46736982D01*
X118727989Y-46694437D01*
X118732046Y-46681809D01*
X118735056Y-46669265D01*
X118737257Y-46654169D01*
X118738623Y-46635203D01*
X118739123Y-46611050D01*
X118738729Y-46580391D01*
X118737412Y-46541909D01*
X118735142Y-46494286D01*
X118731892Y-46436203D01*
X118727632Y-46366344D01*
X118723808Y-46306222D01*
X118722575Y-46286426D01*
X118720647Y-46254645D01*
X118718149Y-46212985D01*
X118715206Y-46163547D01*
X118711944Y-46108436D01*
X118708488Y-46049754D01*
X118706150Y-46009889D01*
X118700976Y-45923666D01*
X118696269Y-45850069D01*
X118691910Y-45787622D01*
X118687782Y-45734851D01*
X118683768Y-45690282D01*
X118679749Y-45652441D01*
X118675608Y-45619854D01*
X118674194Y-45609999D01*
X118672791Y-45590344D01*
X118676672Y-45574009D01*
X118687609Y-45554797D01*
X118691697Y-45548756D01*
X118706493Y-45525811D01*
X118712353Y-45510306D01*
X118708075Y-45499983D01*
X118692458Y-45492583D01*
X118664302Y-45485847D01*
X118657522Y-45484473D01*
X118618306Y-45476617D01*
X118616401Y-44619656D01*
X118616127Y-44491116D01*
X118615912Y-44375933D01*
X118615765Y-44273353D01*
X118615694Y-44182621D01*
X118615708Y-44102983D01*
X118615814Y-44033685D01*
X118616021Y-43973973D01*
X118616338Y-43923092D01*
X118616773Y-43880289D01*
X118617334Y-43844808D01*
X118618029Y-43815897D01*
X118618867Y-43792800D01*
X118619856Y-43774763D01*
X118621005Y-43761032D01*
X118622322Y-43750854D01*
X118623814Y-43743473D01*
X118625492Y-43738135D01*
X118626166Y-43736515D01*
X118630891Y-43724405D01*
X118633712Y-43711782D01*
X118634541Y-43696196D01*
X118633291Y-43675199D01*
X118629874Y-43646341D01*
X118624203Y-43607174D01*
X118620740Y-43584542D01*
X118612842Y-43533389D01*
X118578949Y-43533389D01*
X118558508Y-43534397D01*
X118544788Y-43536960D01*
X118541919Y-43538680D01*
X118539748Y-43547367D01*
X118536161Y-43567099D01*
X118531656Y-43594940D01*
X118526764Y-43627741D01*
X118521757Y-43664045D01*
X118518982Y-43689675D01*
X118518416Y-43707888D01*
X118520038Y-43721940D01*
X118523824Y-43735087D01*
X118525984Y-43740940D01*
X118527676Y-43746403D01*
X118529185Y-43753944D01*
X118530520Y-43764316D01*
X118531689Y-43778273D01*
X118532699Y-43796570D01*
X118533559Y-43819960D01*
X118534277Y-43849198D01*
X118534862Y-43885036D01*
X118535320Y-43928229D01*
X118535660Y-43979532D01*
X118535891Y-44039697D01*
X118536020Y-44109479D01*
X118536055Y-44189631D01*
X118536005Y-44280908D01*
X118535877Y-44384063D01*
X118535679Y-44499851D01*
X118535431Y-44623774D01*
X118533639Y-45477177D01*
X118487778Y-45482611D01*
X118445670Y-45489508D01*
X118416993Y-45498589D01*
X118401989Y-45509774D01*
X118400491Y-45512652D01*
X118400491Y-45512652D01*
G36*
X116168661Y-46462718D02*
X116178143Y-46529805D01*
X116201453Y-46597619D01*
X116206550Y-46608689D01*
X116225594Y-46643129D01*
X116248129Y-46675315D01*
X116272023Y-46702918D01*
X116295145Y-46723613D01*
X116315364Y-46735072D01*
X116323711Y-46736611D01*
X116342540Y-46736611D01*
X116344478Y-46622418D01*
X116346417Y-46508225D01*
X116438139Y-46435684D01*
X116469327Y-46411421D01*
X116497093Y-46390576D01*
X116505167Y-46384800D01*
X116505167Y-45394847D01*
X116505181Y-45280675D01*
X116505234Y-45179782D01*
X116505339Y-45091335D01*
X116505510Y-45014503D01*
X116505760Y-44948452D01*
X116506105Y-44892351D01*
X116506557Y-44845367D01*
X116507131Y-44806667D01*
X116507841Y-44775420D01*
X116508700Y-44750793D01*
X116509723Y-44731954D01*
X116510923Y-44718071D01*
X116512314Y-44708311D01*
X116513910Y-44701841D01*
X116515726Y-44697830D01*
X116516844Y-44696347D01*
X116533542Y-44685624D01*
X116551747Y-44684754D01*
X116566182Y-44693660D01*
X116568419Y-44697092D01*
X116569834Y-44706753D01*
X116571097Y-44730185D01*
X116572206Y-44767426D01*
X116573163Y-44818515D01*
X116573967Y-44883490D01*
X116574620Y-44962390D01*
X116575121Y-45055253D01*
X116575471Y-45162117D01*
X116575671Y-45283021D01*
X116575722Y-45394022D01*
X116575704Y-45508527D01*
X116575640Y-45609747D01*
X116575517Y-45698511D01*
X116575322Y-45775644D01*
X116575043Y-45841973D01*
X116574666Y-45898326D01*
X116574178Y-45945530D01*
X116573567Y-45984410D01*
X116572819Y-46015794D01*
X116571921Y-46040510D01*
X116570861Y-46059383D01*
X116569625Y-46073241D01*
X116568201Y-46082911D01*
X116566575Y-46089219D01*
X116564739Y-46092985D01*
X116550343Y-46106388D01*
X116534764Y-46106035D01*
X116519278Y-46094555D01*
X116516940Y-46091980D01*
X116514876Y-46088653D01*
X116513069Y-46083730D01*
X116511501Y-46076368D01*
X116510155Y-46065722D01*
X116509015Y-46050950D01*
X116508063Y-46031208D01*
X116507283Y-46005651D01*
X116506657Y-45973437D01*
X116506168Y-45933723D01*
X116505800Y-45885663D01*
X116505535Y-45828415D01*
X116505357Y-45761135D01*
X116505248Y-45682980D01*
X116505191Y-45593105D01*
X116505170Y-45490668D01*
X116505167Y-45394847D01*
X116505167Y-46384800D01*
X116519394Y-46374623D01*
X116534188Y-46365037D01*
X116538975Y-46362904D01*
X116546835Y-46366994D01*
X116563298Y-46378209D01*
X116586036Y-46394749D01*
X116612721Y-46414817D01*
X116641024Y-46436613D01*
X116668618Y-46458337D01*
X116693174Y-46478191D01*
X116712365Y-46494376D01*
X116723862Y-46505092D01*
X116725545Y-46507084D01*
X116727327Y-46516330D01*
X116728858Y-46537095D01*
X116730024Y-46566785D01*
X116730707Y-46602809D01*
X116730837Y-46625486D01*
X116730945Y-46736611D01*
X116751403Y-46736611D01*
X116765175Y-46733915D01*
X116780212Y-46724479D01*
X116799403Y-46706281D01*
X116808228Y-46696821D01*
X116849482Y-46643872D01*
X116878181Y-46588114D01*
X116895220Y-46527185D01*
X116901490Y-46458719D01*
X116901561Y-46449845D01*
X116894972Y-46378162D01*
X116875678Y-46311240D01*
X116844390Y-46250367D01*
X116801816Y-46196828D01*
X116748667Y-46151910D01*
X116730707Y-46140272D01*
X116688611Y-46114700D01*
X116688611Y-45325170D01*
X116688611Y-44535640D01*
X116708860Y-44525169D01*
X116736796Y-44504996D01*
X116765405Y-44474421D01*
X116792248Y-44436803D01*
X116814885Y-44395501D01*
X116829126Y-44359600D01*
X116835255Y-44327962D01*
X116837320Y-44288271D01*
X116835549Y-44245914D01*
X116830168Y-44206281D01*
X116821404Y-44174760D01*
X116821347Y-44174621D01*
X116790110Y-44114841D01*
X116749607Y-44064903D01*
X116701105Y-44025562D01*
X116645870Y-43997578D01*
X116585171Y-43981706D01*
X116520272Y-43978704D01*
X116497124Y-43980794D01*
X116471537Y-43984440D01*
X116455195Y-43988874D01*
X116448293Y-43995638D01*
X116451029Y-44006273D01*
X116463600Y-44022321D01*
X116486203Y-44045325D01*
X116508053Y-44066347D01*
X116534458Y-44090800D01*
X116558042Y-44111232D01*
X116576597Y-44125830D01*
X116587912Y-44132780D01*
X116589396Y-44133111D01*
X116599259Y-44137875D01*
X116615810Y-44150597D01*
X116636105Y-44168921D01*
X116644718Y-44177398D01*
X116688611Y-44221685D01*
X116688611Y-44282643D01*
X116687909Y-44310347D01*
X116686034Y-44332059D01*
X116683334Y-44344398D01*
X116682097Y-44345954D01*
X116673781Y-44351752D01*
X116658923Y-44364360D01*
X116644875Y-44377196D01*
X116620067Y-44399186D01*
X116599497Y-44412647D01*
X116578060Y-44419621D01*
X116550646Y-44422151D01*
X116531868Y-44422389D01*
X116480031Y-44422389D01*
X116438365Y-44380284D01*
X116418893Y-44359379D01*
X116403801Y-44340866D01*
X116395626Y-44327933D01*
X116394899Y-44325604D01*
X116388754Y-44313866D01*
X116375154Y-44298166D01*
X116366230Y-44289854D01*
X116330245Y-44259520D01*
X116299130Y-44234673D01*
X116274219Y-44216289D01*
X116256844Y-44205346D01*
X116248340Y-44202818D01*
X116247917Y-44203217D01*
X116243195Y-44218493D01*
X116240281Y-44243300D01*
X116239335Y-44273156D01*
X116240519Y-44303575D01*
X116243465Y-44327329D01*
X116261866Y-44389549D01*
X116292861Y-44446012D01*
X116335547Y-44495074D01*
X116335958Y-44495455D01*
X116378167Y-44534533D01*
X116378167Y-45327007D01*
X116378167Y-46119481D01*
X116340126Y-46142234D01*
X116289878Y-46180132D01*
X116246185Y-46228814D01*
X116210637Y-46285855D01*
X116184826Y-46348830D01*
X116173092Y-46396890D01*
X116168661Y-46462718D01*
X116168661Y-46462718D01*
X116168661Y-46462718D01*
G37*
X116168661Y-46462718D02*
X116178143Y-46529805D01*
X116201453Y-46597619D01*
X116206550Y-46608689D01*
X116225594Y-46643129D01*
X116248129Y-46675315D01*
X116272023Y-46702918D01*
X116295145Y-46723613D01*
X116315364Y-46735072D01*
X116323711Y-46736611D01*
X116342540Y-46736611D01*
X116344478Y-46622418D01*
X116346417Y-46508225D01*
X116438139Y-46435684D01*
X116469327Y-46411421D01*
X116497093Y-46390576D01*
X116505167Y-46384800D01*
X116505167Y-45394847D01*
X116505181Y-45280675D01*
X116505234Y-45179782D01*
X116505339Y-45091335D01*
X116505510Y-45014503D01*
X116505760Y-44948452D01*
X116506105Y-44892351D01*
X116506557Y-44845367D01*
X116507131Y-44806667D01*
X116507841Y-44775420D01*
X116508700Y-44750793D01*
X116509723Y-44731954D01*
X116510923Y-44718071D01*
X116512314Y-44708311D01*
X116513910Y-44701841D01*
X116515726Y-44697830D01*
X116516844Y-44696347D01*
X116533542Y-44685624D01*
X116551747Y-44684754D01*
X116566182Y-44693660D01*
X116568419Y-44697092D01*
X116569834Y-44706753D01*
X116571097Y-44730185D01*
X116572206Y-44767426D01*
X116573163Y-44818515D01*
X116573967Y-44883490D01*
X116574620Y-44962390D01*
X116575121Y-45055253D01*
X116575471Y-45162117D01*
X116575671Y-45283021D01*
X116575722Y-45394022D01*
X116575704Y-45508527D01*
X116575640Y-45609747D01*
X116575517Y-45698511D01*
X116575322Y-45775644D01*
X116575043Y-45841973D01*
X116574666Y-45898326D01*
X116574178Y-45945530D01*
X116573567Y-45984410D01*
X116572819Y-46015794D01*
X116571921Y-46040510D01*
X116570861Y-46059383D01*
X116569625Y-46073241D01*
X116568201Y-46082911D01*
X116566575Y-46089219D01*
X116564739Y-46092985D01*
X116550343Y-46106388D01*
X116534764Y-46106035D01*
X116519278Y-46094555D01*
X116516940Y-46091980D01*
X116514876Y-46088653D01*
X116513069Y-46083730D01*
X116511501Y-46076368D01*
X116510155Y-46065722D01*
X116509015Y-46050950D01*
X116508063Y-46031208D01*
X116507283Y-46005651D01*
X116506657Y-45973437D01*
X116506168Y-45933723D01*
X116505800Y-45885663D01*
X116505535Y-45828415D01*
X116505357Y-45761135D01*
X116505248Y-45682980D01*
X116505191Y-45593105D01*
X116505170Y-45490668D01*
X116505167Y-45394847D01*
X116505167Y-46384800D01*
X116519394Y-46374623D01*
X116534188Y-46365037D01*
X116538975Y-46362904D01*
X116546835Y-46366994D01*
X116563298Y-46378209D01*
X116586036Y-46394749D01*
X116612721Y-46414817D01*
X116641024Y-46436613D01*
X116668618Y-46458337D01*
X116693174Y-46478191D01*
X116712365Y-46494376D01*
X116723862Y-46505092D01*
X116725545Y-46507084D01*
X116727327Y-46516330D01*
X116728858Y-46537095D01*
X116730024Y-46566785D01*
X116730707Y-46602809D01*
X116730837Y-46625486D01*
X116730945Y-46736611D01*
X116751403Y-46736611D01*
X116765175Y-46733915D01*
X116780212Y-46724479D01*
X116799403Y-46706281D01*
X116808228Y-46696821D01*
X116849482Y-46643872D01*
X116878181Y-46588114D01*
X116895220Y-46527185D01*
X116901490Y-46458719D01*
X116901561Y-46449845D01*
X116894972Y-46378162D01*
X116875678Y-46311240D01*
X116844390Y-46250367D01*
X116801816Y-46196828D01*
X116748667Y-46151910D01*
X116730707Y-46140272D01*
X116688611Y-46114700D01*
X116688611Y-45325170D01*
X116688611Y-44535640D01*
X116708860Y-44525169D01*
X116736796Y-44504996D01*
X116765405Y-44474421D01*
X116792248Y-44436803D01*
X116814885Y-44395501D01*
X116829126Y-44359600D01*
X116835255Y-44327962D01*
X116837320Y-44288271D01*
X116835549Y-44245914D01*
X116830168Y-44206281D01*
X116821404Y-44174760D01*
X116821347Y-44174621D01*
X116790110Y-44114841D01*
X116749607Y-44064903D01*
X116701105Y-44025562D01*
X116645870Y-43997578D01*
X116585171Y-43981706D01*
X116520272Y-43978704D01*
X116497124Y-43980794D01*
X116471537Y-43984440D01*
X116455195Y-43988874D01*
X116448293Y-43995638D01*
X116451029Y-44006273D01*
X116463600Y-44022321D01*
X116486203Y-44045325D01*
X116508053Y-44066347D01*
X116534458Y-44090800D01*
X116558042Y-44111232D01*
X116576597Y-44125830D01*
X116587912Y-44132780D01*
X116589396Y-44133111D01*
X116599259Y-44137875D01*
X116615810Y-44150597D01*
X116636105Y-44168921D01*
X116644718Y-44177398D01*
X116688611Y-44221685D01*
X116688611Y-44282643D01*
X116687909Y-44310347D01*
X116686034Y-44332059D01*
X116683334Y-44344398D01*
X116682097Y-44345954D01*
X116673781Y-44351752D01*
X116658923Y-44364360D01*
X116644875Y-44377196D01*
X116620067Y-44399186D01*
X116599497Y-44412647D01*
X116578060Y-44419621D01*
X116550646Y-44422151D01*
X116531868Y-44422389D01*
X116480031Y-44422389D01*
X116438365Y-44380284D01*
X116418893Y-44359379D01*
X116403801Y-44340866D01*
X116395626Y-44327933D01*
X116394899Y-44325604D01*
X116388754Y-44313866D01*
X116375154Y-44298166D01*
X116366230Y-44289854D01*
X116330245Y-44259520D01*
X116299130Y-44234673D01*
X116274219Y-44216289D01*
X116256844Y-44205346D01*
X116248340Y-44202818D01*
X116247917Y-44203217D01*
X116243195Y-44218493D01*
X116240281Y-44243300D01*
X116239335Y-44273156D01*
X116240519Y-44303575D01*
X116243465Y-44327329D01*
X116261866Y-44389549D01*
X116292861Y-44446012D01*
X116335547Y-44495074D01*
X116335958Y-44495455D01*
X116378167Y-44534533D01*
X116378167Y-45327007D01*
X116378167Y-46119481D01*
X116340126Y-46142234D01*
X116289878Y-46180132D01*
X116246185Y-46228814D01*
X116210637Y-46285855D01*
X116184826Y-46348830D01*
X116173092Y-46396890D01*
X116168661Y-46462718D01*
X116168661Y-46462718D01*
G36*
X117069611Y-45403127D02*
X117070488Y-45428002D01*
X117073816Y-45442598D01*
X117080639Y-45450677D01*
X117083259Y-45452252D01*
X117095017Y-45457248D01*
X117106336Y-45457854D01*
X117119485Y-45452939D01*
X117136736Y-45441375D01*
X117160360Y-45422031D01*
X117182070Y-45403111D01*
X117207236Y-45381296D01*
X117228678Y-45363401D01*
X117244154Y-45351250D01*
X117251421Y-45346668D01*
X117251467Y-45346667D01*
X117265649Y-45351968D01*
X117283873Y-45365566D01*
X117302380Y-45383998D01*
X117317408Y-45403802D01*
X117321521Y-45411163D01*
X117333964Y-45438016D01*
X117340416Y-45458603D01*
X117340014Y-45475976D01*
X117331895Y-45493186D01*
X117315197Y-45513284D01*
X117289055Y-45539321D01*
X117283856Y-45544321D01*
X117256744Y-45570847D01*
X117239714Y-45589714D01*
X117232435Y-45602783D01*
X117234571Y-45611913D01*
X117245789Y-45618967D01*
X117265755Y-45625803D01*
X117269065Y-45626800D01*
X117307516Y-45634149D01*
X117348459Y-45635160D01*
X117386450Y-45630042D01*
X117411713Y-45621352D01*
X117443865Y-45600569D01*
X117476259Y-45571679D01*
X117503631Y-45539567D01*
X117510028Y-45530111D01*
X117524841Y-45500494D01*
X117538404Y-45462378D01*
X117548914Y-45421365D01*
X117553221Y-45396055D01*
X117556413Y-45373111D01*
X117559437Y-45354016D01*
X117560232Y-45349703D01*
X117563893Y-45342857D01*
X117573434Y-45331370D01*
X117589505Y-45314624D01*
X117612756Y-45292006D01*
X117643839Y-45262901D01*
X117683404Y-45226694D01*
X117732101Y-45182769D01*
X117790582Y-45130512D01*
X117817500Y-45106570D01*
X117843614Y-45083359D01*
X117866296Y-45063182D01*
X117883239Y-45048092D01*
X117892137Y-45040141D01*
X117892454Y-45039855D01*
X117911718Y-45022627D01*
X117940549Y-44997092D01*
X117977863Y-44964199D01*
X118022577Y-44924901D01*
X118073608Y-44880147D01*
X118129873Y-44830889D01*
X118190290Y-44778076D01*
X118253774Y-44722661D01*
X118254945Y-44721640D01*
X118463083Y-44540088D01*
X118466611Y-44392358D01*
X118467430Y-44348191D01*
X118467705Y-44308993D01*
X118467461Y-44276886D01*
X118466718Y-44253991D01*
X118465499Y-44242432D01*
X118465035Y-44241486D01*
X118458283Y-44244849D01*
X118443297Y-44256251D01*
X118422097Y-44274039D01*
X118396706Y-44296560D01*
X118388666Y-44303908D01*
X118357005Y-44332888D01*
X118323830Y-44363005D01*
X118293127Y-44390654D01*
X118269365Y-44411805D01*
X118250838Y-44428163D01*
X118223786Y-44452090D01*
X118190236Y-44481792D01*
X118152216Y-44515472D01*
X118111754Y-44551333D01*
X118077622Y-44581600D01*
X117980124Y-44667636D01*
X117887628Y-44748374D01*
X117800771Y-44823282D01*
X117720193Y-44891827D01*
X117646531Y-44953475D01*
X117580425Y-45007693D01*
X117522512Y-45053948D01*
X117473431Y-45091707D01*
X117433821Y-45120437D01*
X117425917Y-45125847D01*
X117404879Y-45139497D01*
X117387885Y-45148162D01*
X117370285Y-45153229D01*
X117347426Y-45156088D01*
X117318453Y-45157923D01*
X117265916Y-45163897D01*
X117222618Y-45176720D01*
X117184618Y-45198199D01*
X117147975Y-45230145D01*
X117137748Y-45240858D01*
X117101792Y-45287844D01*
X117079385Y-45336956D01*
X117069990Y-45389474D01*
X117069611Y-45403127D01*
X117069611Y-45403127D01*
X117069611Y-45403127D01*
G37*
X117069611Y-45403127D02*
X117070488Y-45428002D01*
X117073816Y-45442598D01*
X117080639Y-45450677D01*
X117083259Y-45452252D01*
X117095017Y-45457248D01*
X117106336Y-45457854D01*
X117119485Y-45452939D01*
X117136736Y-45441375D01*
X117160360Y-45422031D01*
X117182070Y-45403111D01*
X117207236Y-45381296D01*
X117228678Y-45363401D01*
X117244154Y-45351250D01*
X117251421Y-45346668D01*
X117251467Y-45346667D01*
X117265649Y-45351968D01*
X117283873Y-45365566D01*
X117302380Y-45383998D01*
X117317408Y-45403802D01*
X117321521Y-45411163D01*
X117333964Y-45438016D01*
X117340416Y-45458603D01*
X117340014Y-45475976D01*
X117331895Y-45493186D01*
X117315197Y-45513284D01*
X117289055Y-45539321D01*
X117283856Y-45544321D01*
X117256744Y-45570847D01*
X117239714Y-45589714D01*
X117232435Y-45602783D01*
X117234571Y-45611913D01*
X117245789Y-45618967D01*
X117265755Y-45625803D01*
X117269065Y-45626800D01*
X117307516Y-45634149D01*
X117348459Y-45635160D01*
X117386450Y-45630042D01*
X117411713Y-45621352D01*
X117443865Y-45600569D01*
X117476259Y-45571679D01*
X117503631Y-45539567D01*
X117510028Y-45530111D01*
X117524841Y-45500494D01*
X117538404Y-45462378D01*
X117548914Y-45421365D01*
X117553221Y-45396055D01*
X117556413Y-45373111D01*
X117559437Y-45354016D01*
X117560232Y-45349703D01*
X117563893Y-45342857D01*
X117573434Y-45331370D01*
X117589505Y-45314624D01*
X117612756Y-45292006D01*
X117643839Y-45262901D01*
X117683404Y-45226694D01*
X117732101Y-45182769D01*
X117790582Y-45130512D01*
X117817500Y-45106570D01*
X117843614Y-45083359D01*
X117866296Y-45063182D01*
X117883239Y-45048092D01*
X117892137Y-45040141D01*
X117892454Y-45039855D01*
X117911718Y-45022627D01*
X117940549Y-44997092D01*
X117977863Y-44964199D01*
X118022577Y-44924901D01*
X118073608Y-44880147D01*
X118129873Y-44830889D01*
X118190290Y-44778076D01*
X118253774Y-44722661D01*
X118254945Y-44721640D01*
X118463083Y-44540088D01*
X118466611Y-44392358D01*
X118467430Y-44348191D01*
X118467705Y-44308993D01*
X118467461Y-44276886D01*
X118466718Y-44253991D01*
X118465499Y-44242432D01*
X118465035Y-44241486D01*
X118458283Y-44244849D01*
X118443297Y-44256251D01*
X118422097Y-44274039D01*
X118396706Y-44296560D01*
X118388666Y-44303908D01*
X118357005Y-44332888D01*
X118323830Y-44363005D01*
X118293127Y-44390654D01*
X118269365Y-44411805D01*
X118250838Y-44428163D01*
X118223786Y-44452090D01*
X118190236Y-44481792D01*
X118152216Y-44515472D01*
X118111754Y-44551333D01*
X118077622Y-44581600D01*
X117980124Y-44667636D01*
X117887628Y-44748374D01*
X117800771Y-44823282D01*
X117720193Y-44891827D01*
X117646531Y-44953475D01*
X117580425Y-45007693D01*
X117522512Y-45053948D01*
X117473431Y-45091707D01*
X117433821Y-45120437D01*
X117425917Y-45125847D01*
X117404879Y-45139497D01*
X117387885Y-45148162D01*
X117370285Y-45153229D01*
X117347426Y-45156088D01*
X117318453Y-45157923D01*
X117265916Y-45163897D01*
X117222618Y-45176720D01*
X117184618Y-45198199D01*
X117147975Y-45230145D01*
X117137748Y-45240858D01*
X117101792Y-45287844D01*
X117079385Y-45336956D01*
X117069990Y-45389474D01*
X117069611Y-45403127D01*
X117069611Y-45403127D01*
G36*
X117616616Y-45379814D02*
X117667383Y-45427441D01*
X117692686Y-45452804D01*
X117716726Y-45479697D01*
X117735584Y-45503639D01*
X117740812Y-45511409D01*
X117761133Y-45541446D01*
X117778349Y-45559034D01*
X117794986Y-45564665D01*
X117813569Y-45558828D01*
X117836622Y-45542016D01*
X117847789Y-45532213D01*
X117897228Y-45486842D01*
X117936284Y-45449214D01*
X117965700Y-45418389D01*
X117986217Y-45393428D01*
X117998580Y-45373394D01*
X118003529Y-45357347D01*
X118001807Y-45344349D01*
X117999668Y-45340189D01*
X117989328Y-45332145D01*
X117968574Y-45322006D01*
X117940639Y-45311277D01*
X117929729Y-45307650D01*
X117869343Y-45283342D01*
X117826883Y-45257281D01*
X117806451Y-45242366D01*
X117790658Y-45231523D01*
X117782627Y-45226888D01*
X117782361Y-45226848D01*
X117776241Y-45231484D01*
X117761725Y-45244204D01*
X117740636Y-45263360D01*
X117714795Y-45287306D01*
X117697655Y-45303394D01*
X117616616Y-45379814D01*
X117616616Y-45379814D01*
X117616616Y-45379814D01*
G37*
X117616616Y-45379814D02*
X117667383Y-45427441D01*
X117692686Y-45452804D01*
X117716726Y-45479697D01*
X117735584Y-45503639D01*
X117740812Y-45511409D01*
X117761133Y-45541446D01*
X117778349Y-45559034D01*
X117794986Y-45564665D01*
X117813569Y-45558828D01*
X117836622Y-45542016D01*
X117847789Y-45532213D01*
X117897228Y-45486842D01*
X117936284Y-45449214D01*
X117965700Y-45418389D01*
X117986217Y-45393428D01*
X117998580Y-45373394D01*
X118003529Y-45357347D01*
X118001807Y-45344349D01*
X117999668Y-45340189D01*
X117989328Y-45332145D01*
X117968574Y-45322006D01*
X117940639Y-45311277D01*
X117929729Y-45307650D01*
X117869343Y-45283342D01*
X117826883Y-45257281D01*
X117806451Y-45242366D01*
X117790658Y-45231523D01*
X117782627Y-45226888D01*
X117782361Y-45226848D01*
X117776241Y-45231484D01*
X117761725Y-45244204D01*
X117740636Y-45263360D01*
X117714795Y-45287306D01*
X117697655Y-45303394D01*
X117616616Y-45379814D01*
X117616616Y-45379814D01*
G36*
X116735895Y-44550523D02*
X116850236Y-44660284D01*
X116885765Y-44694784D01*
X116919890Y-44728644D01*
X116950552Y-44759767D01*
X116975693Y-44786054D01*
X116993255Y-44805410D01*
X116996816Y-44809647D01*
X117010437Y-44824907D01*
X117031425Y-44846585D01*
X117058199Y-44873204D01*
X117089180Y-44903289D01*
X117122787Y-44935364D01*
X117157438Y-44967955D01*
X117191555Y-44999584D01*
X117223555Y-45028778D01*
X117251859Y-45054060D01*
X117274887Y-45073955D01*
X117291057Y-45086986D01*
X117298789Y-45091680D01*
X117298901Y-45091673D01*
X117309587Y-45090289D01*
X117328911Y-45087873D01*
X117341254Y-45086352D01*
X117370504Y-45079369D01*
X117396976Y-45067432D01*
X117401226Y-45064668D01*
X117427209Y-45045836D01*
X117453569Y-45025776D01*
X117477863Y-45006467D01*
X117497649Y-44989890D01*
X117510485Y-44978023D01*
X117514111Y-44973189D01*
X117508892Y-44965521D01*
X117494247Y-44950273D01*
X117471697Y-44928768D01*
X117442761Y-44902332D01*
X117408962Y-44872289D01*
X117371817Y-44839964D01*
X117332849Y-44806682D01*
X117293577Y-44773768D01*
X117255521Y-44742546D01*
X117220202Y-44714342D01*
X117193083Y-44693440D01*
X117124279Y-44641486D01*
X117065882Y-44597186D01*
X117016948Y-44559810D01*
X116976533Y-44528628D01*
X116943693Y-44502912D01*
X116917484Y-44481931D01*
X116896961Y-44464957D01*
X116893222Y-44461779D01*
X116871850Y-44443985D01*
X116854466Y-44430385D01*
X116843865Y-44423131D01*
X116842213Y-44422486D01*
X116836256Y-44428144D01*
X116827013Y-44442605D01*
X116822061Y-44451799D01*
X116808846Y-44472439D01*
X116789532Y-44496610D01*
X116771476Y-44515866D01*
X116735895Y-44550523D01*
X116735895Y-44550523D01*
X116735895Y-44550523D01*
G37*
X116735895Y-44550523D02*
X116850236Y-44660284D01*
X116885765Y-44694784D01*
X116919890Y-44728644D01*
X116950552Y-44759767D01*
X116975693Y-44786054D01*
X116993255Y-44805410D01*
X116996816Y-44809647D01*
X117010437Y-44824907D01*
X117031425Y-44846585D01*
X117058199Y-44873204D01*
X117089180Y-44903289D01*
X117122787Y-44935364D01*
X117157438Y-44967955D01*
X117191555Y-44999584D01*
X117223555Y-45028778D01*
X117251859Y-45054060D01*
X117274887Y-45073955D01*
X117291057Y-45086986D01*
X117298789Y-45091680D01*
X117298901Y-45091673D01*
X117309587Y-45090289D01*
X117328911Y-45087873D01*
X117341254Y-45086352D01*
X117370504Y-45079369D01*
X117396976Y-45067432D01*
X117401226Y-45064668D01*
X117427209Y-45045836D01*
X117453569Y-45025776D01*
X117477863Y-45006467D01*
X117497649Y-44989890D01*
X117510485Y-44978023D01*
X117514111Y-44973189D01*
X117508892Y-44965521D01*
X117494247Y-44950273D01*
X117471697Y-44928768D01*
X117442761Y-44902332D01*
X117408962Y-44872289D01*
X117371817Y-44839964D01*
X117332849Y-44806682D01*
X117293577Y-44773768D01*
X117255521Y-44742546D01*
X117220202Y-44714342D01*
X117193083Y-44693440D01*
X117124279Y-44641486D01*
X117065882Y-44597186D01*
X117016948Y-44559810D01*
X116976533Y-44528628D01*
X116943693Y-44502912D01*
X116917484Y-44481931D01*
X116896961Y-44464957D01*
X116893222Y-44461779D01*
X116871850Y-44443985D01*
X116854466Y-44430385D01*
X116843865Y-44423131D01*
X116842213Y-44422486D01*
X116836256Y-44428144D01*
X116827013Y-44442605D01*
X116822061Y-44451799D01*
X116808846Y-44472439D01*
X116789532Y-44496610D01*
X116771476Y-44515866D01*
X116735895Y-44550523D01*
X116735895Y-44550523D01*
G36*
X115757278Y-44393888D02*
X115763289Y-44405913D01*
X115777922Y-44413601D01*
X115796079Y-44415914D01*
X115812663Y-44411813D01*
X115819211Y-44406514D01*
X115825426Y-44395744D01*
X115834678Y-44376130D01*
X115844576Y-44352858D01*
X115883855Y-44270902D01*
X115930605Y-44200756D01*
X115958749Y-44167976D01*
X115979029Y-44145141D01*
X115995637Y-44124143D01*
X116005954Y-44108383D01*
X116007733Y-44104311D01*
X116018998Y-44081322D01*
X116034792Y-44066405D01*
X116047884Y-44062555D01*
X116061468Y-44065637D01*
X116081849Y-44073531D01*
X116095520Y-44079979D01*
X116121015Y-44091131D01*
X116152739Y-44102610D01*
X116179125Y-44110604D01*
X116201590Y-44117424D01*
X116221415Y-44125815D01*
X116241804Y-44137667D01*
X116265957Y-44154871D01*
X116297075Y-44179319D01*
X116301493Y-44182881D01*
X116332285Y-44207939D01*
X116362346Y-44232730D01*
X116388269Y-44254427D01*
X116406646Y-44270199D01*
X116406916Y-44270437D01*
X116449283Y-44307538D01*
X116482155Y-44335659D01*
X116506345Y-44355459D01*
X116522665Y-44367596D01*
X116531926Y-44372728D01*
X116533432Y-44373000D01*
X116542079Y-44368592D01*
X116558170Y-44356839D01*
X116578763Y-44339951D01*
X116586821Y-44332941D01*
X116609010Y-44312814D01*
X116622486Y-44298401D01*
X116629398Y-44286411D01*
X116631894Y-44273550D01*
X116632167Y-44263450D01*
X116631744Y-44251770D01*
X116629425Y-44241734D01*
X116623636Y-44231349D01*
X116612803Y-44218624D01*
X116595352Y-44201568D01*
X116569708Y-44178188D01*
X116552792Y-44163031D01*
X116518896Y-44132151D01*
X116483725Y-44099114D01*
X116448798Y-44065452D01*
X116415633Y-44032698D01*
X116385748Y-44002386D01*
X116360663Y-43976047D01*
X116341895Y-43955215D01*
X116330963Y-43941422D01*
X116328778Y-43936918D01*
X116324072Y-43927891D01*
X116312066Y-43913434D01*
X116303158Y-43904297D01*
X116288856Y-43889366D01*
X116281311Y-43876559D01*
X116278533Y-43860407D01*
X116278506Y-43836564D01*
X116283680Y-43795909D01*
X116296365Y-43760770D01*
X116315180Y-43734517D01*
X116323074Y-43727969D01*
X116339256Y-43719126D01*
X116361905Y-43709549D01*
X116372088Y-43705926D01*
X116390707Y-43698386D01*
X116405623Y-43688025D01*
X116420449Y-43671633D01*
X116437686Y-43647630D01*
X116452895Y-43623585D01*
X116464234Y-43602287D01*
X116469693Y-43587608D01*
X116469905Y-43585585D01*
X116463506Y-43562114D01*
X116446300Y-43537932D01*
X116421204Y-43515619D01*
X116391134Y-43497751D01*
X116359006Y-43486908D01*
X116358107Y-43486731D01*
X116346068Y-43485312D01*
X116335501Y-43487529D01*
X116323425Y-43495125D01*
X116306859Y-43509844D01*
X116289315Y-43526985D01*
X116269179Y-43548118D01*
X116253659Y-43566646D01*
X116245085Y-43579685D01*
X116244111Y-43582952D01*
X116241102Y-43595052D01*
X116233325Y-43614713D01*
X116225449Y-43631569D01*
X116205667Y-43661312D01*
X116182393Y-43679659D01*
X116157308Y-43685491D01*
X116146625Y-43683937D01*
X116125914Y-43685318D01*
X116100244Y-43697750D01*
X116071192Y-43719780D01*
X116040339Y-43749956D01*
X116009264Y-43786824D01*
X115979546Y-43828933D01*
X115967097Y-43849101D01*
X115953362Y-43873153D01*
X115937208Y-43902665D01*
X115919951Y-43935080D01*
X115902903Y-43967844D01*
X115887381Y-43998401D01*
X115874699Y-44024196D01*
X115866171Y-44042673D01*
X115863111Y-44051228D01*
X115860438Y-44059256D01*
X115853523Y-44076036D01*
X115846363Y-44092332D01*
X115834337Y-44121713D01*
X115820932Y-44158788D01*
X115806974Y-44200760D01*
X115793290Y-44244829D01*
X115780707Y-44288195D01*
X115770053Y-44328061D01*
X115762153Y-44361626D01*
X115757836Y-44386092D01*
X115757278Y-44393888D01*
X115757278Y-44393888D01*
X115757278Y-44393888D01*
G37*
X115757278Y-44393888D02*
X115763289Y-44405913D01*
X115777922Y-44413601D01*
X115796079Y-44415914D01*
X115812663Y-44411813D01*
X115819211Y-44406514D01*
X115825426Y-44395744D01*
X115834678Y-44376130D01*
X115844576Y-44352858D01*
X115883855Y-44270902D01*
X115930605Y-44200756D01*
X115958749Y-44167976D01*
X115979029Y-44145141D01*
X115995637Y-44124143D01*
X116005954Y-44108383D01*
X116007733Y-44104311D01*
X116018998Y-44081322D01*
X116034792Y-44066405D01*
X116047884Y-44062555D01*
X116061468Y-44065637D01*
X116081849Y-44073531D01*
X116095520Y-44079979D01*
X116121015Y-44091131D01*
X116152739Y-44102610D01*
X116179125Y-44110604D01*
X116201590Y-44117424D01*
X116221415Y-44125815D01*
X116241804Y-44137667D01*
X116265957Y-44154871D01*
X116297075Y-44179319D01*
X116301493Y-44182881D01*
X116332285Y-44207939D01*
X116362346Y-44232730D01*
X116388269Y-44254427D01*
X116406646Y-44270199D01*
X116406916Y-44270437D01*
X116449283Y-44307538D01*
X116482155Y-44335659D01*
X116506345Y-44355459D01*
X116522665Y-44367596D01*
X116531926Y-44372728D01*
X116533432Y-44373000D01*
X116542079Y-44368592D01*
X116558170Y-44356839D01*
X116578763Y-44339951D01*
X116586821Y-44332941D01*
X116609010Y-44312814D01*
X116622486Y-44298401D01*
X116629398Y-44286411D01*
X116631894Y-44273550D01*
X116632167Y-44263450D01*
X116631744Y-44251770D01*
X116629425Y-44241734D01*
X116623636Y-44231349D01*
X116612803Y-44218624D01*
X116595352Y-44201568D01*
X116569708Y-44178188D01*
X116552792Y-44163031D01*
X116518896Y-44132151D01*
X116483725Y-44099114D01*
X116448798Y-44065452D01*
X116415633Y-44032698D01*
X116385748Y-44002386D01*
X116360663Y-43976047D01*
X116341895Y-43955215D01*
X116330963Y-43941422D01*
X116328778Y-43936918D01*
X116324072Y-43927891D01*
X116312066Y-43913434D01*
X116303158Y-43904297D01*
X116288856Y-43889366D01*
X116281311Y-43876559D01*
X116278533Y-43860407D01*
X116278506Y-43836564D01*
X116283680Y-43795909D01*
X116296365Y-43760770D01*
X116315180Y-43734517D01*
X116323074Y-43727969D01*
X116339256Y-43719126D01*
X116361905Y-43709549D01*
X116372088Y-43705926D01*
X116390707Y-43698386D01*
X116405623Y-43688025D01*
X116420449Y-43671633D01*
X116437686Y-43647630D01*
X116452895Y-43623585D01*
X116464234Y-43602287D01*
X116469693Y-43587608D01*
X116469905Y-43585585D01*
X116463506Y-43562114D01*
X116446300Y-43537932D01*
X116421204Y-43515619D01*
X116391134Y-43497751D01*
X116359006Y-43486908D01*
X116358107Y-43486731D01*
X116346068Y-43485312D01*
X116335501Y-43487529D01*
X116323425Y-43495125D01*
X116306859Y-43509844D01*
X116289315Y-43526985D01*
X116269179Y-43548118D01*
X116253659Y-43566646D01*
X116245085Y-43579685D01*
X116244111Y-43582952D01*
X116241102Y-43595052D01*
X116233325Y-43614713D01*
X116225449Y-43631569D01*
X116205667Y-43661312D01*
X116182393Y-43679659D01*
X116157308Y-43685491D01*
X116146625Y-43683937D01*
X116125914Y-43685318D01*
X116100244Y-43697750D01*
X116071192Y-43719780D01*
X116040339Y-43749956D01*
X116009264Y-43786824D01*
X115979546Y-43828933D01*
X115967097Y-43849101D01*
X115953362Y-43873153D01*
X115937208Y-43902665D01*
X115919951Y-43935080D01*
X115902903Y-43967844D01*
X115887381Y-43998401D01*
X115874699Y-44024196D01*
X115866171Y-44042673D01*
X115863111Y-44051228D01*
X115860438Y-44059256D01*
X115853523Y-44076036D01*
X115846363Y-44092332D01*
X115834337Y-44121713D01*
X115820932Y-44158788D01*
X115806974Y-44200760D01*
X115793290Y-44244829D01*
X115780707Y-44288195D01*
X115770053Y-44328061D01*
X115762153Y-44361626D01*
X115757836Y-44386092D01*
X115757278Y-44393888D01*
X115757278Y-44393888D01*
G36*
X118678278Y-44191957D02*
X118678412Y-44243237D01*
X118678885Y-44282012D01*
X118679801Y-44309887D01*
X118681266Y-44328465D01*
X118683384Y-44339352D01*
X118686260Y-44344151D01*
X118688273Y-44344778D01*
X118698822Y-44341592D01*
X118700621Y-44339445D01*
X118706621Y-44333189D01*
X118721511Y-44319613D01*
X118743316Y-44300402D01*
X118770061Y-44277240D01*
X118799772Y-44251813D01*
X118830472Y-44225805D01*
X118860188Y-44200901D01*
X118886945Y-44178785D01*
X118908767Y-44161143D01*
X118918929Y-44153208D01*
X118937322Y-44139803D01*
X118951355Y-44132892D01*
X118966677Y-44131047D01*
X118988936Y-44132842D01*
X118996199Y-44133686D01*
X119046274Y-44135445D01*
X119094776Y-44129597D01*
X119136428Y-44116822D01*
X119140264Y-44115072D01*
X119167309Y-44097229D01*
X119195783Y-44070330D01*
X119222135Y-44038524D01*
X119242813Y-44005958D01*
X119252203Y-43984341D01*
X119264443Y-43940805D01*
X119269017Y-43908215D01*
X119265675Y-43885510D01*
X119254163Y-43871629D01*
X119234231Y-43865511D01*
X119223871Y-43865000D01*
X119209757Y-43866669D01*
X119195160Y-43872854D01*
X119177074Y-43885322D01*
X119152496Y-43905840D01*
X119148528Y-43909314D01*
X119119681Y-43934700D01*
X119099349Y-43952027D01*
X119085240Y-43962307D01*
X119075059Y-43966551D01*
X119066513Y-43965773D01*
X119057310Y-43960983D01*
X119046785Y-43954216D01*
X119018434Y-43928389D01*
X119001042Y-43894633D01*
X118995778Y-43859266D01*
X118996417Y-43846847D01*
X118999482Y-43836040D01*
X119006694Y-43824504D01*
X119019776Y-43809897D01*
X119040450Y-43789877D01*
X119060451Y-43771305D01*
X119125124Y-43711640D01*
X119104877Y-43698362D01*
X119088060Y-43690631D01*
X119063944Y-43685682D01*
X119029369Y-43682903D01*
X119023852Y-43682665D01*
X118992364Y-43681929D01*
X118969527Y-43683340D01*
X118949934Y-43687837D01*
X118928178Y-43696356D01*
X118917690Y-43701086D01*
X118871390Y-43725350D01*
X118835163Y-43752042D01*
X118807435Y-43783449D01*
X118786629Y-43821857D01*
X118771172Y-43869553D01*
X118759487Y-43928824D01*
X118759097Y-43931333D01*
X118753176Y-43950996D01*
X118740213Y-43971888D01*
X118718060Y-43997424D01*
X118716563Y-43998999D01*
X118678278Y-44039137D01*
X118678278Y-44191957D01*
X118678278Y-44191957D01*
X118678278Y-44191957D01*
G37*
X118678278Y-44191957D02*
X118678412Y-44243237D01*
X118678885Y-44282012D01*
X118679801Y-44309887D01*
X118681266Y-44328465D01*
X118683384Y-44339352D01*
X118686260Y-44344151D01*
X118688273Y-44344778D01*
X118698822Y-44341592D01*
X118700621Y-44339445D01*
X118706621Y-44333189D01*
X118721511Y-44319613D01*
X118743316Y-44300402D01*
X118770061Y-44277240D01*
X118799772Y-44251813D01*
X118830472Y-44225805D01*
X118860188Y-44200901D01*
X118886945Y-44178785D01*
X118908767Y-44161143D01*
X118918929Y-44153208D01*
X118937322Y-44139803D01*
X118951355Y-44132892D01*
X118966677Y-44131047D01*
X118988936Y-44132842D01*
X118996199Y-44133686D01*
X119046274Y-44135445D01*
X119094776Y-44129597D01*
X119136428Y-44116822D01*
X119140264Y-44115072D01*
X119167309Y-44097229D01*
X119195783Y-44070330D01*
X119222135Y-44038524D01*
X119242813Y-44005958D01*
X119252203Y-43984341D01*
X119264443Y-43940805D01*
X119269017Y-43908215D01*
X119265675Y-43885510D01*
X119254163Y-43871629D01*
X119234231Y-43865511D01*
X119223871Y-43865000D01*
X119209757Y-43866669D01*
X119195160Y-43872854D01*
X119177074Y-43885322D01*
X119152496Y-43905840D01*
X119148528Y-43909314D01*
X119119681Y-43934700D01*
X119099349Y-43952027D01*
X119085240Y-43962307D01*
X119075059Y-43966551D01*
X119066513Y-43965773D01*
X119057310Y-43960983D01*
X119046785Y-43954216D01*
X119018434Y-43928389D01*
X119001042Y-43894633D01*
X118995778Y-43859266D01*
X118996417Y-43846847D01*
X118999482Y-43836040D01*
X119006694Y-43824504D01*
X119019776Y-43809897D01*
X119040450Y-43789877D01*
X119060451Y-43771305D01*
X119125124Y-43711640D01*
X119104877Y-43698362D01*
X119088060Y-43690631D01*
X119063944Y-43685682D01*
X119029369Y-43682903D01*
X119023852Y-43682665D01*
X118992364Y-43681929D01*
X118969527Y-43683340D01*
X118949934Y-43687837D01*
X118928178Y-43696356D01*
X118917690Y-43701086D01*
X118871390Y-43725350D01*
X118835163Y-43752042D01*
X118807435Y-43783449D01*
X118786629Y-43821857D01*
X118771172Y-43869553D01*
X118759487Y-43928824D01*
X118759097Y-43931333D01*
X118753176Y-43950996D01*
X118740213Y-43971888D01*
X118718060Y-43997424D01*
X118716563Y-43998999D01*
X118678278Y-44039137D01*
X118678278Y-44191957D01*
X118678278Y-44191957D01*
D13*
G36*
X122824380Y-36899740D02*
X122788820Y-36879420D01*
X122710080Y-36831160D01*
X122598320Y-36757500D01*
X122466240Y-36671140D01*
X122334160Y-36579700D01*
X122224940Y-36508580D01*
X122148740Y-36457780D01*
X122118260Y-36440000D01*
X122100480Y-36447620D01*
X122036980Y-36478100D01*
X121948080Y-36523820D01*
X121894740Y-36551760D01*
X121810920Y-36587320D01*
X121767740Y-36594940D01*
X121762660Y-36584780D01*
X121732180Y-36521280D01*
X121683920Y-36412060D01*
X121620420Y-36267280D01*
X121546760Y-36097100D01*
X121470560Y-35914220D01*
X121391820Y-35728800D01*
X121318160Y-35551000D01*
X121254660Y-35390980D01*
X121201320Y-35258900D01*
X121165760Y-35170000D01*
X121153060Y-35131900D01*
X121158140Y-35121740D01*
X121198780Y-35081100D01*
X121272440Y-35027760D01*
X121429920Y-34898220D01*
X121587400Y-34705180D01*
X121681380Y-34484200D01*
X121714400Y-34237820D01*
X121686460Y-34009220D01*
X121597560Y-33790780D01*
X121445160Y-33595200D01*
X121259740Y-33447880D01*
X121043840Y-33356440D01*
X120800000Y-33325960D01*
X120568860Y-33351360D01*
X120345340Y-33440260D01*
X120147220Y-33590120D01*
X120063400Y-33686640D01*
X119949100Y-33884760D01*
X119885600Y-34098120D01*
X119877980Y-34154000D01*
X119888140Y-34387680D01*
X119956720Y-34611200D01*
X120081180Y-34811860D01*
X120251360Y-34976960D01*
X120274220Y-34992200D01*
X120352960Y-35053160D01*
X120406300Y-35093800D01*
X120449480Y-35126820D01*
X120149760Y-35845640D01*
X120101500Y-35959940D01*
X120020220Y-36158060D01*
X119949100Y-36325700D01*
X119890680Y-36460320D01*
X119850040Y-36551760D01*
X119832260Y-36587320D01*
X119832260Y-36589860D01*
X119804320Y-36594940D01*
X119750980Y-36574620D01*
X119649380Y-36526360D01*
X119583340Y-36490800D01*
X119507140Y-36455240D01*
X119471580Y-36440000D01*
X119443640Y-36457780D01*
X119369980Y-36503500D01*
X119263300Y-36574620D01*
X119133760Y-36663520D01*
X119011840Y-36747340D01*
X118900080Y-36821000D01*
X118818800Y-36874340D01*
X118778160Y-36894660D01*
X118773080Y-36894660D01*
X118737520Y-36874340D01*
X118671480Y-36821000D01*
X118574960Y-36729560D01*
X118435260Y-36592400D01*
X118414940Y-36569540D01*
X118300640Y-36455240D01*
X118209200Y-36358720D01*
X118145700Y-36287600D01*
X118122840Y-36257120D01*
X118122840Y-36257120D01*
X118143160Y-36219020D01*
X118196500Y-36135200D01*
X118270160Y-36020900D01*
X118361600Y-35888820D01*
X118600360Y-35543380D01*
X118468280Y-35215720D01*
X118427640Y-35116660D01*
X118376840Y-34994740D01*
X118338740Y-34908380D01*
X118320960Y-34870280D01*
X118285400Y-34857580D01*
X118196500Y-34837260D01*
X118066960Y-34809320D01*
X117912020Y-34781380D01*
X117764700Y-34753440D01*
X117632620Y-34728040D01*
X117536100Y-34710260D01*
X117492920Y-34702640D01*
X117482760Y-34695020D01*
X117472600Y-34674700D01*
X117467520Y-34628980D01*
X117464980Y-34547700D01*
X117462440Y-34420700D01*
X117462440Y-34237820D01*
X117462440Y-34217500D01*
X117464980Y-34042240D01*
X117467520Y-33902540D01*
X117472600Y-33811100D01*
X117477680Y-33775540D01*
X117477680Y-33775540D01*
X117520860Y-33765380D01*
X117614840Y-33745060D01*
X117746920Y-33719660D01*
X117904400Y-33689180D01*
X117914560Y-33686640D01*
X118072040Y-33656160D01*
X118206660Y-33628220D01*
X118298100Y-33607900D01*
X118336200Y-33595200D01*
X118346360Y-33585040D01*
X118376840Y-33521540D01*
X118422560Y-33425020D01*
X118475900Y-33305640D01*
X118526700Y-33181180D01*
X118569880Y-33069420D01*
X118600360Y-32985600D01*
X118610520Y-32947500D01*
X118610520Y-32947500D01*
X118585120Y-32909400D01*
X118531780Y-32828120D01*
X118455580Y-32713820D01*
X118361600Y-32579200D01*
X118356520Y-32569040D01*
X118265080Y-32436960D01*
X118191420Y-32322660D01*
X118143160Y-32241380D01*
X118122840Y-32205820D01*
X118125380Y-32203280D01*
X118153320Y-32165180D01*
X118221900Y-32088980D01*
X118318420Y-31987380D01*
X118435260Y-31868000D01*
X118473360Y-31832440D01*
X118602900Y-31705440D01*
X118694340Y-31621620D01*
X118750220Y-31578440D01*
X118775620Y-31568280D01*
X118778160Y-31568280D01*
X118818800Y-31593680D01*
X118902620Y-31649560D01*
X119016920Y-31725760D01*
X119151540Y-31817200D01*
X119161700Y-31824820D01*
X119293780Y-31916260D01*
X119405540Y-31989920D01*
X119484280Y-32043260D01*
X119519840Y-32063580D01*
X119524920Y-32063580D01*
X119580800Y-32048340D01*
X119674780Y-32015320D01*
X119791620Y-31969600D01*
X119916080Y-31918800D01*
X120027840Y-31873080D01*
X120111660Y-31834980D01*
X120149760Y-31812120D01*
X120152300Y-31809580D01*
X120165000Y-31761320D01*
X120187860Y-31662260D01*
X120218340Y-31525100D01*
X120248820Y-31360000D01*
X120253900Y-31334600D01*
X120284380Y-31174580D01*
X120309780Y-31045040D01*
X120327560Y-30953600D01*
X120337720Y-30915500D01*
X120360580Y-30910420D01*
X120436780Y-30905340D01*
X120556160Y-30902800D01*
X120698400Y-30900260D01*
X120850800Y-30900260D01*
X120998120Y-30905340D01*
X121122580Y-30907880D01*
X121214020Y-30915500D01*
X121252120Y-30923120D01*
X121252120Y-30925660D01*
X121267360Y-30973920D01*
X121287680Y-31072980D01*
X121315620Y-31212680D01*
X121348640Y-31375240D01*
X121353720Y-31405720D01*
X121384200Y-31563200D01*
X121409600Y-31692740D01*
X121429920Y-31784180D01*
X121440080Y-31819740D01*
X121452780Y-31827360D01*
X121518820Y-31855300D01*
X121625500Y-31898480D01*
X121757580Y-31951820D01*
X122062380Y-32076280D01*
X122438300Y-31819740D01*
X122471320Y-31796880D01*
X122605940Y-31702900D01*
X122717700Y-31629240D01*
X122793900Y-31580980D01*
X122826920Y-31563200D01*
X122829460Y-31563200D01*
X122867560Y-31596220D01*
X122941220Y-31664800D01*
X123042820Y-31763860D01*
X123159660Y-31883240D01*
X123248560Y-31969600D01*
X123350160Y-32073740D01*
X123416200Y-32144860D01*
X123451760Y-32190580D01*
X123464460Y-32218520D01*
X123461920Y-32236300D01*
X123436520Y-32274400D01*
X123383180Y-32358220D01*
X123304440Y-32469980D01*
X123213000Y-32604600D01*
X123139340Y-32713820D01*
X123058060Y-32840820D01*
X123004720Y-32929720D01*
X122986940Y-32972900D01*
X122992020Y-32993220D01*
X123017420Y-33064340D01*
X123060600Y-33176100D01*
X123119020Y-33308180D01*
X123248560Y-33605360D01*
X123441600Y-33643460D01*
X123560980Y-33663780D01*
X123726080Y-33696800D01*
X123883560Y-33727280D01*
X124129940Y-33775540D01*
X124137560Y-34679780D01*
X124099460Y-34695020D01*
X124063900Y-34705180D01*
X123972460Y-34725500D01*
X123842920Y-34750900D01*
X123687980Y-34778840D01*
X123558440Y-34804240D01*
X123426360Y-34829640D01*
X123329840Y-34847420D01*
X123289200Y-34857580D01*
X123279040Y-34870280D01*
X123246020Y-34933780D01*
X123197760Y-35035380D01*
X123146960Y-35157300D01*
X123093620Y-35284300D01*
X123047900Y-35401140D01*
X123014880Y-35490040D01*
X123002180Y-35538300D01*
X123019960Y-35571320D01*
X123070760Y-35650060D01*
X123141880Y-35759280D01*
X123233320Y-35891360D01*
X123322220Y-36020900D01*
X123398420Y-36135200D01*
X123449220Y-36213940D01*
X123472080Y-36252040D01*
X123461920Y-36277440D01*
X123408580Y-36340940D01*
X123309520Y-36442540D01*
X123162200Y-36587320D01*
X123139340Y-36610180D01*
X123022500Y-36724480D01*
X122923440Y-36815920D01*
X122854860Y-36876880D01*
X122824380Y-36899740D01*
X122824380Y-36899740D01*
G37*
X122824380Y-36899740D02*
X122788820Y-36879420D01*
X122710080Y-36831160D01*
X122598320Y-36757500D01*
X122466240Y-36671140D01*
X122334160Y-36579700D01*
X122224940Y-36508580D01*
X122148740Y-36457780D01*
X122118260Y-36440000D01*
X122100480Y-36447620D01*
X122036980Y-36478100D01*
X121948080Y-36523820D01*
X121894740Y-36551760D01*
X121810920Y-36587320D01*
X121767740Y-36594940D01*
X121762660Y-36584780D01*
X121732180Y-36521280D01*
X121683920Y-36412060D01*
X121620420Y-36267280D01*
X121546760Y-36097100D01*
X121470560Y-35914220D01*
X121391820Y-35728800D01*
X121318160Y-35551000D01*
X121254660Y-35390980D01*
X121201320Y-35258900D01*
X121165760Y-35170000D01*
X121153060Y-35131900D01*
X121158140Y-35121740D01*
X121198780Y-35081100D01*
X121272440Y-35027760D01*
X121429920Y-34898220D01*
X121587400Y-34705180D01*
X121681380Y-34484200D01*
X121714400Y-34237820D01*
X121686460Y-34009220D01*
X121597560Y-33790780D01*
X121445160Y-33595200D01*
X121259740Y-33447880D01*
X121043840Y-33356440D01*
X120800000Y-33325960D01*
X120568860Y-33351360D01*
X120345340Y-33440260D01*
X120147220Y-33590120D01*
X120063400Y-33686640D01*
X119949100Y-33884760D01*
X119885600Y-34098120D01*
X119877980Y-34154000D01*
X119888140Y-34387680D01*
X119956720Y-34611200D01*
X120081180Y-34811860D01*
X120251360Y-34976960D01*
X120274220Y-34992200D01*
X120352960Y-35053160D01*
X120406300Y-35093800D01*
X120449480Y-35126820D01*
X120149760Y-35845640D01*
X120101500Y-35959940D01*
X120020220Y-36158060D01*
X119949100Y-36325700D01*
X119890680Y-36460320D01*
X119850040Y-36551760D01*
X119832260Y-36587320D01*
X119832260Y-36589860D01*
X119804320Y-36594940D01*
X119750980Y-36574620D01*
X119649380Y-36526360D01*
X119583340Y-36490800D01*
X119507140Y-36455240D01*
X119471580Y-36440000D01*
X119443640Y-36457780D01*
X119369980Y-36503500D01*
X119263300Y-36574620D01*
X119133760Y-36663520D01*
X119011840Y-36747340D01*
X118900080Y-36821000D01*
X118818800Y-36874340D01*
X118778160Y-36894660D01*
X118773080Y-36894660D01*
X118737520Y-36874340D01*
X118671480Y-36821000D01*
X118574960Y-36729560D01*
X118435260Y-36592400D01*
X118414940Y-36569540D01*
X118300640Y-36455240D01*
X118209200Y-36358720D01*
X118145700Y-36287600D01*
X118122840Y-36257120D01*
X118122840Y-36257120D01*
X118143160Y-36219020D01*
X118196500Y-36135200D01*
X118270160Y-36020900D01*
X118361600Y-35888820D01*
X118600360Y-35543380D01*
X118468280Y-35215720D01*
X118427640Y-35116660D01*
X118376840Y-34994740D01*
X118338740Y-34908380D01*
X118320960Y-34870280D01*
X118285400Y-34857580D01*
X118196500Y-34837260D01*
X118066960Y-34809320D01*
X117912020Y-34781380D01*
X117764700Y-34753440D01*
X117632620Y-34728040D01*
X117536100Y-34710260D01*
X117492920Y-34702640D01*
X117482760Y-34695020D01*
X117472600Y-34674700D01*
X117467520Y-34628980D01*
X117464980Y-34547700D01*
X117462440Y-34420700D01*
X117462440Y-34237820D01*
X117462440Y-34217500D01*
X117464980Y-34042240D01*
X117467520Y-33902540D01*
X117472600Y-33811100D01*
X117477680Y-33775540D01*
X117477680Y-33775540D01*
X117520860Y-33765380D01*
X117614840Y-33745060D01*
X117746920Y-33719660D01*
X117904400Y-33689180D01*
X117914560Y-33686640D01*
X118072040Y-33656160D01*
X118206660Y-33628220D01*
X118298100Y-33607900D01*
X118336200Y-33595200D01*
X118346360Y-33585040D01*
X118376840Y-33521540D01*
X118422560Y-33425020D01*
X118475900Y-33305640D01*
X118526700Y-33181180D01*
X118569880Y-33069420D01*
X118600360Y-32985600D01*
X118610520Y-32947500D01*
X118610520Y-32947500D01*
X118585120Y-32909400D01*
X118531780Y-32828120D01*
X118455580Y-32713820D01*
X118361600Y-32579200D01*
X118356520Y-32569040D01*
X118265080Y-32436960D01*
X118191420Y-32322660D01*
X118143160Y-32241380D01*
X118122840Y-32205820D01*
X118125380Y-32203280D01*
X118153320Y-32165180D01*
X118221900Y-32088980D01*
X118318420Y-31987380D01*
X118435260Y-31868000D01*
X118473360Y-31832440D01*
X118602900Y-31705440D01*
X118694340Y-31621620D01*
X118750220Y-31578440D01*
X118775620Y-31568280D01*
X118778160Y-31568280D01*
X118818800Y-31593680D01*
X118902620Y-31649560D01*
X119016920Y-31725760D01*
X119151540Y-31817200D01*
X119161700Y-31824820D01*
X119293780Y-31916260D01*
X119405540Y-31989920D01*
X119484280Y-32043260D01*
X119519840Y-32063580D01*
X119524920Y-32063580D01*
X119580800Y-32048340D01*
X119674780Y-32015320D01*
X119791620Y-31969600D01*
X119916080Y-31918800D01*
X120027840Y-31873080D01*
X120111660Y-31834980D01*
X120149760Y-31812120D01*
X120152300Y-31809580D01*
X120165000Y-31761320D01*
X120187860Y-31662260D01*
X120218340Y-31525100D01*
X120248820Y-31360000D01*
X120253900Y-31334600D01*
X120284380Y-31174580D01*
X120309780Y-31045040D01*
X120327560Y-30953600D01*
X120337720Y-30915500D01*
X120360580Y-30910420D01*
X120436780Y-30905340D01*
X120556160Y-30902800D01*
X120698400Y-30900260D01*
X120850800Y-30900260D01*
X120998120Y-30905340D01*
X121122580Y-30907880D01*
X121214020Y-30915500D01*
X121252120Y-30923120D01*
X121252120Y-30925660D01*
X121267360Y-30973920D01*
X121287680Y-31072980D01*
X121315620Y-31212680D01*
X121348640Y-31375240D01*
X121353720Y-31405720D01*
X121384200Y-31563200D01*
X121409600Y-31692740D01*
X121429920Y-31784180D01*
X121440080Y-31819740D01*
X121452780Y-31827360D01*
X121518820Y-31855300D01*
X121625500Y-31898480D01*
X121757580Y-31951820D01*
X122062380Y-32076280D01*
X122438300Y-31819740D01*
X122471320Y-31796880D01*
X122605940Y-31702900D01*
X122717700Y-31629240D01*
X122793900Y-31580980D01*
X122826920Y-31563200D01*
X122829460Y-31563200D01*
X122867560Y-31596220D01*
X122941220Y-31664800D01*
X123042820Y-31763860D01*
X123159660Y-31883240D01*
X123248560Y-31969600D01*
X123350160Y-32073740D01*
X123416200Y-32144860D01*
X123451760Y-32190580D01*
X123464460Y-32218520D01*
X123461920Y-32236300D01*
X123436520Y-32274400D01*
X123383180Y-32358220D01*
X123304440Y-32469980D01*
X123213000Y-32604600D01*
X123139340Y-32713820D01*
X123058060Y-32840820D01*
X123004720Y-32929720D01*
X122986940Y-32972900D01*
X122992020Y-32993220D01*
X123017420Y-33064340D01*
X123060600Y-33176100D01*
X123119020Y-33308180D01*
X123248560Y-33605360D01*
X123441600Y-33643460D01*
X123560980Y-33663780D01*
X123726080Y-33696800D01*
X123883560Y-33727280D01*
X124129940Y-33775540D01*
X124137560Y-34679780D01*
X124099460Y-34695020D01*
X124063900Y-34705180D01*
X123972460Y-34725500D01*
X123842920Y-34750900D01*
X123687980Y-34778840D01*
X123558440Y-34804240D01*
X123426360Y-34829640D01*
X123329840Y-34847420D01*
X123289200Y-34857580D01*
X123279040Y-34870280D01*
X123246020Y-34933780D01*
X123197760Y-35035380D01*
X123146960Y-35157300D01*
X123093620Y-35284300D01*
X123047900Y-35401140D01*
X123014880Y-35490040D01*
X123002180Y-35538300D01*
X123019960Y-35571320D01*
X123070760Y-35650060D01*
X123141880Y-35759280D01*
X123233320Y-35891360D01*
X123322220Y-36020900D01*
X123398420Y-36135200D01*
X123449220Y-36213940D01*
X123472080Y-36252040D01*
X123461920Y-36277440D01*
X123408580Y-36340940D01*
X123309520Y-36442540D01*
X123162200Y-36587320D01*
X123139340Y-36610180D01*
X123022500Y-36724480D01*
X122923440Y-36815920D01*
X122854860Y-36876880D01*
X122824380Y-36899740D01*
D12*
X115462000Y-34492000D02*
X114954000Y-33730000D01*
X115462000Y-36270000D02*
X115462000Y-33666500D01*
X115462000Y-33666500D02*
X113938000Y-33666500D01*
X113938000Y-33666500D02*
X113938000Y-36270000D01*
X113938000Y-36270000D02*
X115462000Y-36270000D01*
D10*
X122190476Y-41261905D02*
X122190476Y-40461905D01*
X122190476Y-40842857D02*
X121733333Y-40842857D01*
X121733333Y-41261905D02*
X121733333Y-40461905D01*
X120933333Y-41261905D02*
X121390476Y-41261905D01*
X121161905Y-41261905D02*
X121161905Y-40461905D01*
X121238095Y-40576190D01*
X121314286Y-40652381D01*
X121390476Y-40690476D01*
X120438095Y-40461905D02*
X120361904Y-40461905D01*
X120285714Y-40500000D01*
X120247619Y-40538095D01*
X120209523Y-40614286D01*
X120171428Y-40766667D01*
X120171428Y-40957143D01*
X120209523Y-41109524D01*
X120247619Y-41185714D01*
X120285714Y-41223810D01*
X120361904Y-41261905D01*
X120438095Y-41261905D01*
X120514285Y-41223810D01*
X120552381Y-41185714D01*
X120590476Y-41109524D01*
X120628571Y-40957143D01*
X120628571Y-40766667D01*
X120590476Y-40614286D01*
X120552381Y-40538095D01*
X120514285Y-40500000D01*
X120438095Y-40461905D01*
X116590476Y-33261905D02*
X116590476Y-32461905D01*
X116400000Y-32461905D01*
X116285714Y-32500000D01*
X116209523Y-32576190D01*
X116171428Y-32652381D01*
X116133333Y-32804762D01*
X116133333Y-32919048D01*
X116171428Y-33071429D01*
X116209523Y-33147619D01*
X116285714Y-33223810D01*
X116400000Y-33261905D01*
X116590476Y-33261905D01*
X115371428Y-33261905D02*
X115828571Y-33261905D01*
X115600000Y-33261905D02*
X115600000Y-32461905D01*
X115676190Y-32576190D01*
X115752381Y-32652381D01*
X115828571Y-32690476D01*
%LPC*%
D14*
X120802000Y-31583000D03*
X114198000Y-31583000D03*
D15*
X123850000Y-39000000D03*
X121310000Y-39000000D03*
D16*
X118770000Y-39000000D03*
X116230000Y-39000000D03*
X113690000Y-39000000D03*
X111150000Y-39000000D03*
D17*
X113430000Y-34047500D03*
X113430000Y-35000000D03*
X113430000Y-35952500D03*
X115970000Y-35952500D03*
X115970000Y-35000000D03*
X115970000Y-34047500D03*
M02*
