%FSLAX45Y45*%
G04 Gerber Fmt 4.5, Leading zero omitted, Abs format (unit mm)*
G04 Created by KiCad (PCBNEW (2014-12-01 BZR 5309)-product) date Wed Dec  3 13:36:32 2014*
%MOMM*%
G01*
G04 APERTURE LIST*
%ADD10C,0.127000*%
%ADD11C,0.100000*%
%ADD12C,0.200000*%
%ADD13C,0.300000*%
G04 APERTURE END LIST*
D10*
D11*
X11000000Y-3200000D02*
X11000000Y-4900000D01*
X12500000Y-4900000D02*
X12500000Y-4600000D01*
X11000000Y-4900000D02*
X12500000Y-4900000D01*
X12500000Y-4600000D02*
X12500000Y-4400000D01*
X12500000Y-4400000D02*
X12500000Y-3200000D01*
X12300000Y-3000000D02*
X11200000Y-3000000D01*
X12500000Y-3200000D02*
G75*
G03X12300000Y-3000000I-200000J0D01*
G01*
X11200000Y-3000000D02*
G75*
G03X11000000Y-3200000I0J-200000D01*
G01*
D12*
X11178250Y-3468250D02*
X11241750Y-3531750D01*
X11241750Y-3468250D02*
X11178250Y-3531750D01*
X11335750Y-4773250D02*
X11399250Y-4836750D01*
X11399250Y-4773250D02*
X11335750Y-4836750D01*
X11698250Y-3548250D02*
X11761750Y-3611750D01*
X11761750Y-3548250D02*
X11698250Y-3611750D01*
X11703250Y-4795750D02*
X11766750Y-4859250D01*
X11766750Y-4795750D02*
X11703250Y-4859250D01*
X11758250Y-3668250D02*
X11821750Y-3731750D01*
X11821750Y-3668250D02*
X11758250Y-3731750D01*
X11820750Y-4795750D02*
X11884250Y-4859250D01*
X11884250Y-4795750D02*
X11820750Y-4859250D01*
X12160750Y-4653250D02*
X12224250Y-4716750D01*
X12224250Y-4653250D02*
X12160750Y-4716750D01*
X11165800Y-3900000D02*
G75*
G03X11165800Y-3900000I-50800J0D01*
G01*
X11419800Y-3900000D02*
G75*
G03X11419800Y-3900000I-50800J0D01*
G01*
X11673800Y-3900000D02*
G75*
G03X11673800Y-3900000I-50800J0D01*
G01*
X11927800Y-3900000D02*
G75*
G03X11927800Y-3900000I-50800J0D01*
G01*
X12181800Y-3900000D02*
G75*
G03X12181800Y-3900000I-50800J0D01*
G01*
X12435800Y-3900000D02*
G75*
G03X12435800Y-3900000I-50800J0D01*
G01*
X11419800Y-3094800D02*
X11419800Y-3221800D01*
X11356300Y-3158300D02*
X11483300Y-3158300D01*
X12080200Y-3094800D02*
X12080200Y-3221800D01*
X12016700Y-3158300D02*
X12143700Y-3158300D01*
D13*
X11266428Y-5370714D02*
X11266428Y-5070714D01*
X11337857Y-5070714D01*
X11380714Y-5085000D01*
X11409286Y-5113572D01*
X11423571Y-5142143D01*
X11437857Y-5199286D01*
X11437857Y-5242143D01*
X11423571Y-5299286D01*
X11409286Y-5327857D01*
X11380714Y-5356429D01*
X11337857Y-5370714D01*
X11266428Y-5370714D01*
X11566428Y-5370714D02*
X11566428Y-5170714D01*
X11566428Y-5227857D02*
X11580714Y-5199286D01*
X11595000Y-5185000D01*
X11623571Y-5170714D01*
X11652143Y-5170714D01*
X11752143Y-5370714D02*
X11752143Y-5170714D01*
X11752143Y-5070714D02*
X11737857Y-5085000D01*
X11752143Y-5099286D01*
X11766428Y-5085000D01*
X11752143Y-5070714D01*
X11752143Y-5099286D01*
X11937857Y-5370714D02*
X11909286Y-5356429D01*
X11895000Y-5327857D01*
X11895000Y-5070714D01*
X12095000Y-5370714D02*
X12066428Y-5356429D01*
X12052143Y-5327857D01*
X12052143Y-5070714D01*
X12437857Y-5370714D02*
X12437857Y-5070714D01*
X12537857Y-5285000D01*
X12637857Y-5070714D01*
X12637857Y-5370714D01*
X12909286Y-5370714D02*
X12909286Y-5213572D01*
X12895000Y-5185000D01*
X12866428Y-5170714D01*
X12809286Y-5170714D01*
X12780714Y-5185000D01*
X12909286Y-5356429D02*
X12880714Y-5370714D01*
X12809286Y-5370714D01*
X12780714Y-5356429D01*
X12766428Y-5327857D01*
X12766428Y-5299286D01*
X12780714Y-5270714D01*
X12809286Y-5256429D01*
X12880714Y-5256429D01*
X12909286Y-5242143D01*
X13052143Y-5170714D02*
X13052143Y-5470714D01*
X13052143Y-5185000D02*
X13080714Y-5170714D01*
X13137857Y-5170714D01*
X13166428Y-5185000D01*
X13180714Y-5199286D01*
X13195000Y-5227857D01*
X13195000Y-5313572D01*
X13180714Y-5342143D01*
X13166428Y-5356429D01*
X13137857Y-5370714D01*
X13080714Y-5370714D01*
X13052143Y-5356429D01*
X13323571Y-5342143D02*
X13337857Y-5356429D01*
X13323571Y-5370714D01*
X13309286Y-5356429D01*
X13323571Y-5342143D01*
X13323571Y-5370714D01*
X13323571Y-5185000D02*
X13337857Y-5199286D01*
X13323571Y-5213572D01*
X13309286Y-5199286D01*
X13323571Y-5185000D01*
X13323571Y-5213572D01*
X10931500Y-5833250D02*
X10995000Y-5896750D01*
X10995000Y-5833250D02*
X10931500Y-5896750D01*
X11323571Y-5700714D02*
X11352143Y-5700714D01*
X11380714Y-5715000D01*
X11395000Y-5729286D01*
X11409286Y-5757857D01*
X11423571Y-5815000D01*
X11423571Y-5886429D01*
X11409286Y-5943571D01*
X11395000Y-5972143D01*
X11380714Y-5986429D01*
X11352143Y-6000714D01*
X11323571Y-6000714D01*
X11295000Y-5986429D01*
X11280714Y-5972143D01*
X11266428Y-5943571D01*
X11252143Y-5886429D01*
X11252143Y-5815000D01*
X11266428Y-5757857D01*
X11280714Y-5729286D01*
X11295000Y-5715000D01*
X11323571Y-5700714D01*
X11552143Y-5972143D02*
X11566428Y-5986429D01*
X11552143Y-6000714D01*
X11537857Y-5986429D01*
X11552143Y-5972143D01*
X11552143Y-6000714D01*
X11823571Y-5700714D02*
X11766428Y-5700714D01*
X11737857Y-5715000D01*
X11723571Y-5729286D01*
X11695000Y-5772143D01*
X11680714Y-5829286D01*
X11680714Y-5943571D01*
X11695000Y-5972143D01*
X11709286Y-5986429D01*
X11737857Y-6000714D01*
X11795000Y-6000714D01*
X11823571Y-5986429D01*
X11837857Y-5972143D01*
X11852143Y-5943571D01*
X11852143Y-5872143D01*
X11837857Y-5843571D01*
X11823571Y-5829286D01*
X11795000Y-5815000D01*
X11737857Y-5815000D01*
X11709286Y-5829286D01*
X11695000Y-5843571D01*
X11680714Y-5872143D01*
X12109286Y-5800714D02*
X12109286Y-6000714D01*
X12037857Y-5686429D02*
X11966428Y-5900714D01*
X12152143Y-5900714D01*
X12266428Y-6000714D02*
X12266428Y-5800714D01*
X12266428Y-5829286D02*
X12280714Y-5815000D01*
X12309286Y-5800714D01*
X12352143Y-5800714D01*
X12380714Y-5815000D01*
X12395000Y-5843571D01*
X12395000Y-6000714D01*
X12395000Y-5843571D02*
X12409286Y-5815000D01*
X12437857Y-5800714D01*
X12480714Y-5800714D01*
X12509286Y-5815000D01*
X12523571Y-5843571D01*
X12523571Y-6000714D01*
X12666428Y-6000714D02*
X12666428Y-5800714D01*
X12666428Y-5829286D02*
X12680714Y-5815000D01*
X12709286Y-5800714D01*
X12752143Y-5800714D01*
X12780714Y-5815000D01*
X12795000Y-5843571D01*
X12795000Y-6000714D01*
X12795000Y-5843571D02*
X12809286Y-5815000D01*
X12837857Y-5800714D01*
X12880714Y-5800714D01*
X12909286Y-5815000D01*
X12923571Y-5843571D01*
X12923571Y-6000714D01*
X13509286Y-5686429D02*
X13252143Y-6072143D01*
X13895000Y-5700714D02*
X13923571Y-5700714D01*
X13952143Y-5715000D01*
X13966428Y-5729286D01*
X13980714Y-5757857D01*
X13995000Y-5815000D01*
X13995000Y-5886429D01*
X13980714Y-5943571D01*
X13966428Y-5972143D01*
X13952143Y-5986429D01*
X13923571Y-6000714D01*
X13895000Y-6000714D01*
X13866428Y-5986429D01*
X13852143Y-5972143D01*
X13837857Y-5943571D01*
X13823571Y-5886429D01*
X13823571Y-5815000D01*
X13837857Y-5757857D01*
X13852143Y-5729286D01*
X13866428Y-5715000D01*
X13895000Y-5700714D01*
X14123571Y-5972143D02*
X14137857Y-5986429D01*
X14123571Y-6000714D01*
X14109286Y-5986429D01*
X14123571Y-5972143D01*
X14123571Y-6000714D01*
X14323571Y-5700714D02*
X14352143Y-5700714D01*
X14380714Y-5715000D01*
X14395000Y-5729286D01*
X14409285Y-5757857D01*
X14423571Y-5815000D01*
X14423571Y-5886429D01*
X14409285Y-5943571D01*
X14395000Y-5972143D01*
X14380714Y-5986429D01*
X14352143Y-6000714D01*
X14323571Y-6000714D01*
X14295000Y-5986429D01*
X14280714Y-5972143D01*
X14266428Y-5943571D01*
X14252143Y-5886429D01*
X14252143Y-5815000D01*
X14266428Y-5757857D01*
X14280714Y-5729286D01*
X14295000Y-5715000D01*
X14323571Y-5700714D01*
X14537857Y-5729286D02*
X14552143Y-5715000D01*
X14580714Y-5700714D01*
X14652143Y-5700714D01*
X14680714Y-5715000D01*
X14695000Y-5729286D01*
X14709285Y-5757857D01*
X14709285Y-5786429D01*
X14695000Y-5829286D01*
X14523571Y-6000714D01*
X14709285Y-6000714D01*
X14980714Y-5700714D02*
X14837857Y-5700714D01*
X14823571Y-5843571D01*
X14837857Y-5829286D01*
X14866428Y-5815000D01*
X14937857Y-5815000D01*
X14966428Y-5829286D01*
X14980714Y-5843571D01*
X14995000Y-5872143D01*
X14995000Y-5943571D01*
X14980714Y-5972143D01*
X14966428Y-5986429D01*
X14937857Y-6000714D01*
X14866428Y-6000714D01*
X14837857Y-5986429D01*
X14823571Y-5972143D01*
X15109286Y-5700714D02*
X15109286Y-5757857D01*
X15223571Y-5700714D02*
X15223571Y-5757857D01*
X15666428Y-6115000D02*
X15652143Y-6100714D01*
X15623571Y-6057857D01*
X15609285Y-6029286D01*
X15595000Y-5986429D01*
X15580714Y-5915000D01*
X15580714Y-5857857D01*
X15595000Y-5786429D01*
X15609285Y-5743571D01*
X15623571Y-5715000D01*
X15652143Y-5672143D01*
X15666428Y-5657857D01*
X15752143Y-5700714D02*
X15952143Y-5700714D01*
X15823571Y-6000714D01*
X16295000Y-6000714D02*
X16295000Y-5700714D01*
X16423571Y-6000714D02*
X16423571Y-5843571D01*
X16409285Y-5815000D01*
X16380714Y-5800714D01*
X16337857Y-5800714D01*
X16309285Y-5815000D01*
X16295000Y-5829286D01*
X16609285Y-6000714D02*
X16580714Y-5986429D01*
X16566428Y-5972143D01*
X16552143Y-5943571D01*
X16552143Y-5857857D01*
X16566428Y-5829286D01*
X16580714Y-5815000D01*
X16609285Y-5800714D01*
X16652143Y-5800714D01*
X16680714Y-5815000D01*
X16695000Y-5829286D01*
X16709285Y-5857857D01*
X16709285Y-5943571D01*
X16695000Y-5972143D01*
X16680714Y-5986429D01*
X16652143Y-6000714D01*
X16609285Y-6000714D01*
X16880714Y-6000714D02*
X16852143Y-5986429D01*
X16837857Y-5957857D01*
X16837857Y-5700714D01*
X17109286Y-5986429D02*
X17080714Y-6000714D01*
X17023571Y-6000714D01*
X16995000Y-5986429D01*
X16980714Y-5957857D01*
X16980714Y-5843571D01*
X16995000Y-5815000D01*
X17023571Y-5800714D01*
X17080714Y-5800714D01*
X17109286Y-5815000D01*
X17123571Y-5843571D01*
X17123571Y-5872143D01*
X16980714Y-5900714D01*
X17237857Y-5986429D02*
X17266429Y-6000714D01*
X17323571Y-6000714D01*
X17352143Y-5986429D01*
X17366429Y-5957857D01*
X17366429Y-5943571D01*
X17352143Y-5915000D01*
X17323571Y-5900714D01*
X17280714Y-5900714D01*
X17252143Y-5886429D01*
X17237857Y-5857857D01*
X17237857Y-5843571D01*
X17252143Y-5815000D01*
X17280714Y-5800714D01*
X17323571Y-5800714D01*
X17352143Y-5815000D01*
X17466428Y-6115000D02*
X17480714Y-6100714D01*
X17509286Y-6057857D01*
X17523571Y-6029286D01*
X17537857Y-5986429D01*
X17552143Y-5915000D01*
X17552143Y-5857857D01*
X17537857Y-5786429D01*
X17523571Y-5743571D01*
X17509286Y-5715000D01*
X17480714Y-5672143D01*
X17466428Y-5657857D01*
X10995000Y-6261000D02*
G75*
G03X10995000Y-6261000I-50800J0D01*
G01*
X11423571Y-6396714D02*
X11252143Y-6396714D01*
X11337857Y-6396714D02*
X11337857Y-6096714D01*
X11309286Y-6139571D01*
X11280714Y-6168143D01*
X11252143Y-6182429D01*
X11552143Y-6368143D02*
X11566428Y-6382429D01*
X11552143Y-6396714D01*
X11537857Y-6382429D01*
X11552143Y-6368143D01*
X11552143Y-6396714D01*
X11752143Y-6096714D02*
X11780714Y-6096714D01*
X11809286Y-6111000D01*
X11823571Y-6125286D01*
X11837857Y-6153857D01*
X11852143Y-6211000D01*
X11852143Y-6282429D01*
X11837857Y-6339571D01*
X11823571Y-6368143D01*
X11809286Y-6382429D01*
X11780714Y-6396714D01*
X11752143Y-6396714D01*
X11723571Y-6382429D01*
X11709286Y-6368143D01*
X11695000Y-6339571D01*
X11680714Y-6282429D01*
X11680714Y-6211000D01*
X11695000Y-6153857D01*
X11709286Y-6125286D01*
X11723571Y-6111000D01*
X11752143Y-6096714D01*
X11966428Y-6125286D02*
X11980714Y-6111000D01*
X12009286Y-6096714D01*
X12080714Y-6096714D01*
X12109286Y-6111000D01*
X12123571Y-6125286D01*
X12137857Y-6153857D01*
X12137857Y-6182429D01*
X12123571Y-6225286D01*
X11952143Y-6396714D01*
X12137857Y-6396714D01*
X12266428Y-6396714D02*
X12266428Y-6196714D01*
X12266428Y-6225286D02*
X12280714Y-6211000D01*
X12309286Y-6196714D01*
X12352143Y-6196714D01*
X12380714Y-6211000D01*
X12395000Y-6239571D01*
X12395000Y-6396714D01*
X12395000Y-6239571D02*
X12409286Y-6211000D01*
X12437857Y-6196714D01*
X12480714Y-6196714D01*
X12509286Y-6211000D01*
X12523571Y-6239571D01*
X12523571Y-6396714D01*
X12666428Y-6396714D02*
X12666428Y-6196714D01*
X12666428Y-6225286D02*
X12680714Y-6211000D01*
X12709286Y-6196714D01*
X12752143Y-6196714D01*
X12780714Y-6211000D01*
X12795000Y-6239571D01*
X12795000Y-6396714D01*
X12795000Y-6239571D02*
X12809286Y-6211000D01*
X12837857Y-6196714D01*
X12880714Y-6196714D01*
X12909286Y-6211000D01*
X12923571Y-6239571D01*
X12923571Y-6396714D01*
X13509286Y-6082429D02*
X13252143Y-6468143D01*
X13895000Y-6096714D02*
X13923571Y-6096714D01*
X13952143Y-6111000D01*
X13966428Y-6125286D01*
X13980714Y-6153857D01*
X13995000Y-6211000D01*
X13995000Y-6282429D01*
X13980714Y-6339571D01*
X13966428Y-6368143D01*
X13952143Y-6382429D01*
X13923571Y-6396714D01*
X13895000Y-6396714D01*
X13866428Y-6382429D01*
X13852143Y-6368143D01*
X13837857Y-6339571D01*
X13823571Y-6282429D01*
X13823571Y-6211000D01*
X13837857Y-6153857D01*
X13852143Y-6125286D01*
X13866428Y-6111000D01*
X13895000Y-6096714D01*
X14123571Y-6368143D02*
X14137857Y-6382429D01*
X14123571Y-6396714D01*
X14109286Y-6382429D01*
X14123571Y-6368143D01*
X14123571Y-6396714D01*
X14323571Y-6096714D02*
X14352143Y-6096714D01*
X14380714Y-6111000D01*
X14395000Y-6125286D01*
X14409285Y-6153857D01*
X14423571Y-6211000D01*
X14423571Y-6282429D01*
X14409285Y-6339571D01*
X14395000Y-6368143D01*
X14380714Y-6382429D01*
X14352143Y-6396714D01*
X14323571Y-6396714D01*
X14295000Y-6382429D01*
X14280714Y-6368143D01*
X14266428Y-6339571D01*
X14252143Y-6282429D01*
X14252143Y-6211000D01*
X14266428Y-6153857D01*
X14280714Y-6125286D01*
X14295000Y-6111000D01*
X14323571Y-6096714D01*
X14680714Y-6196714D02*
X14680714Y-6396714D01*
X14609285Y-6082429D02*
X14537857Y-6296714D01*
X14723571Y-6296714D01*
X14895000Y-6096714D02*
X14923571Y-6096714D01*
X14952143Y-6111000D01*
X14966428Y-6125286D01*
X14980714Y-6153857D01*
X14995000Y-6211000D01*
X14995000Y-6282429D01*
X14980714Y-6339571D01*
X14966428Y-6368143D01*
X14952143Y-6382429D01*
X14923571Y-6396714D01*
X14895000Y-6396714D01*
X14866428Y-6382429D01*
X14852143Y-6368143D01*
X14837857Y-6339571D01*
X14823571Y-6282429D01*
X14823571Y-6211000D01*
X14837857Y-6153857D01*
X14852143Y-6125286D01*
X14866428Y-6111000D01*
X14895000Y-6096714D01*
X15109286Y-6096714D02*
X15109286Y-6153857D01*
X15223571Y-6096714D02*
X15223571Y-6153857D01*
X15666428Y-6511000D02*
X15652143Y-6496714D01*
X15623571Y-6453857D01*
X15609285Y-6425286D01*
X15595000Y-6382429D01*
X15580714Y-6311000D01*
X15580714Y-6253857D01*
X15595000Y-6182429D01*
X15609285Y-6139571D01*
X15623571Y-6111000D01*
X15652143Y-6068143D01*
X15666428Y-6053857D01*
X15909285Y-6096714D02*
X15852143Y-6096714D01*
X15823571Y-6111000D01*
X15809285Y-6125286D01*
X15780714Y-6168143D01*
X15766428Y-6225286D01*
X15766428Y-6339571D01*
X15780714Y-6368143D01*
X15795000Y-6382429D01*
X15823571Y-6396714D01*
X15880714Y-6396714D01*
X15909285Y-6382429D01*
X15923571Y-6368143D01*
X15937857Y-6339571D01*
X15937857Y-6268143D01*
X15923571Y-6239571D01*
X15909285Y-6225286D01*
X15880714Y-6211000D01*
X15823571Y-6211000D01*
X15795000Y-6225286D01*
X15780714Y-6239571D01*
X15766428Y-6268143D01*
X16295000Y-6396714D02*
X16295000Y-6096714D01*
X16423571Y-6396714D02*
X16423571Y-6239571D01*
X16409285Y-6211000D01*
X16380714Y-6196714D01*
X16337857Y-6196714D01*
X16309285Y-6211000D01*
X16295000Y-6225286D01*
X16609285Y-6396714D02*
X16580714Y-6382429D01*
X16566428Y-6368143D01*
X16552143Y-6339571D01*
X16552143Y-6253857D01*
X16566428Y-6225286D01*
X16580714Y-6211000D01*
X16609285Y-6196714D01*
X16652143Y-6196714D01*
X16680714Y-6211000D01*
X16695000Y-6225286D01*
X16709285Y-6253857D01*
X16709285Y-6339571D01*
X16695000Y-6368143D01*
X16680714Y-6382429D01*
X16652143Y-6396714D01*
X16609285Y-6396714D01*
X16880714Y-6396714D02*
X16852143Y-6382429D01*
X16837857Y-6353857D01*
X16837857Y-6096714D01*
X17109286Y-6382429D02*
X17080714Y-6396714D01*
X17023571Y-6396714D01*
X16995000Y-6382429D01*
X16980714Y-6353857D01*
X16980714Y-6239571D01*
X16995000Y-6211000D01*
X17023571Y-6196714D01*
X17080714Y-6196714D01*
X17109286Y-6211000D01*
X17123571Y-6239571D01*
X17123571Y-6268143D01*
X16980714Y-6296714D01*
X17237857Y-6382429D02*
X17266429Y-6396714D01*
X17323571Y-6396714D01*
X17352143Y-6382429D01*
X17366429Y-6353857D01*
X17366429Y-6339571D01*
X17352143Y-6311000D01*
X17323571Y-6296714D01*
X17280714Y-6296714D01*
X17252143Y-6282429D01*
X17237857Y-6253857D01*
X17237857Y-6239571D01*
X17252143Y-6211000D01*
X17280714Y-6196714D01*
X17323571Y-6196714D01*
X17352143Y-6211000D01*
X17466428Y-6511000D02*
X17480714Y-6496714D01*
X17509286Y-6453857D01*
X17523571Y-6425286D01*
X17537857Y-6382429D01*
X17552143Y-6311000D01*
X17552143Y-6253857D01*
X17537857Y-6182429D01*
X17523571Y-6139571D01*
X17509286Y-6111000D01*
X17480714Y-6068143D01*
X17466428Y-6053857D01*
X10931500Y-6593500D02*
X10931500Y-6720500D01*
X10868000Y-6657000D02*
X10995000Y-6657000D01*
X11423571Y-6792714D02*
X11252143Y-6792714D01*
X11337857Y-6792714D02*
X11337857Y-6492714D01*
X11309286Y-6535571D01*
X11280714Y-6564143D01*
X11252143Y-6578429D01*
X11552143Y-6764143D02*
X11566428Y-6778429D01*
X11552143Y-6792714D01*
X11537857Y-6778429D01*
X11552143Y-6764143D01*
X11552143Y-6792714D01*
X11680714Y-6521286D02*
X11695000Y-6507000D01*
X11723571Y-6492714D01*
X11795000Y-6492714D01*
X11823571Y-6507000D01*
X11837857Y-6521286D01*
X11852143Y-6549857D01*
X11852143Y-6578429D01*
X11837857Y-6621286D01*
X11666428Y-6792714D01*
X11852143Y-6792714D01*
X11952143Y-6492714D02*
X12152143Y-6492714D01*
X12023571Y-6792714D01*
X12266428Y-6792714D02*
X12266428Y-6592714D01*
X12266428Y-6621286D02*
X12280714Y-6607000D01*
X12309286Y-6592714D01*
X12352143Y-6592714D01*
X12380714Y-6607000D01*
X12395000Y-6635571D01*
X12395000Y-6792714D01*
X12395000Y-6635571D02*
X12409286Y-6607000D01*
X12437857Y-6592714D01*
X12480714Y-6592714D01*
X12509286Y-6607000D01*
X12523571Y-6635571D01*
X12523571Y-6792714D01*
X12666428Y-6792714D02*
X12666428Y-6592714D01*
X12666428Y-6621286D02*
X12680714Y-6607000D01*
X12709286Y-6592714D01*
X12752143Y-6592714D01*
X12780714Y-6607000D01*
X12795000Y-6635571D01*
X12795000Y-6792714D01*
X12795000Y-6635571D02*
X12809286Y-6607000D01*
X12837857Y-6592714D01*
X12880714Y-6592714D01*
X12909286Y-6607000D01*
X12923571Y-6635571D01*
X12923571Y-6792714D01*
X13509286Y-6478429D02*
X13252143Y-6864143D01*
X13895000Y-6492714D02*
X13923571Y-6492714D01*
X13952143Y-6507000D01*
X13966428Y-6521286D01*
X13980714Y-6549857D01*
X13995000Y-6607000D01*
X13995000Y-6678429D01*
X13980714Y-6735571D01*
X13966428Y-6764143D01*
X13952143Y-6778429D01*
X13923571Y-6792714D01*
X13895000Y-6792714D01*
X13866428Y-6778429D01*
X13852143Y-6764143D01*
X13837857Y-6735571D01*
X13823571Y-6678429D01*
X13823571Y-6607000D01*
X13837857Y-6549857D01*
X13852143Y-6521286D01*
X13866428Y-6507000D01*
X13895000Y-6492714D01*
X14123571Y-6764143D02*
X14137857Y-6778429D01*
X14123571Y-6792714D01*
X14109286Y-6778429D01*
X14123571Y-6764143D01*
X14123571Y-6792714D01*
X14323571Y-6492714D02*
X14352143Y-6492714D01*
X14380714Y-6507000D01*
X14395000Y-6521286D01*
X14409285Y-6549857D01*
X14423571Y-6607000D01*
X14423571Y-6678429D01*
X14409285Y-6735571D01*
X14395000Y-6764143D01*
X14380714Y-6778429D01*
X14352143Y-6792714D01*
X14323571Y-6792714D01*
X14295000Y-6778429D01*
X14280714Y-6764143D01*
X14266428Y-6735571D01*
X14252143Y-6678429D01*
X14252143Y-6607000D01*
X14266428Y-6549857D01*
X14280714Y-6521286D01*
X14295000Y-6507000D01*
X14323571Y-6492714D01*
X14695000Y-6492714D02*
X14552143Y-6492714D01*
X14537857Y-6635571D01*
X14552143Y-6621286D01*
X14580714Y-6607000D01*
X14652143Y-6607000D01*
X14680714Y-6621286D01*
X14695000Y-6635571D01*
X14709285Y-6664143D01*
X14709285Y-6735571D01*
X14695000Y-6764143D01*
X14680714Y-6778429D01*
X14652143Y-6792714D01*
X14580714Y-6792714D01*
X14552143Y-6778429D01*
X14537857Y-6764143D01*
X14895000Y-6492714D02*
X14923571Y-6492714D01*
X14952143Y-6507000D01*
X14966428Y-6521286D01*
X14980714Y-6549857D01*
X14995000Y-6607000D01*
X14995000Y-6678429D01*
X14980714Y-6735571D01*
X14966428Y-6764143D01*
X14952143Y-6778429D01*
X14923571Y-6792714D01*
X14895000Y-6792714D01*
X14866428Y-6778429D01*
X14852143Y-6764143D01*
X14837857Y-6735571D01*
X14823571Y-6678429D01*
X14823571Y-6607000D01*
X14837857Y-6549857D01*
X14852143Y-6521286D01*
X14866428Y-6507000D01*
X14895000Y-6492714D01*
X15109286Y-6492714D02*
X15109286Y-6549857D01*
X15223571Y-6492714D02*
X15223571Y-6549857D01*
X15666428Y-6907000D02*
X15652143Y-6892714D01*
X15623571Y-6849857D01*
X15609285Y-6821286D01*
X15595000Y-6778429D01*
X15580714Y-6707000D01*
X15580714Y-6649857D01*
X15595000Y-6578429D01*
X15609285Y-6535571D01*
X15623571Y-6507000D01*
X15652143Y-6464143D01*
X15666428Y-6449857D01*
X15766428Y-6521286D02*
X15780714Y-6507000D01*
X15809285Y-6492714D01*
X15880714Y-6492714D01*
X15909285Y-6507000D01*
X15923571Y-6521286D01*
X15937857Y-6549857D01*
X15937857Y-6578429D01*
X15923571Y-6621286D01*
X15752143Y-6792714D01*
X15937857Y-6792714D01*
X16295000Y-6792714D02*
X16295000Y-6492714D01*
X16423571Y-6792714D02*
X16423571Y-6635571D01*
X16409285Y-6607000D01*
X16380714Y-6592714D01*
X16337857Y-6592714D01*
X16309285Y-6607000D01*
X16295000Y-6621286D01*
X16609285Y-6792714D02*
X16580714Y-6778429D01*
X16566428Y-6764143D01*
X16552143Y-6735571D01*
X16552143Y-6649857D01*
X16566428Y-6621286D01*
X16580714Y-6607000D01*
X16609285Y-6592714D01*
X16652143Y-6592714D01*
X16680714Y-6607000D01*
X16695000Y-6621286D01*
X16709285Y-6649857D01*
X16709285Y-6735571D01*
X16695000Y-6764143D01*
X16680714Y-6778429D01*
X16652143Y-6792714D01*
X16609285Y-6792714D01*
X16880714Y-6792714D02*
X16852143Y-6778429D01*
X16837857Y-6749857D01*
X16837857Y-6492714D01*
X17109286Y-6778429D02*
X17080714Y-6792714D01*
X17023571Y-6792714D01*
X16995000Y-6778429D01*
X16980714Y-6749857D01*
X16980714Y-6635571D01*
X16995000Y-6607000D01*
X17023571Y-6592714D01*
X17080714Y-6592714D01*
X17109286Y-6607000D01*
X17123571Y-6635571D01*
X17123571Y-6664143D01*
X16980714Y-6692714D01*
X17237857Y-6778429D02*
X17266429Y-6792714D01*
X17323571Y-6792714D01*
X17352143Y-6778429D01*
X17366429Y-6749857D01*
X17366429Y-6735571D01*
X17352143Y-6707000D01*
X17323571Y-6692714D01*
X17280714Y-6692714D01*
X17252143Y-6678429D01*
X17237857Y-6649857D01*
X17237857Y-6635571D01*
X17252143Y-6607000D01*
X17280714Y-6592714D01*
X17323571Y-6592714D01*
X17352143Y-6607000D01*
X17466428Y-6907000D02*
X17480714Y-6892714D01*
X17509286Y-6849857D01*
X17523571Y-6821286D01*
X17537857Y-6778429D01*
X17552143Y-6707000D01*
X17552143Y-6649857D01*
X17537857Y-6578429D01*
X17523571Y-6535571D01*
X17509286Y-6507000D01*
X17480714Y-6464143D01*
X17466428Y-6449857D01*
M02*
